<svg xmlns="http://www.w3.org/2000/svg" width="158" height="122" viewBox="0 0 158 122" fill="none"><path opacity="0.05" d="M5.70487 112.043C-1.85165 101.739 -0.306 91.721 1.41139 88L68.8189 91.4348H101.449H143.096C141.951 95.0127 137.257 103.027 127.64 106.462C115.618 110.755 105.313 100.88 103.596 102.168C102.222 103.199 87.2809 102.598 79.982 102.168C79.5526 105.46 75.6026 113.074 63.2374 117.196C47.7809 122.348 15.1505 124.924 5.70487 112.043Z" fill="black"></path><path d="M0.239978 87.774C-0.94959 79.706 2.26305 73.6448 10.3311 68.8947C15.7286 65.7144 21.636 63.9866 27.7862 63.1086C35.7123 61.9358 43.7933 62.3679 51.5492 64.3791C52.6336 64.6624 53.018 64.4479 53.2203 63.4526C53.3659 62.7324 53.5076 62 54.0295 61.4295C55.1382 61.4295 54.952 62.4046 55.1503 63.048C55.8422 65.241 56.7323 65.8803 58.9658 65.4311C59.7346 65.2774 60.2646 65.5849 60.8311 65.9329C69.0326 70.9582 77.9868 73.1067 87.5357 73.0703C91.3067 73.0703 95.0615 73.0096 98.7799 72.261C99.5528 72.1073 100.366 71.8766 101.151 72.2894C102.304 73.7096 102.227 75.1217 101.179 76.5742C99.0348 77.8366 96.5788 77.5939 94.2806 77.7233C86.0215 78.2009 77.7535 76.9525 70.0037 74.0575C71.432 76.2182 72.8037 78.3667 73.4187 80.8996C73.7302 82.1822 74.8146 82.6677 75.9556 82.9469C80.0016 83.9983 84.1509 84.6021 88.3287 84.7475C92.4315 84.8338 96.533 84.7313 100.633 84.44C101.507 84.7151 102.252 85.0873 101.847 86.2203C99.4597 87.7416 96.7124 87.8023 94.054 87.8913C87.5802 88.1058 81.1064 88.1381 74.7903 86.4145C74.2724 86.2729 73.7262 86.1353 73.3054 86.6532C70.6349 94.6362 64.2501 98.6338 56.9994 101.499C51.4036 103.708 45.5488 105.011 39.4593 104.893C32.9855 105.075 26.5602 104.788 20.2846 102.939C14.4096 101.207 8.95537 98.6743 4.44391 94.442C2.49311 92.6173 1.04529 90.3209 0.239978 87.774V87.774Z" fill="#B6F0FF"></path><path d="M145.108 34.3647C152.659 36.2988 155.79 41.931 157.247 48.9309C158.74 56.0925 157.866 63.1612 155.916 70.072C152.978 80.4908 148.026 89.797 139.873 97.0801C135.903 100.633 131.424 103.275 125.922 103.679C124.516 103.813 123.099 103.647 121.762 103.194C119.557 102.385 117.388 101.486 115.203 100.624C114.954 99.9279 114.601 99.2731 114.155 98.6823C110.995 94.1709 109.899 89.097 109.705 83.6671C109.51 77.7475 110.514 72.0384 112.076 66.39C113.694 60.6121 116.47 55.3642 119.593 50.2823C123.846 44.1079 128.697 38.6091 135.725 35.4289C138.776 34.0653 141.827 33.3491 145.108 34.3647Z" fill="#B6F0FF"></path><path d="M53.6328 27.6077C52.071 17.6744 55.3079 10.9739 64.3632 6.04167C73.9283 0.826185 84.2703 -0.610204 95.0209 0.219257C102.563 0.797857 109.753 2.61054 116.296 6.49484C121.305 9.47281 125.31 13.3247 126.334 19.4425C126.517 20.7752 126.551 22.1242 126.435 23.4644C126.075 26.7782 124.384 29.3799 122.09 31.6821C117.578 36.2138 111.974 38.7386 105.95 40.4663C99.3948 42.3437 92.7106 42.8131 85.9413 42.6067C84.5211 42.5622 83.1495 42.1536 81.7333 42.1131C75.393 41.1097 69.2429 39.5236 63.6511 36.2098C60.1957 34.1584 57.2339 31.6012 55.0085 28.2105C54.3611 27.2233 54.1669 26.1187 53.7947 25.0545C54.0617 25.9366 54.4987 26.8065 53.6328 27.6077Z" fill="#B6F0FF"></path><path d="M53.5763 38.3583L54.1711 37.193C54.948 36.1977 55.3566 37.0797 55.6317 37.5774C60.7704 46.8633 69.6598 50.0962 79.233 52.1193C88.357 54.0493 97.4406 53.5557 106.443 51.2048C107.034 51.047 107.621 50.8812 108.216 51.2048C108.399 51.3604 108.521 51.5759 108.56 51.8129C108.599 52.05 108.553 52.2933 108.43 52.4996C107.147 55.162 106.322 58.0388 104.744 60.5919C102.219 62.089 99.3302 62.2549 96.5667 62.3884C88.4744 62.793 80.4306 62.5948 72.6418 59.9607C66.9772 58.0388 61.6484 55.4695 57.6305 50.8973C56.1105 49.2102 54.9637 47.2213 54.265 45.0606C53.5664 42.8998 53.3317 40.616 53.5763 38.3583V38.3583Z" fill="#2192F6"></path><path d="M101.03 72.3985C93.0884 74.0499 84.9015 74.1379 76.9266 72.6574C70.8048 71.5447 65.0876 69.4205 59.9328 65.9004C59.775 65.7952 59.5646 65.6536 59.4028 65.6819C55.6034 66.3333 55.3283 66.127 54.4786 62.0929C54.3822 61.8553 54.2453 61.6363 54.074 61.4455C54.074 60.8589 54.3855 60.2317 54.0052 59.6895C51.7475 56.3879 51.8486 52.6735 52.0995 48.9308C52.9734 48.7609 53.289 49.4325 53.6087 49.9949C56.6635 55.3399 61.4137 58.6456 66.961 60.8912C77.9503 65.342 89.2715 66.0137 100.835 63.675C101.762 63.4848 102.765 62.8658 103.668 63.76C103.798 64.0702 103.84 64.4105 103.789 64.7432C103.316 66.6934 103.016 68.6841 102.531 70.6303C102.316 71.4193 102.243 72.4268 101.03 72.3985Z" fill="#2192F6"></path><path d="M0.240035 87.774C1.56313 88.7046 1.73306 90.3717 2.66773 91.5774C5.83586 95.5912 9.95079 98.2293 14.5432 100.281C22.5262 103.837 30.9301 104.667 39.5282 104.327C39.5808 104.464 39.601 104.667 39.5282 104.695C35.6479 105.909 38.2658 109.037 37.6346 111.205C37.4929 111.679 37.8895 111.889 38.3669 111.909C38.9577 111.938 39.5808 111.889 40.0178 112.443C34.9641 113.164 29.9833 112.496 25.0267 111.594C18.1483 110.343 11.6461 108.005 6.26474 103.356C3.02781 100.556 0.284532 97.3351 0.280486 92.6577C0.0275983 91.2515 0.0275983 89.8114 0.280486 88.4052L0.240035 87.774Z" fill="#2192F6"></path><path d="M81.608 41.6479C85.205 42.1699 88.8304 42.1537 92.4436 42.0282C100.572 41.745 108.406 39.9687 115.543 36.0602C120.621 33.2805 124.631 29.2384 126.435 23.4645C126.536 26.1552 126.435 28.8621 126.925 31.5285C126.673 32.5186 126.043 33.3702 125.169 33.8995C120.111 36.7966 116.138 40.8468 112.759 45.5322C112.435 46.0476 111.998 46.4822 111.481 46.8027C110.995 47.0327 110.496 47.2353 109.988 47.4096C102.749 50.2136 95.2071 50.9662 87.5194 50.7234C86.9158 50.7508 86.3147 50.6314 85.7674 50.3755C84.9582 49.6593 85.2778 48.7853 85.4316 47.9478C86.0506 44.5247 85.7108 44.0392 82.3889 43.3554C81.4663 43.1612 80.2606 42.9589 81.608 41.6479Z" fill="#2192F6"></path><path d="M40.0176 112.456C37.1205 112.362 37.1246 112.362 37.1165 109.433C37.1165 108.899 37.3228 108.195 37.0598 107.863C34.9599 105.177 37.3026 105.213 38.8887 104.744C39.1231 104.636 39.3432 104.5 39.5442 104.339C48.3857 104.356 57.0453 101.828 64.4887 97.0559C68.4135 94.5473 71.4198 91.1647 72.7145 86.5359C72.7967 86.522 72.8807 86.5245 72.9619 86.5433C73.043 86.5621 73.1196 86.5967 73.1874 86.6452C73.2551 86.6937 73.3125 86.7552 73.3563 86.826C73.4002 86.8968 73.4296 86.9756 73.4428 87.0578C73.7948 89.1901 74.2156 91.3346 73.1151 93.3941C70.0602 104.068 61.3813 107.96 51.9213 110.724C48.0735 111.861 44.0961 112.658 40.0176 112.456Z" fill="#2192F6"></path><path d="M101.03 72.3986C102.571 71.0917 102.057 69.1131 102.608 67.4785C102.915 66.5681 102.903 65.5525 103.461 64.7068C105.011 65.7629 106.755 66.4669 108.357 67.438C109.514 68.142 110.728 68.5628 111.485 66.7947C111.687 66.3213 112.104 65.86 112.76 66.3213C110.028 75.417 109.078 84.5775 112.055 93.7906C112.577 95.409 113.722 96.8373 114.637 98.3142C115.094 99.0465 115.851 99.6494 115.207 100.633C111.319 99.3783 107.694 97.7275 105.367 94.1062C105.246 93.916 104.91 93.8594 104.675 93.742C103.109 91.4398 102.037 88.9514 101.843 86.1393C101.855 85.9768 101.832 85.8136 101.775 85.6609C101.719 85.5081 101.63 85.3694 101.514 85.2542C101.399 85.139 101.26 85.0499 101.108 84.9932C100.955 84.9365 100.792 84.9134 100.629 84.9255C101.192 82.8377 100.779 80.7134 100.872 78.6094C100.904 77.8811 100.807 77.1447 101.034 76.4326C101.332 75.8019 101.487 75.1128 101.486 74.4151C101.485 73.7174 101.329 73.0286 101.03 72.3986V72.3986Z" fill="#2192F6"></path><path d="M81.6081 41.6477C81.1712 42.4569 81.3249 42.7806 82.3203 42.8818C86.3664 43.2864 86.9855 44.213 85.9618 48.1903C85.7627 48.8228 85.659 49.4815 85.6543 50.1446C85.2497 50.6099 84.7075 50.618 84.1653 50.5492C76.073 49.74 68.3853 47.8424 61.5918 43.1043C58.9052 41.2269 56.7607 38.8437 54.7741 36.2785C54.1226 35.4369 54.4989 34.4415 54.1793 33.5675C53.6735 31.6052 53.1273 29.6468 53.633 27.5914C53.6816 26.7498 53.7261 25.9082 53.803 24.488C55.389 28.5343 58.189 31.9902 61.8184 34.3808C66.6495 37.6825 71.9864 39.7015 77.6955 40.8263C79.0024 41.1015 80.3053 41.3847 81.6081 41.6477Z" fill="#2192F6"></path><path d="M111.55 46.5031C115.127 41.2431 119.315 36.59 125.012 33.5271C125.898 33.0496 126.027 31.9329 126.942 31.5364C127.087 31.772 127.319 31.942 127.588 32.0107C127.856 32.0793 128.141 32.0413 128.382 31.9046C133.84 29.4566 138.768 31.4999 143.693 33.6444C144.182 33.8589 144.647 34.1218 145.125 34.3606C137.919 33.7617 132.367 37.0998 127.374 41.8015C124.606 44.4276 122.147 47.3627 120.047 50.5492C118.024 52.3214 114.532 52.3417 112.416 50.5937C111.101 49.5215 110.826 48.2227 111.55 46.5031Z" fill="#2192F6"></path><path d="M101.838 86.1554C102.785 88.6883 103.729 91.2226 104.671 93.7581C98.0471 95.4616 91.3183 95.8662 84.5248 95.4616C80.6549 95.2404 76.8248 94.5613 73.1147 93.4385C72.8922 91.1605 73.584 88.8259 72.7101 86.5803C72.6413 85.589 73.0823 85.1843 74.0494 85.4635C83.1775 88.1138 92.3744 88.0652 101.624 86.1757C101.694 86.1594 101.766 86.1526 101.838 86.1554V86.1554Z" fill="#2192F6"></path><path d="M103.457 63.9016C100.451 64.3062 97.4164 64.5895 94.4425 65.1721C91.2298 65.8033 88.001 65.6455 84.8207 65.4473C79.4232 65.1195 74.0822 64.2334 68.9639 62.3155C63.1576 60.1509 57.9421 57.1769 54.1671 52.0626C53.4185 51.047 53.3012 49.6349 52.0793 48.9349C51.9255 46.0257 51.6746 43.1085 52.5931 40.2681C52.8116 39.5883 52.9492 38.8398 53.5804 38.3623C54.0619 38.6415 54.1145 39.1028 54.1064 39.5762C54.0012 47.7008 58.8323 52.5238 65.3264 56.129C71.0667 59.2576 77.4161 61.1072 83.9387 61.5508C90.7322 62.0849 97.469 62.2144 104.129 60.5069C104.317 60.4407 104.498 60.3581 104.671 60.2601C105.294 62.097 104.999 62.9872 103.457 63.9016Z" fill="#B6F0FF"></path><path d="M54.1794 33.584C55.2031 37.359 58.088 39.7706 60.9365 41.9555C67.2485 46.8109 74.6084 49.0727 82.4863 49.7443C83.5504 49.8333 84.5579 50.3351 85.6544 50.1489C90.9428 50.2825 96.223 50.1853 101.434 49.2911C103.591 48.9229 105.679 48.1542 107.799 47.5594C108.633 47.3247 109.417 46.8756 110.312 46.912C110.465 48.7732 109.948 50.327 108.289 51.3628C104.57 52.172 100.856 52.9812 97.0646 53.4911C93.4582 53.9468 89.8132 54.0133 86.1926 53.6893C81.2037 53.2847 76.239 52.4755 71.4889 50.6345C65.6948 48.397 60.3174 45.6253 56.6557 40.3532C56.1143 39.5049 55.6186 38.6284 55.1707 37.7272C54.9441 37.3226 54.7944 36.8088 54.1592 37.1931C54.1673 35.9874 54.174 34.7843 54.1794 33.584Z" fill="#B6F0FF"></path><path d="M64.6425 82.87C65.2575 87.4907 61.7819 92.5039 56.9265 95.057C51.9133 97.7113 46.6169 99.1032 41.0898 99.7748C38.4776 100.05 35.845 100.074 33.2282 99.8477C27.7254 99.4431 22.3036 98.4639 17.4482 95.6801C13.402 93.3698 9.5339 90.7965 8.33624 85.7792C8.15416 85.0266 7.97615 84.3671 8.38076 83.6712C8.27961 80.3533 10.0316 77.9782 12.4269 76.0118C16.0362 73.0433 20.2925 70.9643 24.8526 69.9426C36.0322 67.3692 46.9082 67.9195 57.1895 73.5315C60.2646 75.2107 62.8258 77.4482 64.2541 80.7579C64.5292 81.4458 64.9824 82.0851 64.6425 82.87Z" fill="#6FB5E8"></path><path d="M101.029 76.4446C101.952 78.5 100.977 80.7213 101.535 82.7566C101.867 83.9502 101.535 84.4559 100.625 84.9374C96.6795 85.4634 92.7102 85.3906 88.7491 85.3421C83.9269 85.3075 79.1375 84.545 74.543 83.0803C73.6731 82.793 73.1511 82.3843 72.9852 81.4618C72.4107 78.3341 70.6466 75.7972 68.3564 72.8152C79.2891 77.0636 90.0074 78.2411 101.029 76.4446Z" fill="#2192F6"></path><path d="M64.6427 82.87C62.7612 77.0678 58.1688 74.0979 52.9088 72.0829C42.0328 67.9032 31.0151 67.9316 20.135 72.0829C15.4617 73.8754 11.1849 76.469 8.93526 81.3567C8.5454 82.0633 8.34861 82.8602 8.36474 83.667C7.45436 82.1497 8.36476 80.7943 8.89076 79.5157C11.0312 74.4944 15.3646 71.917 20.131 70.0275C28.6602 66.6368 37.4525 66.3131 46.4026 68.1015C52.3343 69.2911 57.6631 71.561 61.9398 75.9713C63.3843 77.4603 64.149 79.3175 64.8895 81.1827C65.1201 81.729 65.2294 82.3925 64.6427 82.87Z" fill="#064DF2"></path><path d="M122.879 95.0571C119.598 93.6571 117.89 90.9826 116.838 87.7255C114.771 81.3083 115.196 74.8749 116.98 68.5305C119.29 60.3128 123.142 52.9448 129.665 47.1871C133.124 44.1282 136.855 41.8421 141.714 42.0323C143.184 42.1297 144.614 42.5512 145.902 43.2664C148.67 45.2611 150.094 48.053 150.883 51.302C152.631 58.5163 151.385 65.4635 149.102 72.3177C147.133 78.2844 143.896 83.7545 139.614 88.3526C136.907 91.2699 133.832 93.7745 129.936 95.0652C127.561 95.8663 125.222 96.0322 122.879 95.0571Z" fill="#6FB5E8"></path><path d="M108.313 51.3585C109.276 50.0031 109.786 48.4453 110.336 46.9078C110.623 46.4344 111.105 46.5274 111.55 46.5032C111.481 48.0731 111.436 49.8412 113.144 50.4603C115.086 51.1643 117.154 52.4834 119.294 50.7799C119.529 50.6595 119.784 50.5814 120.047 50.5493C117.502 54.729 115.191 59.022 113.512 63.6346C113.192 64.5126 112.755 65.3542 112.768 66.3212C112.529 66.4304 112.12 66.4952 112.084 66.653C111.428 69.4084 109.563 69.0807 108.062 67.8385C106.561 66.5963 104.194 66.8877 103.469 64.7068C103.469 64.4397 103.469 64.1687 103.469 63.8976C104.318 62.88 104.752 61.5794 104.683 60.256C105.884 57.2915 107.093 54.3257 108.313 51.3585Z" fill="#2192F6"></path><path d="M122.879 95.0571C130.211 96.2385 135.187 92.2976 139.727 87.3694C145.675 80.8955 149.033 73.1472 150.571 64.6179C151.732 58.1805 151.651 51.7835 148.054 45.9449C147.399 45.0143 146.684 44.1276 145.914 43.2906C149.438 45.075 151.02 48.32 151.963 51.8482C153.613 58.0348 152.922 64.2092 151.125 70.2542C148.879 77.8083 145.339 84.6787 139.61 90.2219C136.531 93.2039 132.934 95.4131 128.628 96.1536C126.642 96.5552 124.578 96.1615 122.879 95.0571V95.0571Z" fill="#4B9DD9"></path><path d="M118.023 20.6078C119.015 22.7603 117.991 24.573 116.935 26.2724C114.103 30.8526 109.68 33.3289 104.796 35.0647C100.407 36.6553 95.7766 37.4765 91.1082 37.4924C87.1647 37.5092 83.2309 37.1023 79.3744 36.2785C73.908 35.0647 68.6723 33.0416 64.8082 28.6475C62.8903 26.4787 61.0534 24.2291 61.8019 20.9881C61.6684 18.9407 62.4412 17.2535 63.74 15.7281C66.4226 12.56 69.8093 10.4438 73.6288 8.96294C80.1229 6.43814 86.8436 5.67342 93.7989 6.23179C99.1762 6.66068 104.295 7.85024 109.105 10.2334C112.901 12.1149 116.291 14.494 117.873 18.702C118.068 19.3049 118.428 19.9118 118.023 20.6078Z" fill="#6FB5E8"></path><path d="M118.023 20.6078C117.619 17.9414 116.057 15.8617 114.115 14.223C108.555 9.52944 101.9 7.64797 94.7742 6.82256C90.3844 6.36827 85.9525 6.53171 81.6081 7.3081C74.6325 8.44507 68.3205 10.9941 63.6351 16.6143C62.6064 17.8586 61.9625 19.3757 61.7819 20.9801C61.1345 18.3136 62.316 16.2015 63.9183 14.2877C68.4743 8.8335 74.7013 6.53124 81.4139 5.26884C90.6067 3.54113 99.573 4.39083 108.118 8.24681C112.674 10.3063 116.615 13.1953 118.129 18.3622C118.335 19.131 118.732 19.8754 118.023 20.6078Z" fill="#064DF2"></path><path d="M18.9171 90.5819C19.6495 90.0397 20.1026 89.6999 19.2772 88.6155C17.2906 86.0057 19.0385 81.3324 22.2066 80.2885C22.9956 80.0296 27.1065 82.2104 27.3493 83.0358C27.5233 83.6225 27.2401 84.0555 26.8638 84.4844C26.3904 85.0225 25.6499 85.3705 25.4719 86.4225C27.5645 85.5751 29.5467 84.4774 31.3752 83.1532C32.0995 82.6474 31.6099 82.1053 31.2255 81.6157C29.3076 79.188 31.0394 75.2794 33.5035 74.1788C37.5173 72.3823 41.5756 71.7916 45.8119 73.2078C46.787 73.5355 47.8066 73.9603 48.7008 73.2361C50.5661 71.7309 51.788 73.317 53.1233 74.106C53.888 74.5592 53.9568 75.4008 53.095 75.8985C52.2331 76.3961 52.132 76.8331 52.6904 77.7758C54.147 80.24 53.1354 83.4688 50.643 84.9578C50.4899 85.0844 50.2999 85.158 50.1015 85.1674C49.9031 85.1769 49.7069 85.1218 49.5424 85.0104C48.5335 84.3459 47.491 83.7342 46.4188 83.1775C45.3345 82.6393 44.9258 81.8948 45.5367 80.4463C44.4969 81.0006 43.7767 81.4376 43.016 81.7694C41.4663 82.4451 40.8189 83.2422 42.2998 84.6907C43.1819 85.5526 42.6802 86.7381 42.7611 87.782C42.329 88.9933 41.4644 90.0021 40.3334 90.6143C36.1133 93.1027 31.6059 93.5963 26.9164 92.4715C25.4355 92.1154 24.1124 91.9253 22.6194 92.5403C21.1263 93.1553 19.5524 92.2004 18.9171 90.5819Z" fill="white"></path><path d="M18.9173 90.5819C20.1716 91.8564 21.438 92.7506 23.4004 91.7957C25.5813 90.7194 27.6287 92.3986 29.8014 92.4593C34.7701 92.5968 39.3342 91.8483 42.7491 87.7981C42.7491 89.6836 41.5353 90.7154 40.0868 91.5165C37.9657 92.7525 35.6057 93.5224 33.1638 93.775C30.722 94.0275 28.2543 93.7569 25.9252 92.9812C24.7883 92.6252 23.9022 92.6616 22.8987 93.3009C21.7456 94.0373 18.8283 92.7749 18.5288 91.4639C18.4904 91.2947 18.5075 91.1176 18.5774 90.9588C18.6474 90.7999 18.7665 90.6678 18.9173 90.5819V90.5819Z" fill="#064DF2"></path><path d="M133.399 79.6815C133.099 77.3995 132.824 75.1134 132.484 72.8354C132.367 72.0788 131.78 72.277 131.218 72.3296C125.501 72.8759 123.757 68.769 124.218 64.0472C124.623 60.0496 126.31 56.5901 128.924 53.5676C129.328 53.1145 129.632 52.7584 129.502 51.9937C129.15 49.9301 130.081 48.4776 131.954 47.5874C132.856 47.1585 133.787 47.3204 134.006 48.1134C134.329 49.2989 134.997 49.2989 135.923 49.3273C137.349 49.3356 138.73 49.8229 139.844 50.7109C140.959 51.5989 141.743 52.8359 142.07 54.2231C142.16 54.4728 142.193 54.7397 142.167 55.004C141.855 56.2786 137.311 58.8762 135.996 58.508C135.353 59.7218 136.207 60.8224 136.243 61.9755C136.267 62.7241 136.939 62.6634 137.481 62.6351C142.466 62.3599 144.578 64.3911 144.7 69.376C144.821 74.2313 143.158 78.4636 140.22 82.2225C139.63 82.9791 139.257 83.7074 139.44 84.6057C139.844 86.6975 138.436 87.6241 137.012 88.5223C136 89.1616 134.989 89.1212 134.608 87.8183C134.366 87.0333 133.989 86.9201 133.289 87.0091C132.414 87.1303 131.524 87.0771 130.669 86.8527C129.815 86.6283 129.013 86.237 128.311 85.7015C127.608 85.1659 127.019 84.4966 126.576 83.7322C126.133 82.9677 125.846 82.1233 125.731 81.2474C125.66 80.9858 125.664 80.7096 125.742 80.45C125.82 80.1905 125.969 79.9579 126.172 79.7786C127.386 78.8075 128.539 77.7879 129.814 76.9463C130.74 76.3353 131.622 76.659 132.092 77.6989C132.391 78.3543 132.581 79.0665 132.816 79.7503L133.399 79.6815Z" fill="white"></path><path d="M80.5194 19.3939C82.0124 19.2361 83.8575 19.1026 84.5089 21.6071C84.6505 22.1534 85.4031 22.5903 85.9534 22.9666C86.7869 23.5331 87.1915 23.3713 87.3008 22.2302C87.6487 18.5159 87.7054 18.5118 83.9991 17.5691C83.0745 17.3932 82.1804 17.0838 81.3448 16.6506C80.3211 16.0437 79.2691 15.2951 79.3703 14.0651C79.4998 12.5154 79.609 10.8282 81.3934 9.97444C83.0482 9.16521 84.695 8.48951 86.5603 8.47332C87.0742 8.47332 87.6366 8.59875 88.0007 8.00801C88.8504 6.62827 90.6753 6.94792 91.177 7.45774C92.5324 8.82534 94.2116 8.31552 95.6682 8.83343C97.2867 9.40798 98.7878 10.0473 99.9895 11.2935C100.241 11.5197 100.425 11.811 100.521 12.1351C100.618 12.4592 100.623 12.8036 100.536 13.1304C100.313 13.9397 99.5606 13.7819 99.0144 13.7171C97.0682 13.4744 94.7902 14.6154 93.2891 12.3819C93.2356 12.3155 93.1688 12.2611 93.093 12.2222C93.0171 12.1833 92.9339 12.1608 92.8488 12.1563C92.7636 12.1517 92.6785 12.1651 92.5989 12.1956C92.5193 12.2261 92.447 12.273 92.3868 12.3333C92.2236 12.541 92.1442 12.8023 92.1642 13.0657C92.1885 13.6848 92.5689 14.0004 93.1717 14.1298C95.0694 14.5345 97.0115 14.8096 98.8363 15.4125C101.786 16.3795 103.821 18.3378 104.202 21.5667C104.582 24.7955 102.846 27.2313 99.1762 28.696C98.3108 29.0612 97.4088 29.3325 96.4855 29.5052C94.7457 29.8046 93.1758 30.1162 93.6896 32.5156C93.8515 33.2722 93.285 33.5716 92.5729 33.5635C91.6295 33.5128 90.684 33.5128 89.7406 33.5635C87.847 33.7375 86.3418 33.5878 86.8152 31.0306C86.9852 30.1243 86.3135 29.9624 85.6014 29.8168C83.4326 29.3757 81.3084 28.8659 79.3096 27.7937C76.271 26.1752 75.6155 23.1123 76.364 20.0291C76.5056 19.4343 76.9628 19.3696 77.4524 19.3656L80.5194 19.3939Z" fill="white"></path><path d="M31.4033 88.7573C32.7305 87.859 33.9443 86.7342 35.9067 86.2487C34.8628 88.4943 33.0016 88.3972 31.4033 88.7573Z" fill="#6FB5E8"></path><path d="M92.7432 21.2794C93.346 20.6077 92.1362 19.2037 93.7102 19.2563C94.8391 19.2968 96.1015 19.9765 96.0448 21.2794C95.9922 22.4932 94.7865 23.3267 93.6616 23.3025C92.2576 23.2701 93.3825 21.8661 92.7432 21.2794Z" fill="#6FB5E8"></path></svg>