<svg xmlns="http://www.w3.org/2000/svg" width="156" height="148" viewBox="0 0 156 148" fill="none"><path opacity="0.05" d="M9.53984 143.509C2.90357 138.2 2.35055 129.131 2.90357 125.26C34.0111 122.08 96.9726 115.471 99.9589 114.476C102.945 113.48 138.532 99.6823 155.952 92.9078C155.676 96.6407 154.542 104.438 152.22 105.766C149.316 107.425 99.9589 138.117 92.0784 139.776C84.1978 141.436 73.4139 137.703 68.0219 138.117C62.6299 138.532 57.6527 138.947 51.846 143.509C46.0392 148.072 17.8352 150.146 9.53984 143.509Z" fill="black"></path><path d="M155.901 69.4417C155.901 77.4286 155.926 85.4154 155.978 93.4023C155.978 94.3439 155.589 94.8458 154.834 95.2745C146.906 99.8175 138.99 104.369 131.086 108.929C130.42 108.237 130.515 107.35 130.515 106.511C130.533 94.4502 130.434 82.3892 130.559 70.3319C130.474 64.9316 130.537 59.5313 130.529 54.131C130.552 52.7359 130.459 51.3413 130.251 49.9617C131.555 48.3204 133.64 47.943 135.322 46.9135C140.982 43.4476 146.8 40.2492 152.541 36.8932L152.856 36.71C155.336 35.3178 155.831 35.6109 155.831 38.3954C155.831 48.0773 155.831 57.7605 155.831 67.4449C155.805 68.1117 155.703 68.7859 155.901 69.4417Z" fill="#5FBFF2"></path><path d="M106.075 123.276C105.342 124.166 104.214 124.522 103.342 125.229C102.543 125.009 102.477 124.28 102.29 123.661C101.482 121.17 100.173 118.871 98.4436 116.905C97.3569 115.666 95.946 114.755 94.3695 114.274C92.2885 113.571 90.0903 113.443 87.9727 112.915C86.8736 112.644 85.8111 113.047 84.7669 113.377C84.0782 113.597 83.4113 113.923 82.6493 113.813C81.0592 112.882 80.1287 110.266 80.7442 108.346C81.0442 107.372 81.4496 106.434 81.9532 105.547C85.0417 102.166 85.9247 98.1394 85.551 93.6843C85.3383 90.9325 84.1722 88.3411 82.2536 86.3569C81.6271 85.6901 80.9384 85.0673 80.7881 84.089C80.6416 77.7142 80.5573 71.3467 80.8211 64.9791C81.0263 64.1145 81.7334 63.7078 82.4258 63.3305C89.7056 59.3553 96.8022 55.0578 104.016 50.9654C104.551 50.6613 105.06 50.3206 105.723 50.4782C106.401 50.9801 106.119 51.7092 106.123 52.343C106.152 56.4903 106.145 60.6413 106.148 64.7996C106.859 65.5507 106.731 66.4996 106.735 67.3972C106.757 72.0281 106.735 76.659 106.735 81.2863C106.697 82.3831 106.801 83.4802 107.042 84.5507C106.361 86.225 106.35 87.9762 106.354 89.7458C106.386 100.22 106.332 110.695 106.397 121.166C106.397 121.881 106.288 122.593 106.075 123.276V123.276Z" fill="#5FBFF2"></path><path d="M81.2865 64.3528V84.5545C80.4548 85.0161 79.9492 84.287 79.3191 84.0159C77.9572 83.1121 76.79 81.9449 75.8862 80.583C73.8748 77.7913 70.9255 76.2305 67.87 74.8676C66.8763 74.4191 65.8515 74.0432 64.8035 73.7429C62.1053 72.9165 59.3253 72.3859 56.5125 72.1602C55.8603 72.1089 54.8125 72.4166 54.9884 71.094C55.8383 70.2917 55.8054 69.2622 55.8054 68.2033C55.8054 59.187 55.8457 50.1706 55.7651 41.1578C55.798 40.2859 56.4758 39.9231 57.1023 39.5604C62.488 36.4536 67.8553 33.3065 73.2996 30.3022C75.1315 29.2984 76.8314 28.1297 78.6559 27.1441C79.3374 26.7777 79.9419 26.1806 80.8212 26.3051C81.5539 26.7814 81.2315 27.5251 81.2352 28.137C81.2718 33.6326 81.2682 39.1281 81.2792 44.6054C81.88 45.2392 81.8617 46.0452 81.8654 46.8329C81.8825 51.9206 81.8825 57.0119 81.8654 62.1069C81.8544 62.8873 81.8544 63.6897 81.2865 64.3528Z" fill="#49ACE7"></path><path d="M81.2865 64.3528V84.5545C80.4548 85.0161 79.9492 84.287 79.3191 84.0159C77.9572 83.1121 76.79 81.9449 75.8862 80.583C73.8748 77.7913 70.9255 76.2305 67.87 74.8676C66.8763 74.4191 65.8515 74.0432 64.8035 73.7429C62.1053 72.9165 59.3253 72.3859 56.5125 72.1602C55.8603 72.1089 54.8125 72.4166 54.9884 71.094C55.8383 70.2917 55.8054 69.2622 55.8054 68.2033C55.8054 59.187 55.8457 50.1706 55.7651 41.1578C55.798 40.2859 56.4758 39.9231 57.1023 39.5604C62.488 36.4536 67.8553 33.3065 73.2996 30.3022C75.1315 29.2984 76.8314 28.1297 78.6559 27.1441C79.3374 26.7777 79.9419 26.1806 80.8212 26.3051C81.5539 26.7814 81.2315 27.5251 81.2352 28.137C81.2718 33.6326 81.2682 39.1281 81.2792 44.6054C81.88 45.2392 81.8617 46.0452 81.8654 46.8329C81.8825 51.9206 81.8825 57.0119 81.8654 62.1069C81.8544 62.8873 81.8544 63.6897 81.2865 64.3528Z" fill="#F8C100"></path><path d="M106.075 123.276C105.742 121.862 105.815 120.419 105.815 118.982C105.815 108.442 105.815 97.9051 105.793 87.3646C105.793 86.2069 105.921 85.2213 106.921 84.5179C107.533 83.3345 108.775 83.0085 109.808 82.4259C116.275 78.7622 122.595 74.8713 129.091 71.2699C129.438 71.0243 129.765 70.7511 130.069 70.4529C130.373 70.2441 130.677 70.0389 131.069 70.2074V108.929C123.229 113.492 115.387 118.049 107.544 122.602C107.066 122.852 106.576 123.077 106.075 123.276V123.276Z" fill="#49ACE7"></path><path d="M106.075 123.276C105.742 121.862 105.815 120.419 105.815 118.982C105.815 108.442 105.815 97.9051 105.793 87.3646C105.793 86.2069 105.921 85.2213 106.921 84.5179C107.533 83.3345 108.775 83.0085 109.808 82.4259C116.275 78.7622 122.595 74.8713 129.091 71.2699C129.438 71.0243 129.765 70.7511 130.069 70.4529C130.373 70.2441 130.677 70.0389 131.069 70.2074V108.929C123.229 113.492 115.387 118.049 107.544 122.602C107.066 122.852 106.576 123.077 106.075 123.276V123.276Z" fill="#F8C100"></path><path d="M55.981 40.5569C56.3657 41.1504 56.3474 41.8135 56.3474 42.4877C56.3474 51.537 56.3474 60.5864 56.3474 69.6358C56.3474 70.6726 56.2704 71.4676 54.9442 71.3577C54.4569 71.823 53.8451 71.8083 53.2369 71.8083C49.3035 71.8293 45.3874 72.33 41.5753 73.2995C40.7839 73.4973 39.9486 73.9003 39.1279 73.3251C39.1279 59.9501 39.1279 46.5739 39.1279 33.1965C39.1279 32.4637 39.2195 31.7493 39.2672 31.0239C39.9779 30.6099 40.5495 31.0642 41.099 31.3903C45.4955 33.8303 49.7893 36.4132 54.1711 38.8679C54.9332 39.2563 55.7648 39.6116 55.981 40.5569Z" fill="#D9A900"></path><path d="M68.1264 4.69646C68.0468 6.0885 68.2509 7.46217 68.4591 8.81542C68.6142 9.82577 67.9529 9.6482 67.4385 9.73392C66.9242 9.81965 66.371 9.94824 66.2976 9.07056C66.0934 6.5702 65.8118 4.07392 65.5423 1.57764C65.4913 1.10002 65.6566 0.871418 66.12 0.822431C68.7183 0.548922 71.3126 0.242755 73.915 0.00598638C74.9008 -0.0817814 74.462 0.822433 74.6171 1.27148C74.7722 1.72052 74.6171 2.00424 74.0374 2.06955C72.5658 2.23284 71.0737 2.28795 69.3878 2.68189C70.4451 3.60447 71.3411 4.41071 72.2617 5.18633C82.6795 13.9563 93.096 22.7283 103.511 31.5024C104.197 32.082 104.617 32.1739 105.348 31.4922C110.782 26.4608 116.27 21.4907 121.726 16.4839C122.22 16.0328 122.573 15.7511 123.094 16.4533C123.502 17.0105 123.961 17.3411 123.163 18.0637C117.147 23.5067 111.164 28.9918 105.213 34.5191C104.703 34.9886 104.423 35.0866 103.825 34.5783C94.1465 26.3595 84.4492 18.1678 74.7335 10.0034C72.8393 8.40584 70.9424 6.80969 69.0428 5.21491C68.7938 4.99855 68.5938 4.68422 68.1264 4.69646Z" fill="#DA0457"></path><path d="M155.901 69.4416C155.418 68.8517 155.634 68.152 155.634 67.5035C155.619 57.6921 155.619 47.8807 155.634 38.0692C155.634 35.9553 155.564 35.8453 153.74 36.8712C148.453 39.8498 143.247 42.9749 137.953 45.9389C135.491 47.3164 133.263 49.2069 130.361 49.7015C128.5 49.5916 127.189 48.2763 125.687 47.4447C122.228 45.5285 118.751 43.6271 115.428 41.4948C114.956 41.1944 114.23 41.0552 114.289 40.2455C119.271 36.9701 124.547 34.193 129.676 31.1924C132.241 29.694 134.864 28.2615 137.44 26.7594C138.297 26.2574 139.059 26.1219 139.982 26.6678C144.955 29.5987 149.944 32.5089 154.949 35.3984C155.659 35.8087 156.004 36.241 156 37.102C155.946 47.8806 155.913 58.6605 155.901 69.4416Z" fill="#73D2FE"></path><path d="M55.9812 40.557C50.5113 37.2194 45.0267 33.9 39.293 31.0314C43.0116 28.4008 47.126 26.4334 51.0168 24.0703C54.9077 21.7072 58.8242 19.6079 62.7407 17.373C63.5138 16.9297 64.2465 16.6403 65.1075 17.1569C70.3173 20.26 75.7322 22.9968 80.8285 26.3162C72.6547 31.2512 64.3564 35.959 55.9812 40.557Z" fill="#FFD748"></path><path d="M114.267 40.2454L130.354 49.6978C131.135 50.2107 131.087 50.9947 131.087 51.7971C131.087 57.9338 131.087 64.0668 131.065 70.2035L130.332 70.5919C128.559 70.438 127.269 69.2473 125.826 68.423C122.261 66.3823 118.733 64.2647 115.168 62.2203C114.655 61.9236 114.069 61.7111 113.845 61.0553C113.845 54.728 113.864 48.3971 113.908 42.0699C113.904 41.469 113.538 40.729 114.267 40.2454Z" fill="#2F97DB"></path><path d="M113.835 61.0554C119.436 64.0523 124.87 67.3387 130.321 70.5811C128.753 72.6621 126.247 73.3838 124.141 74.6112C119.843 77.1318 115.553 79.6671 111.244 82.1657C109.838 83.0047 108.372 83.7411 106.907 84.5032C105.807 84.2724 106.174 83.3821 106.174 82.7336C106.145 76.7434 106.148 70.7496 106.141 64.7558C108.053 64.8583 109.281 63.4002 110.827 62.6784C111.875 62.2168 112.842 61.6086 113.835 61.0554Z" fill="#FFD748"></path><path d="M81.2861 64.3529C81.2861 57.7728 81.28 51.1928 81.2678 44.6128C83.466 44.2867 85.0817 42.8139 86.8696 41.7221C88.2142 40.9014 89.339 40.7549 90.7275 41.5939C95.7029 44.5945 100.729 47.5181 105.749 50.471C100.044 53.8014 94.3546 57.1573 88.6282 60.4437C86.2138 61.8102 83.7298 63.0412 81.2861 64.3529Z" fill="#74D2FE"></path><path d="M43.9125 75.3438C43.7865 75.2765 43.6839 75.1725 43.6185 75.0455C43.553 74.9186 43.5278 74.7747 43.5461 74.633C43.6867 74.6458 43.8281 74.6218 43.9566 74.5633C44.0851 74.5049 44.1961 74.414 44.2788 74.2996C48.2636 73.6213 52.3079 73.3573 56.3471 73.5119C57.2704 74.1897 58.5087 72.8928 59.3623 73.9955C59.2158 74.7686 58.1167 74.4132 57.9518 75.1752C56.8527 75.2192 55.7536 75.0031 54.6545 75.1459C51.6392 75.1459 48.6203 75.047 45.6344 75.5966C45.0482 75.7101 44.429 75.8017 43.9125 75.3438Z" fill="#DC983D"></path><path d="M78.3005 122.045C77.4285 122.243 76.868 122.382 76.1426 121.792C76.9156 121.386 77.4688 121.364 78.3005 122.045Z" fill="#FAC35B"></path><path d="M76.6441 108.248C76.0286 107.42 76.0469 106.892 76.5891 106.258C77.0141 106.932 76.9189 107.471 76.6441 108.248Z" fill="#F9C560"></path><path d="M84.492 99.7002C84.6202 101.023 84.7008 102.001 83.7592 102.69C83.4808 102.891 83.1547 103.302 82.8726 102.825C82.6308 102.422 82.6564 101.506 83.0228 101.58C84.7447 101.928 83.9131 100.382 84.492 99.7002Z" fill="#F8CC77"></path><path d="M76.4977 96.5677C76.4452 96.7407 76.3509 96.898 76.2231 97.0258C76.0953 97.1537 75.9379 97.248 75.765 97.3004C75.2374 96.3589 75.3986 95.3697 75.4755 94.3218C76.4977 94.8457 75.765 96.0145 76.4977 96.5677Z" fill="#F9CC70"></path><path d="M77.597 94.3951C77.5783 94.6758 77.5039 94.95 77.3781 95.2016C77.2523 95.4532 77.0776 95.6772 76.8643 95.8606C76.7434 94.9996 76.1022 94.1569 76.8643 93.1531C77.4871 93.3473 77.0438 94.2302 77.597 94.3951Z" fill="#F9CC70"></path><path d="M78.3296 91.0979C78.2563 91.8306 78.6007 92.6403 77.9889 93.2961C77.5529 92.4718 77.0729 91.6474 78.3296 91.0979Z" fill="#F9CC70"></path><path d="M50.4854 87.4341C51.5845 87.4744 52.3685 87.3058 51.5845 85.9686L54.5154 86.3606C55.1896 86.8002 56.0432 86.214 56.7137 86.727L57.08 88.5149C54.8562 88.4013 52.6286 88.2254 50.4854 87.4341Z" fill="#F2B54A"></path><path d="M79.4032 97.6485C79.0735 96.1354 80.5207 95.029 80.2459 93.4243C80.0041 92.0101 80.0444 90.5922 79.1468 89.3465C78.7438 88.7933 78.3408 88.0789 79.0845 87.4121C81.8909 91.0648 81.9605 93.2411 79.4032 97.6485Z" fill="#D68627"></path><path d="M56.7139 86.7343C55.9811 86.5804 55.1678 86.9761 54.5156 86.3679C55.7796 86.3679 57.0436 86.3166 58.3039 86.3679C60.4472 86.4522 62.0482 85.2688 63.6712 84.144C63.3598 86.3093 61.5463 86.3936 60.0075 86.6757C58.9414 86.8515 57.813 86.7196 56.7139 86.7343Z" fill="#FBC46B"></path><path d="M59.6192 83.0046C57.6811 82.8251 56.168 81.29 54.1419 81.323C53.6327 81.323 53.4092 80.7771 53.4312 80.2239C53.4312 79.4362 53.9404 79.3666 54.5303 79.3739C55.6384 79.6233 56.7319 79.934 57.8056 80.3045C58.956 80.7661 59.9489 81.4768 59.6192 83.0046Z" fill="#EEAE48"></path><path d="M0.172611 124.402C-0.683021 118.599 1.62777 114.24 7.43093 110.823C11.3133 108.535 15.5623 107.293 19.986 106.661C25.6871 105.818 31.4996 106.128 37.0783 107.575C37.8583 107.779 38.1347 107.624 38.2803 106.909C38.385 106.39 38.4869 105.864 38.8623 105.453C39.6597 105.453 39.5259 106.155 39.6685 106.617C40.1661 108.195 40.8064 108.655 42.4129 108.332C42.9658 108.221 43.3471 108.442 43.7546 108.693C49.6538 112.307 56.0943 113.853 62.9626 113.826C65.675 113.826 68.3758 113.783 71.0504 113.244C71.6062 113.134 72.1912 112.968 72.7558 113.265C73.5853 114.286 73.53 115.302 72.7762 116.347C71.2337 117.255 69.4672 117.08 67.8141 117.173C61.8735 117.517 55.9265 116.619 50.3522 114.536C51.3796 116.091 52.3662 117.636 52.8085 119.458C53.0326 120.38 53.8126 120.73 54.6333 120.93C57.5435 121.687 60.528 122.121 63.533 122.225C66.4841 122.288 69.4342 122.214 72.3833 122.004C73.0119 122.202 73.5474 122.47 73.2564 123.285C71.5393 124.379 69.5632 124.423 67.6511 124.487C62.9946 124.641 58.3381 124.664 53.7951 123.425C53.4226 123.323 53.0297 123.224 52.727 123.596C50.8062 129.338 46.2138 132.214 40.9985 134.274C36.9735 135.863 32.7623 136.8 28.3823 136.716C23.7258 136.847 19.1042 136.64 14.5903 135.31C10.3645 134.065 6.44141 132.243 3.19641 129.199C1.79325 127.886 0.751858 126.234 0.172611 124.402V124.402Z" fill="#B6F0FF"></path><path d="M104.373 85.9863C109.804 87.3774 112.057 91.4285 113.104 96.4634C114.178 101.615 113.55 106.699 112.147 111.67C110.034 119.164 106.472 125.858 100.607 131.096C97.7524 133.651 94.5307 135.552 90.5727 135.843C89.5619 135.939 88.5424 135.82 87.5809 135.494C85.9947 134.912 84.4348 134.265 82.8633 133.646C82.684 133.145 82.4298 132.674 82.1095 132.249C79.8365 129.004 79.0478 125.354 78.9081 121.448C78.7684 117.191 79.4902 113.084 80.6136 109.021C81.7777 104.865 83.7742 101.091 86.0209 97.4354C89.0797 92.9943 92.5691 89.0392 97.6244 86.7517C99.8187 85.7709 102.013 85.2558 104.373 85.9863Z" fill="#B6F0FF"></path><path d="M38.5768 81.1261C37.4534 73.9813 39.7817 69.1618 46.295 65.6141C53.1749 61.8627 60.6137 60.8296 68.3464 61.4262C73.7712 61.8424 78.9428 63.1462 83.6488 65.9401C87.2518 68.0821 90.133 70.8527 90.8693 75.2531C91.0011 76.2117 91.0255 77.182 90.9421 78.146C90.6831 80.5295 89.4666 82.4008 87.8164 84.0568C84.5714 87.3163 80.5406 89.1324 76.2072 90.3751C71.4925 91.7255 66.6846 92.0631 61.8157 91.9146C60.7941 91.8826 59.8075 91.5887 58.7889 91.5596C54.2285 90.8378 49.8048 89.697 45.7827 87.3134C43.2973 85.8379 41.167 83.9986 39.5663 81.5598C39.1007 80.8496 38.961 80.0551 38.6932 79.2897C38.8853 79.9242 39.1996 80.5499 38.5768 81.1261Z" fill="#B6F0FF"></path><path d="M38.5363 88.8588L38.9641 88.0206C39.5229 87.3047 39.8168 87.9391 40.0147 88.2971C43.7108 94.9763 50.1048 97.3016 56.9906 98.7568C63.5533 100.145 70.087 99.7899 76.5624 98.099C76.9873 97.9855 77.4093 97.8662 77.8372 98.099C77.9689 98.2109 78.0567 98.3659 78.0849 98.5364C78.1132 98.7069 78.08 98.882 77.9914 99.0303C77.0688 100.945 76.4751 103.015 75.3401 104.851C73.5241 105.928 71.4461 106.047 69.4584 106.143C63.6377 106.434 57.852 106.292 52.2497 104.397C48.1752 103.015 44.3424 101.167 41.4524 97.8779C40.3591 96.6644 39.5342 95.2338 39.0317 93.6796C38.5292 92.1254 38.3603 90.4827 38.5363 88.8588V88.8588Z" fill="#2192F6"></path><path d="M72.6686 113.343C66.9567 114.531 61.068 114.594 55.3319 113.529C50.9286 112.729 46.8163 111.201 43.1086 108.669C42.9951 108.594 42.8437 108.492 42.7273 108.512C39.9945 108.981 39.7966 108.832 39.1855 105.931C39.1162 105.76 39.0177 105.602 38.8944 105.465C38.8944 105.043 39.1185 104.592 38.845 104.202C37.221 101.827 37.2938 99.1554 37.4742 96.4634C38.1028 96.3412 38.3298 96.8243 38.5597 97.2288C40.757 101.073 44.1737 103.451 48.1638 105.066C56.0682 108.268 64.2112 108.751 72.5289 107.069C73.1954 106.932 73.9171 106.487 74.5661 107.13C74.66 107.353 74.6903 107.598 74.6534 107.837C74.3129 109.24 74.0976 110.672 73.7483 112.071C73.5941 112.639 73.5417 113.364 72.6686 113.343Z" fill="#2192F6"></path><path d="M0.172512 124.402C1.12418 125.072 1.24642 126.271 1.9187 127.138C4.19748 130.025 7.15726 131.923 10.4605 133.398C16.2025 135.956 22.2472 136.553 28.4316 136.308C28.4695 136.407 28.484 136.553 28.4316 136.573C25.6407 137.446 27.5236 139.696 27.0696 141.256C26.9678 141.597 27.253 141.748 27.5964 141.762C28.0213 141.783 28.4695 141.748 28.7838 142.147C25.1488 142.665 21.5662 142.184 18.0011 141.535C13.0535 140.636 8.37667 138.954 4.50596 135.61C2.1777 133.596 0.204519 131.279 0.201608 127.915C0.0197113 126.904 0.0197113 125.868 0.201608 124.856L0.172512 124.402Z" fill="#2192F6"></path><path d="M58.6989 91.2249C61.2862 91.6004 63.8939 91.5887 66.4928 91.4985C72.3396 91.2948 77.974 90.0171 83.1077 87.2058C86.7602 85.2064 89.6443 82.299 90.9423 78.146C91.0151 80.0813 90.9423 82.0283 91.2945 83.9462C91.1136 84.6584 90.6599 85.271 90.0314 85.6517C86.3935 87.7355 83.5356 90.6487 81.1055 94.0188C80.8725 94.3895 80.558 94.7021 80.1858 94.9327C79.8362 95.0981 79.4777 95.2438 79.1119 95.3692C73.9053 97.3861 68.4805 97.9274 62.9509 97.7528C62.5168 97.7725 62.0844 97.6866 61.6908 97.5025C61.1087 96.9873 61.3386 96.3587 61.4492 95.7563C61.8945 93.2942 61.65 92.9449 59.2606 92.4531C58.5971 92.3134 57.7298 92.1679 58.6989 91.2249Z" fill="#2192F6"></path><path d="M28.7844 142.155C26.7006 142.088 26.7035 142.088 26.6977 139.981C26.6977 139.597 26.8461 139.091 26.657 138.852C25.1465 136.92 26.8316 136.946 27.9724 136.608C28.141 136.531 28.2994 136.433 28.4439 136.317C34.8034 136.329 41.0321 134.511 46.386 131.079C49.209 129.274 51.3714 126.841 52.3027 123.512C52.3617 123.502 52.4222 123.504 52.4806 123.517C52.5389 123.531 52.5941 123.556 52.6427 123.591C52.6914 123.625 52.7327 123.67 52.7643 123.721C52.7958 123.772 52.817 123.828 52.8265 123.887C53.0797 125.421 53.3824 126.964 52.5908 128.445C50.3935 136.122 44.1509 138.922 37.3466 140.91C34.5788 141.728 31.718 142.301 28.7844 142.155Z" fill="#2192F6"></path><path d="M72.668 113.343C73.7768 112.403 73.4072 110.98 73.803 109.804C74.0242 109.15 74.0155 108.419 74.4171 107.811C75.5318 108.57 76.7861 109.077 77.9386 109.775C78.7709 110.282 79.644 110.584 80.1882 109.312C80.3338 108.972 80.6335 108.64 81.105 108.972C79.1405 115.514 78.4566 122.103 80.5986 128.73C80.974 129.894 81.7977 130.922 82.4554 131.984C82.7843 132.511 83.3285 132.944 82.8658 133.651C80.0689 132.749 77.4613 131.562 75.7878 128.957C75.7005 128.82 75.459 128.78 75.2902 128.695C74.1639 127.039 73.3927 125.249 73.253 123.227C73.2617 123.11 73.2451 122.992 73.2043 122.883C73.1635 122.773 73.0994 122.673 73.0165 122.59C72.9337 122.507 72.8339 122.443 72.724 122.402C72.6141 122.362 72.4968 122.345 72.3799 122.354C72.7844 120.852 72.4876 119.324 72.5545 117.811C72.5778 117.287 72.5079 116.757 72.6709 116.245C72.8856 115.791 72.9967 115.296 72.9962 114.794C72.9957 114.292 72.8836 113.796 72.668 113.343V113.343Z" fill="#2192F6"></path><path d="M58.6994 91.2249C58.3851 91.807 58.4957 92.0398 59.2116 92.1126C62.1219 92.4036 62.5672 93.0701 61.8309 95.9309C61.6877 96.3859 61.6131 96.8596 61.6097 97.3366C61.3187 97.6713 60.9287 97.6771 60.5387 97.6276C54.7181 97.0456 49.1885 95.6806 44.3021 92.2727C42.3696 90.9223 40.8272 89.2081 39.3982 87.363C38.9296 86.7576 39.2003 86.0417 38.9704 85.413C38.6066 84.0015 38.2137 82.5929 38.5775 81.1145C38.6124 80.5092 38.6444 79.9038 38.6997 78.8823C39.8405 81.7927 41.8545 84.2785 44.4651 85.998C47.94 88.3728 51.7787 89.8251 55.8851 90.6341C56.8252 90.832 57.7623 91.0358 58.6994 91.2249Z" fill="#2192F6"></path><path d="M80.2359 94.7173C82.8086 90.9339 85.8208 87.587 89.9185 85.3839C90.5559 85.0405 90.649 84.2372 91.3067 83.952C91.4117 84.1215 91.5782 84.2438 91.7714 84.2932C91.9646 84.3425 92.1693 84.3152 92.3428 84.2169C96.2688 82.4561 99.8135 83.9258 103.355 85.4683C103.708 85.6225 104.042 85.8117 104.386 85.9834C99.2024 85.5527 95.2094 87.9537 91.6181 91.3355C89.6265 93.2244 87.8581 95.3356 86.3475 97.6276C84.8924 98.9023 82.3808 98.9168 80.8587 97.6596C79.9128 96.8884 79.7149 95.9541 80.2359 94.7173Z" fill="#2192F6"></path><path d="M73.2513 123.238C73.9323 125.06 74.6114 126.883 75.2885 128.707C70.5243 129.932 65.6845 130.223 60.798 129.932C58.0145 129.773 55.2596 129.284 52.591 128.477C52.4309 126.838 52.9286 125.159 52.2999 123.544C52.2504 122.831 52.5677 122.54 53.2632 122.741C59.8289 124.647 66.444 124.612 73.097 123.253C73.1476 123.241 73.1994 123.236 73.2513 123.238V123.238Z" fill="#2192F6"></path><path d="M74.4147 107.232C72.2524 107.523 70.0696 107.726 67.9306 108.145C65.6198 108.599 63.2973 108.486 61.0098 108.343C57.1275 108.108 53.2859 107.47 49.6043 106.091C45.428 104.534 41.6766 102.395 38.9613 98.716C38.4229 97.9855 38.3385 96.9698 37.4596 96.4663C37.349 94.3738 37.1685 92.2755 37.8292 90.2324C37.9863 89.7435 38.0853 89.2051 38.5393 88.8617C38.8856 89.0625 38.9235 89.3943 38.9177 89.7348C38.842 95.5787 42.3169 99.0478 46.9879 101.641C51.1169 103.891 55.6838 105.222 60.3754 105.541C65.2618 105.925 70.1075 106.018 74.8978 104.79C75.0328 104.742 75.1633 104.683 75.2878 104.612C75.736 105.934 75.5236 106.574 74.4147 107.232Z" fill="#B6F0FF"></path><path d="M38.9699 85.4247C39.7062 88.14 41.7812 89.8745 43.8301 91.4461C48.3702 94.9385 53.664 96.5653 59.3304 97.0484C60.0958 97.1125 60.8205 97.4733 61.6092 97.3395C65.413 97.4355 69.2109 97.3657 72.9594 96.7225C74.5106 96.4577 76.0123 95.9047 77.5373 95.4769C78.1369 95.3081 78.7015 94.985 79.3446 95.0112C79.4552 96.35 79.0827 97.4675 77.8895 98.2126C75.2149 98.7946 72.5433 99.3767 69.8163 99.7434C67.2223 100.071 64.6005 100.119 61.9963 99.886C58.4079 99.595 54.8369 99.0129 51.4202 97.6887C47.2526 96.0793 43.3848 94.0857 40.751 90.2936C40.3616 89.6835 40.0051 89.053 39.6829 88.4048C39.5199 88.1138 39.4122 87.7442 38.9553 88.0206C38.9611 87.1534 38.966 86.288 38.9699 85.4247Z" fill="#B6F0FF"></path><path d="M46.496 120.875C46.9383 124.199 44.4384 127.805 40.946 129.641C37.3401 131.55 33.5305 132.551 29.555 133.035C27.6761 133.232 25.7825 133.25 23.9003 133.087C19.9422 132.796 16.0424 132.092 12.5501 130.089C9.63974 128.428 6.85747 126.577 5.99602 122.968C5.86505 122.426 5.73701 121.952 6.02805 121.452C5.95529 119.065 7.21545 117.357 8.93836 115.942C11.5344 113.807 14.5959 112.312 17.8759 111.577C25.9171 109.726 33.7401 110.122 41.1352 114.158C43.347 115.366 45.1892 116.975 46.2166 119.356C46.4145 119.851 46.7404 120.311 46.496 120.875Z" fill="#6FB5E8"></path><path d="M72.6688 116.254C73.3323 117.732 72.6309 119.33 73.0325 120.794C73.2712 121.652 73.0325 122.016 72.3777 122.362C69.5402 122.741 66.6852 122.688 63.836 122.653C60.3674 122.628 56.9226 122.08 53.6178 121.026C52.9921 120.82 52.6167 120.526 52.4974 119.862C52.0841 117.613 50.8152 115.788 49.168 113.643C57.0316 116.699 64.7411 117.546 72.6688 116.254Z" fill="#2192F6"></path><path d="M46.4965 120.875C45.1432 116.702 41.84 114.566 38.0566 113.116C30.2337 110.11 22.3089 110.13 14.4831 113.116C11.1217 114.406 8.04546 116.271 6.42733 119.787C6.1469 120.295 6.00536 120.868 6.01696 121.449C5.36214 120.357 6.01698 119.382 6.39532 118.463C7.93487 114.851 11.0518 112.997 14.4802 111.638C20.6151 109.199 26.9392 108.966 33.3768 110.253C37.6433 111.108 41.4762 112.741 44.5524 115.913C45.5914 116.984 46.1415 118.32 46.674 119.662C46.8399 120.055 46.9185 120.532 46.4965 120.875Z" fill="#064DF2"></path><path d="M88.3844 129.641C86.0241 128.634 84.796 126.71 84.0393 124.368C82.5521 119.752 82.8577 115.124 84.1412 110.561C85.8029 104.65 88.5736 99.3505 93.265 95.2091C95.7533 93.0089 98.4366 91.3646 101.932 91.5014C102.989 91.5715 104.018 91.8746 104.944 92.389C106.935 93.8238 107.959 95.8319 108.527 98.1689C109.784 103.358 108.888 108.355 107.246 113.285C105.83 117.577 103.502 121.511 100.421 124.819C98.4744 126.917 96.2626 128.718 93.46 129.647C91.7516 130.223 90.0695 130.342 88.3844 129.641Z" fill="#6FB5E8"></path><path d="M77.9075 98.2096C78.6001 97.2347 78.9668 96.1142 79.3626 95.0083C79.5693 94.6678 79.9156 94.7347 80.2357 94.7173C80.1862 95.8465 80.1542 97.1183 81.3824 97.5635C82.7793 98.0699 84.2665 99.0187 85.8061 97.7935C85.9754 97.7068 86.1586 97.6507 86.3474 97.6276C84.5168 100.634 82.855 103.722 81.6472 107.04C81.4173 107.671 81.103 108.276 81.1117 108.972C80.94 109.051 80.6461 109.097 80.6199 109.211C80.1484 111.193 78.8068 110.957 77.727 110.063C76.6473 109.17 74.9448 109.379 74.4238 107.811C74.4238 107.619 74.4238 107.424 74.4238 107.229C75.0344 106.497 75.3462 105.561 75.2969 104.609C76.1603 102.477 77.0305 100.344 77.9075 98.2096Z" fill="#2192F6"></path><path d="M88.3838 129.641C93.6573 130.491 97.237 127.656 100.502 124.111C104.78 119.455 107.196 113.882 108.302 107.747C109.137 103.116 109.079 98.5152 106.492 94.3156C106.021 93.6463 105.507 93.0085 104.952 92.4065C107.487 93.6899 108.625 96.024 109.303 98.5618C110.491 103.012 109.993 107.453 108.701 111.801C107.085 117.234 104.539 122.176 100.418 126.163C98.2032 128.308 95.6159 129.897 92.5193 130.43C91.0907 130.719 89.6058 130.435 88.3838 129.641V129.641Z" fill="#4B9DD9"></path><path d="M84.8919 76.0913C85.605 77.6396 84.8687 78.9434 84.1091 80.1657C82.0719 83.4602 78.8909 85.2413 75.3781 86.4898C72.2211 87.6339 68.8904 88.2246 65.5325 88.236C62.6961 88.2481 59.8665 87.9554 57.0926 87.3629C53.1608 86.4898 49.3948 85.0347 46.6155 81.8741C45.236 80.3141 43.9147 78.696 44.4531 76.3648C44.3571 74.8922 44.913 73.6786 45.8472 72.5814C47.7767 70.3027 50.2126 68.7806 52.96 67.7154C57.631 65.8994 62.4651 65.3493 67.4679 65.7509C71.3357 66.0594 75.0172 66.915 78.4776 68.6292C81.2075 69.9825 83.6463 71.6938 84.7843 74.7205C84.9239 75.1542 85.183 75.5907 84.8919 76.0913Z" fill="#6FB5E8"></path><path d="M84.8919 76.0913C84.6008 74.1734 83.4774 72.6775 82.0805 71.4988C78.0817 68.1229 73.2943 66.7696 68.1692 66.1759C65.0117 65.8491 61.8239 65.9667 58.699 66.5251C53.6817 67.3429 49.1416 69.1764 45.7714 73.2188C45.0315 74.1139 44.5684 75.2051 44.4385 76.3591C43.9728 74.4412 44.8227 72.922 45.9752 71.5454C49.2522 67.6223 53.7311 65.9663 58.5593 65.0583C65.1716 63.8156 71.6208 64.4268 77.7674 67.2003C81.0444 68.6816 83.8791 70.7596 84.9675 74.4761C85.116 75.029 85.4012 75.5645 84.8919 76.0913Z" fill="#064DF2"></path><path d="M13.6066 126.422C14.1334 126.032 14.4593 125.788 13.8656 125.008C12.4367 123.131 13.6939 119.769 15.9727 119.018C16.5402 118.832 19.4971 120.401 19.6717 120.994C19.7969 121.416 19.5931 121.728 19.3225 122.036C18.982 122.423 18.4494 122.674 18.3213 123.43C19.8265 122.821 21.2522 122.031 22.5675 121.079C23.0884 120.715 22.7363 120.325 22.4598 119.973C21.0803 118.227 22.3259 115.415 24.0983 114.624C26.9853 113.332 29.9044 112.907 32.9515 113.925C33.6529 114.161 34.3862 114.467 35.0294 113.946C36.3711 112.863 37.25 114.004 38.2104 114.571C38.7604 114.897 38.8099 115.503 38.19 115.861C37.5701 116.219 37.4974 116.533 37.899 117.211C38.9467 118.983 38.2191 121.306 36.4264 122.377C36.3163 122.468 36.1796 122.521 36.0369 122.528C35.8942 122.535 35.7531 122.495 35.6348 122.415C34.9091 121.937 34.1592 121.497 33.388 121.096C32.6081 120.709 32.3141 120.174 32.7536 119.132C32.0056 119.531 31.4876 119.845 30.9404 120.084C29.8258 120.57 29.3601 121.143 30.4253 122.185C31.0598 122.805 30.6989 123.657 30.7571 124.408C30.4463 125.28 29.8244 126.005 29.0109 126.446C25.9754 128.235 22.7334 128.59 19.3603 127.781C18.2951 127.525 17.3435 127.388 16.2696 127.831C15.1956 128.273 14.0635 127.586 13.6066 126.422Z" fill="white"></path><path d="M13.6066 126.422C14.5088 127.339 15.4197 127.982 16.8312 127.295C18.3999 126.521 19.8725 127.729 21.4353 127.773C25.0092 127.872 28.292 127.333 30.7483 124.42C30.7483 125.776 29.8752 126.518 28.8333 127.095C27.3077 127.984 25.6102 128.537 23.8538 128.719C22.0974 128.901 20.3225 128.706 18.6472 128.148C17.8294 127.892 17.1921 127.918 16.4703 128.378C15.6409 128.908 13.5425 128 13.3272 127.057C13.2996 126.935 13.3118 126.808 13.3621 126.693C13.4124 126.579 13.4981 126.484 13.6066 126.422V126.422Z" fill="#064DF2"></path><path d="M95.951 118.582C95.7357 116.94 95.5378 115.296 95.2933 113.658C95.2089 113.113 94.7869 113.256 94.3824 113.294C90.2701 113.687 89.0158 110.733 89.3476 107.336C89.6386 104.461 90.8522 101.973 92.7322 99.7987C93.0232 99.4728 93.2415 99.2167 93.1484 98.6666C92.8952 97.1823 93.5646 96.1375 94.9121 95.4973C95.5611 95.1888 96.2304 95.3052 96.3876 95.8756C96.6204 96.7283 97.1006 96.7283 97.7671 96.7487C98.7922 96.7547 99.7854 97.1052 100.587 97.7439C101.389 98.3826 101.953 99.2724 102.188 100.27C102.253 100.45 102.277 100.642 102.258 100.832C102.034 101.749 98.7653 103.617 97.8195 103.352C97.3567 104.225 97.9708 105.017 97.997 105.846C98.0145 106.385 98.4976 106.341 98.8875 106.321C102.473 106.123 103.992 107.584 104.08 111.169C104.167 114.662 102.971 117.706 100.858 120.41C100.433 120.954 100.165 121.478 100.296 122.124C100.587 123.628 99.5744 124.295 98.55 124.941C97.8224 125.401 97.0948 125.372 96.8212 124.435C96.6466 123.87 96.3759 123.788 95.8725 123.852C95.243 123.94 94.6026 123.901 93.988 123.74C93.3735 123.579 92.7969 123.297 92.2916 122.912C91.7863 122.527 91.3621 122.045 91.0437 121.495C90.7252 120.946 90.5187 120.338 90.436 119.708C90.3851 119.52 90.3878 119.321 90.4438 119.135C90.4999 118.948 90.6071 118.781 90.7532 118.652C91.6263 117.953 92.4558 117.22 93.3725 116.615C94.039 116.175 94.6734 116.408 95.011 117.156C95.2264 117.627 95.3632 118.14 95.532 118.631L95.951 118.582Z" fill="white"></path><path d="M57.916 75.2182C58.99 75.1047 60.3171 75.0086 60.7856 76.8101C60.8875 77.203 61.4288 77.5173 61.8246 77.788C62.4241 78.1954 62.7152 78.079 62.7937 77.2583C63.044 74.5866 63.0848 74.5837 60.4189 73.9056C59.7539 73.7791 59.1108 73.5565 58.5097 73.245C57.7734 72.8084 57.0168 72.27 57.0895 71.3853C57.1826 70.2706 57.2612 69.057 58.5447 68.443C59.735 67.8609 60.9195 67.3749 62.2611 67.3632C62.6308 67.3632 63.0353 67.4534 63.2972 67.0285C63.9084 66.0361 65.2209 66.266 65.5818 66.6327C66.5568 67.6164 67.7646 67.2497 68.8123 67.6222C69.9764 68.0355 71.0561 68.4953 71.9205 69.3917C72.1012 69.5545 72.2336 69.7639 72.3029 69.9971C72.3722 70.2302 72.3758 70.4779 72.3134 70.713C72.1533 71.2951 71.612 71.1816 71.2191 71.135C69.8192 70.9604 68.1807 71.7811 67.101 70.1746C67.0626 70.1268 67.0145 70.0877 66.9599 70.0597C66.9054 70.0317 66.8455 70.0156 66.7843 70.0123C66.7231 70.009 66.6618 70.0186 66.6046 70.0406C66.5473 70.0625 66.4953 70.0963 66.452 70.1397C66.3347 70.2891 66.2775 70.477 66.2919 70.6664C66.3094 71.1117 66.583 71.3387 67.0166 71.4318C68.3815 71.7229 69.7785 71.9208 71.091 72.3544C73.2127 73.05 74.6766 74.4586 74.9501 76.781C75.2237 79.1034 73.9752 80.8554 71.3355 81.909C70.7131 82.1716 70.0642 82.3668 69.4002 82.491C68.1487 82.7064 67.0195 82.9305 67.3891 84.6563C67.5055 85.2005 67.0981 85.4159 66.5859 85.4101C65.9073 85.3736 65.2272 85.3736 64.5486 85.4101C63.1866 85.5352 62.104 85.4275 62.4445 83.5882C62.5667 82.9363 62.0836 82.8199 61.5714 82.7151C60.0115 82.3979 58.4836 82.0312 57.0459 81.26C54.8602 80.0958 54.3887 77.8927 54.9272 75.6751C55.029 75.2473 55.3579 75.2007 55.71 75.1978L57.916 75.2182Z" fill="white"></path><path d="M22.5879 125.11C23.5425 124.464 24.4156 123.655 25.8271 123.305C25.0762 124.921 23.7375 124.851 22.5879 125.11Z" fill="#6FB5E8"></path><path d="M66.708 76.5744C67.1416 76.0913 66.2714 75.0815 67.4036 75.1193C68.2155 75.1484 69.1236 75.6373 69.0828 76.5744C69.045 77.4475 68.1777 78.0471 67.3686 78.0296C66.3588 78.0063 67.1678 76.9964 66.708 76.5744Z" fill="#6FB5E8"></path></svg>