<svg xmlns="http://www.w3.org/2000/svg" width="147" height="147" viewBox="0 0 147 147" fill="none"><path opacity="0.05" d="M10.0803 133.56C9.74428 130.536 13.5803 123.34 15.5403 120.12L39.0603 118.86L63.8403 111.3L106.26 120.12C111.196 121.013 112.538 124.021 112.56 133.56C108.78 134.96 100.548 137.928 97.8603 138.6C95.1723 139.272 88.6203 138.32 85.6803 137.76C84.0003 138.6 79.7163 139.944 76.0203 138.6C72.3243 137.256 60.4803 132.16 55.0203 129.78L23.9403 143.64C19.4603 141.54 10.4163 136.584 10.0803 133.56Z" fill="black"></path><path d="M89.2713 131.428C89.0452 131.333 88.825 131.232 88.5958 131.145C86.5843 130.387 86.1558 130.523 85.0666 132.336C84.3287 133.556 83.5996 134.785 82.9122 136.034C82.5105 136.758 82.1237 137.052 81.2964 136.537C79.511 135.421 77.6571 134.392 75.833 133.327C76.455 131.574 77.5887 130.098 78.4636 128.479C78.9486 127.586 79.2432 126.783 78.3177 126.009C76.7495 124.144 76.0175 121.879 75.3688 119.597C75.0713 118.513 74.6725 118.439 73.7143 118.954C72.3871 119.665 71.2326 120.805 69.59 120.835C69.4549 120.784 69.3359 120.697 69.2454 120.585C69.1549 120.472 69.0961 120.338 69.0752 120.195C69.6406 118.924 69.4412 117.573 69.4799 116.249C69.5335 114.422 69.3519 112.592 69.593 110.774C70.3131 109.363 71.8486 109.015 73.0031 108.167C73.6221 107.715 74.4345 107.527 74.8451 106.798C75.6699 102.393 76.9412 98.0842 78.6391 93.9371C78.9516 93.1902 78.654 92.7647 78.044 92.3481C77.1959 91.7768 76.1484 91.4971 75.4997 90.6371C76.9578 87.7804 78.7135 85.0904 80.2817 82.3051C80.7846 81.4124 81.4154 80.5554 81.472 79.4633C82.6266 79.0556 83.2782 80.0316 84.0936 80.475C85.7957 81.3945 85.8046 81.46 86.9503 79.8799C89.2326 76.7286 92.131 74.1695 94.9311 71.5122C95.2912 71.17 95.6959 70.8843 95.9101 70.4171C96.0946 68.5633 95.9548 66.7124 95.9518 64.8615C96.0172 64.4092 96.3773 64.2157 96.7285 64.0491C98.7174 63.0822 100.639 61.9827 102.48 60.758C103.912 59.8385 103.945 59.8891 103.254 58.6095C103.751 58.7018 104.296 58.5173 104.742 58.8714C105.563 59.3594 105.772 60.1212 105.76 61.0169C105.748 61.9125 105.76 62.8023 105.76 63.695C105.76 64.6442 106.153 64.9269 107.057 64.6442C109.284 63.954 111.625 63.7123 113.946 63.9331C115.22 64.4002 115.946 63.8378 116.52 62.71C117.317 61.0698 118.256 59.5025 119.326 58.0263C121.171 59.0678 123.01 60.1242 124.87 61.1448C125.602 61.5465 125.688 61.9869 125.251 62.6952C124.474 63.9539 123.763 65.2602 123.037 66.5487C122.001 68.3669 122.108 68.84 123.828 70.0571C124.028 70.1969 124.224 70.3546 124.423 70.4885C125.227 72.2383 126.051 73.988 126.459 75.8835C126.67 76.8595 127.167 76.9458 127.947 76.4935C129.062 75.8508 130.143 75.1515 131.22 74.4314C131.88 74.6069 131.815 75.1515 131.815 75.6216C131.815 78.3474 131.8 81.0702 131.833 83.7929C131.833 84.5785 131.631 85.1826 130.872 85.4445C127.331 86.6675 125.929 89.2682 125.486 92.8689C125.129 95.7493 123.956 98.4959 122.808 101.174C122.418 102.067 122.486 102.579 123.343 103.12C125.893 104.73 125.881 104.766 124.385 107.381C123.058 109.702 121.68 111.994 120.388 114.333C119.894 115.225 119.451 115.371 118.537 114.838C116.002 113.351 115.981 113.401 114.175 115.716C111.96 118.576 109.438 121.184 106.655 123.495C105.763 124.221 105.185 124.983 105.435 126.134C106.188 129.634 104.602 131.669 101.442 132.898C99.7964 133.538 98.4335 134.779 96.7463 135.374C96.1512 135.038 96.0619 134.463 96.0411 133.856C96.0202 133.249 96.041 132.58 96.0232 131.943C95.9756 130.586 95.8446 130.455 94.5353 130.753C92.7856 131.178 91.0746 131.63 89.2713 131.428Z" fill="#B6F0FF"></path><path d="M22.636 136.555C20.553 135.389 18.5117 134.201 16.4287 133.065C15.6639 132.648 15.4407 132.035 15.4467 131.229C15.4467 129.494 15.4467 127.759 15.4288 126.024C15.3514 100.147 15.2651 74.2707 15.1699 48.3939C15.1699 46.0133 16.1251 44.463 18.1099 43.3352C21.9783 41.1302 25.8319 38.8716 29.6854 36.6399C30.0276 36.4435 30.3431 36.2024 30.6704 35.9822C30.8384 35.8736 31.0342 35.8158 31.2343 35.8158C31.4344 35.8158 31.6302 35.8736 31.7982 35.9822C33.5836 37.0654 35.4791 37.9343 37.2021 39.1067C37.696 39.443 38.1722 39.8744 37.6812 40.5797C35.3244 42.3175 32.6909 43.6 30.1824 45.0819C28.6052 46.0133 27.0311 46.9507 25.4212 47.8404C23.6358 48.8432 22.7639 50.3162 22.7669 52.4438C22.7967 79.4236 22.7967 106.403 22.7669 133.383C22.7729 134.431 23.3293 135.529 22.636 136.555Z" fill="#4C5C75"></path><path d="M22.6363 136.555C22.2613 134.547 22.3625 132.517 22.3595 130.494C22.3457 104.506 22.3209 78.5121 22.2852 52.5123C22.2852 50.0633 23.2493 48.4921 25.2609 47.3465C29.4269 44.9808 33.575 42.5853 37.7321 40.2048C38.5295 41.7968 38.6039 43.3501 37.4821 44.838C34.4707 46.7484 31.3164 48.4088 28.2574 50.218C27.0969 50.8995 26.6118 51.7059 26.6118 53.0777C26.6475 74.9253 26.5761 96.77 26.6952 118.615C26.716 122.218 26.9035 125.834 26.9362 129.446C26.9362 130.91 27.0076 130.934 28.3169 130.184C37.4791 124.947 46.5878 119.626 55.7529 114.413C57.1069 113.639 58.315 112.523 59.9606 112.33C60.7283 113.327 60.6063 114.657 61.2223 115.713C49.3314 122.583 37.4385 129.45 25.5436 136.314C24.636 136.826 23.7046 137.683 22.6363 136.555Z" fill="#1D2843"></path><path d="M37.238 44.6535C38.1099 44.0584 37.7618 43.1657 37.7915 42.395C37.8213 41.6659 37.7647 40.9339 37.7439 40.2049C37.7856 39.6722 37.3154 39.571 37 39.3984C34.8962 38.2498 32.9739 36.759 30.6707 35.9794C30.9238 35.5433 31.0282 35.0368 30.9682 34.5361C31.5991 34.1761 32.1139 34.5629 32.6316 34.8159C34.4557 35.7086 36.1757 36.8007 37.9076 37.857C39.0651 38.5623 40.0292 38.589 41.2047 37.8898C49.6319 32.8816 58.1662 28.0372 66.6589 23.1511C66.9564 22.9844 67.2302 22.7256 67.6051 22.9636C68.2806 24.2045 67.8313 25.5435 67.9622 26.832C67.9384 29.4507 68.0664 32.0633 66.5785 34.4588C65.5043 36.1906 64.198 37.6398 62.4602 38.6486C56.5891 42.0528 50.6347 45.3171 44.8559 48.8701C41.8801 50.6942 37.3243 48.3821 37.238 44.6535Z" fill="#E8E6FB"></path><path d="M67.2507 22.913C66.2033 24.3443 64.4714 24.7222 63.058 25.5733C58.5021 28.3228 53.8719 30.9474 49.2685 33.6077C46.4148 35.2622 43.5343 36.881 40.7104 38.586C39.5826 39.2675 38.7464 38.7318 37.8329 38.2289C35.5475 36.9791 33.4735 35.3425 30.959 34.5182C34.8482 31.7984 39.0946 29.6708 43.1594 27.2397C47.3968 24.7043 51.7235 22.3178 55.9222 19.726C57.4428 18.7886 58.8979 18.259 60.6298 18.7351C62.9598 19.6278 64.9297 21.1573 67.0692 22.3892C67.1566 22.4409 67.2228 22.5219 67.2561 22.6178C67.2893 22.7137 67.2874 22.8183 67.2507 22.913V22.913Z" fill="#F2F0FB"></path><path d="M83.6561 13.9858C84.6649 14.2834 84.7809 15.0988 84.7839 15.9885C84.8077 30.6211 84.8355 45.2536 84.8673 59.8861C85.0517 62.0078 84.9149 64.1355 84.9446 66.2601C84.9446 67.1528 82.5641 69.7238 81.7071 69.9024C81.1536 70.0155 81.0048 69.6792 80.9096 69.2715C80.811 68.6818 80.7801 68.0828 80.8173 67.4861C80.8173 56.4462 80.8173 45.4083 80.8173 34.3724C80.8173 33.6315 80.8917 32.8846 80.6923 32.1585C80.359 28.7156 80.6239 25.2608 80.5287 21.809C80.5138 21.2882 80.6864 20.7348 80.2995 20.1426C76.9965 22.1244 73.625 23.9634 70.322 25.9184C69.5721 26.3618 68.8609 26.9629 67.8938 26.8766C67.4891 25.5792 67.7718 24.2491 67.7212 22.9338C67.6974 22.3178 68.3164 22.0411 68.7657 21.7852C73.1787 19.2618 77.6273 16.7949 81.9719 14.1555C82.215 13.9862 82.4973 13.8818 82.792 13.8521C83.0867 13.8225 83.3842 13.8685 83.6561 13.9858V13.9858Z" fill="#1D2943"></path><path d="M81.0042 31.9146C81.3316 32.468 81.1649 33.0751 81.1649 33.6553C81.1649 45.6326 81.1649 57.6098 81.3346 69.6614C82.9087 68.0813 85.3428 67.1767 84.831 64.1712C84.5959 62.7845 84.831 61.3175 84.8667 59.8862C85.2536 61.9246 84.828 64.0046 85.1345 66.0727C85.8576 66.1025 86.1135 65.4359 86.6224 65.18C87.0836 64.805 87.4645 65.1383 87.8127 65.3496C90.3569 66.8375 92.8863 68.3521 95.4424 69.8132C95.8143 70.0274 96.2458 70.2506 96.103 70.8219C94.3771 72.4943 92.675 74.1904 90.9193 75.833C89.3011 77.3409 87.8659 79.0338 86.6432 80.8768C86.0808 81.7309 85.6315 81.6743 84.8578 81.2786C83.727 80.7043 82.7748 79.8145 81.522 79.4604C79.6711 78.9694 78.1297 77.8982 76.6121 76.7972C76.1925 76.4996 76.1449 75.9669 76.2967 75.4581C76.9811 73.875 78.2011 72.6788 79.314 71.429C80.2068 70.4202 80.5043 69.346 80.4865 68.0397C80.4627 56.7895 80.4627 45.5383 80.4865 34.2862C80.4924 33.4768 80.2663 32.5811 81.0042 31.9146Z" fill="#2192F6"></path><path d="M83.6559 13.9858C82.0371 14.1346 80.942 15.3368 79.6119 16.0539C76.041 17.9732 72.5833 20.0562 69.057 22.044C68.209 22.5231 67.6823 23.0647 67.8072 24.127C67.8696 25.0183 67.8825 25.9124 67.8459 26.8051C67.8668 26.9331 67.8816 27.064 67.7358 27.1265C67.6882 27.1473 67.6257 27.073 67.5781 26.9807C67.3014 25.6416 67.8965 24.2341 67.2567 22.9278C65.4148 21.8327 63.5698 20.7436 61.7368 19.6366C61.3351 19.3956 60.7995 19.3034 60.6328 18.7439C65.3315 16.0658 70.0539 13.4144 74.7168 10.6679C75.9785 9.92394 76.9873 9.87038 78.2222 10.6946C79.9779 11.882 81.8318 12.8967 83.6559 13.9858Z" fill="#4C5C75"></path><path d="M61.2193 115.704C59.6927 114.996 60.3593 113.544 60.1004 112.404C59.9471 112.245 59.8306 112.054 59.7591 111.845C59.6876 111.635 59.6629 111.413 59.6868 111.193C59.7522 109.11 59.3892 107.003 59.9278 104.944C60.3593 104.406 60.8354 104.706 61.249 104.944C63.9837 106.432 66.5904 108.131 69.3281 109.604C69.4839 109.681 69.6192 109.794 69.7227 109.934C69.8262 110.074 69.8949 110.236 69.9232 110.408C69.9232 113.278 69.9232 116.15 69.9232 119.022C69.9232 119.617 70.0214 120.287 69.0751 120.213C66.5249 118.582 64.0372 116.853 61.2193 115.704Z" fill="#6FB5E8"></path><path d="M103.257 58.5916C103.449 58.725 103.648 58.8482 103.852 58.9606C104.215 59.1392 104.596 59.3445 104.602 59.779C104.608 60.2134 104.15 60.2491 103.852 60.4068C101.237 61.7459 98.9693 63.7188 96.1156 64.5877C95.333 64.7722 94.8242 64.183 94.232 63.8854C92.0181 62.7725 89.9975 61.3115 87.7777 60.2045C87.3789 60.0051 87.001 59.7462 86.9355 59.2404C88.7031 57.6245 91.0122 56.8598 92.9018 55.4612C94.6872 54.1281 96.2703 54.1132 98.0825 55.4374C99.7043 56.6128 101.517 57.5472 103.257 58.5916Z" fill="#6FB5E8"></path><path d="M119.326 58.0263C118.606 60.2849 117.148 62.1447 115.969 64.1503C115.571 64.8288 114.856 64.6026 114.255 64.2723C111.684 62.7071 109.096 61.1657 106.471 59.6927C106.153 59.5142 105.656 59.5261 105.65 58.9815C106.245 58.9131 106.417 58.425 106.661 57.9995C107.126 57.1872 107.575 56.3629 108.063 55.5654C109.848 52.6373 109.881 52.5897 112.824 54.2353C115.011 55.4523 117.288 56.5384 119.326 58.0263Z" fill="#0378E0"></path><path d="M78.5584 125.846C79.3589 126.304 79.7249 126.932 79.1982 127.801C78.0794 129.64 77.3116 131.696 75.8357 133.318C72.9373 131.657 70.0449 129.979 67.1317 128.345C66.4146 127.941 66.4771 127.554 66.8342 126.932C67.8995 125.105 68.9172 123.242 69.9319 121.394C71.753 121.668 73.0772 122.95 74.6454 123.742C75.9755 124.405 77.1599 125.334 78.5584 125.846Z" fill="#0378E0"></path><path d="M86.9298 59.2167L96.1158 64.573C96.5948 66.6284 96.5948 68.7665 96.1158 70.8219C94.1548 69.224 91.8278 68.2331 89.7091 66.894C88.7152 66.2661 87.6528 65.7454 86.6232 65.177C86.6232 63.6505 86.6233 62.1239 86.6619 60.5974C86.6709 60.1391 86.4536 59.6065 86.9298 59.2167Z" fill="#0378E0"></path><path d="M105.638 58.9844C108.572 60.145 111.033 62.1625 113.86 63.5194C113.988 63.5974 114.091 63.7093 114.159 63.8428C114.227 63.9763 114.256 64.1261 114.244 64.2753C111.566 64.1562 108.914 64.3318 106.373 65.2632C105.525 65.5608 105.305 65.2632 105.319 64.4865C105.337 63.3468 105.278 62.2071 105.337 61.0734C105.414 60.2858 105.202 59.4972 104.742 58.8535L105.638 58.9844Z" fill="#2192F6"></path><path d="M78.5587 125.846C78.1154 126.372 77.7345 125.893 77.4101 125.712C74.9135 124.292 72.4288 122.837 69.9292 121.409L69.5989 120.814C71.1284 119.951 72.6758 119.124 74.1755 118.216C75.0682 117.68 75.3658 118.02 75.5771 118.874C76.1782 121.37 77.053 123.748 78.5587 125.846Z" fill="#2192F6"></path><path d="M131.208 74.4344C130.273 76.0056 128.529 76.44 127.104 77.2881C127.036 77.323 126.962 77.3413 126.885 77.3414C126.809 77.3416 126.734 77.3236 126.667 77.289C126.599 77.2544 126.54 77.2041 126.496 77.1424C126.451 77.0807 126.422 77.0092 126.411 76.934C126.036 74.6933 124.652 72.768 124.414 70.4916L131.208 74.4344Z" fill="#2192F6"></path><path d="M89.2715 131.428C91.3188 130.803 93.491 130.779 95.5205 130.083C96.2823 129.824 96.3626 130.425 96.4132 131.029C96.5084 132.481 96.1156 133.969 96.7108 135.389C95.6693 135.508 95.0324 134.692 94.2409 134.276C92.5447 133.386 90.929 132.383 89.2715 131.428Z" fill="#2192F6"></path><path d="M81.1506 108.845C81.3679 100.18 84.5638 92.5713 89.5035 85.6082C92.9582 80.7339 97.1391 76.6275 102.597 74.0029C106.319 72.2175 110.223 71.3426 114.202 73.1756C118.368 75.1069 119.99 78.8563 120.501 83.1115C121.272 89.5242 119.752 95.5024 117.1 101.368C115.124 105.853 112.449 109.997 109.176 113.645C105.575 117.609 101.439 120.885 96.2166 122.516C89.0005 124.768 82.9271 121.046 81.5613 113.589C81.2919 112.022 81.1545 110.435 81.1506 108.845V108.845Z" fill="#6FB5E8"></path><path d="M75.5509 90.3131C76.5504 90.9038 77.5205 91.5684 78.5614 92.0852C79.3866 92.4899 79.4013 92.9063 79.0701 93.695C77.2495 97.8973 75.9677 102.312 75.2551 106.836C74.7317 107.175 74.3176 106.836 73.9036 106.599C71.4165 105.217 68.9086 103.87 66.525 102.311C65.8596 101.874 65.4219 101.351 65.4189 100.539C65.5491 97.0975 66.8207 93.9401 67.8617 90.7266C68.4532 89.6042 68.6839 88.3164 69.4528 87.2738C69.5824 87.1247 69.758 87.0232 69.952 86.9852C70.1459 86.9472 70.347 86.9749 70.5233 87.0641C72.2978 88.0122 74.1461 88.8097 75.5509 90.3131Z" fill="#2192F6"></path><path d="M75.5833 90.4616C74.0598 89.5689 72.5332 88.7 71.0156 87.8073C70.602 87.5633 70.2419 87.1645 69.6914 87.4591C68.6618 86.98 67.7453 86.2986 66.7157 85.8046C65.8052 85.3642 65.7337 84.7125 66.2366 83.8585C67.9596 80.9215 69.6557 77.9696 71.3697 75.0266C72.1404 73.7024 72.56 73.6399 73.8842 74.4314C74.7352 74.9314 75.6131 75.3867 76.4284 75.9401C76.6635 76.8924 77.5592 77.1304 78.2555 77.5024C79.3887 78.0821 80.484 78.7331 81.5347 79.4515C81.7579 79.8532 81.9216 80.243 81.6478 80.7042C79.8178 83.799 77.9996 86.9026 76.1606 89.9944C76.0386 90.1997 75.7738 90.3068 75.5833 90.4616Z" fill="#6FB5E8"></path><path d="M65.7398 100.811C65.7725 101.251 65.7695 101.704 66.2219 101.975C69.1976 103.76 72.1405 105.608 75.2799 107.108C73.6016 108.372 71.7477 109.348 69.9236 110.381L60.4014 104.727C60.443 103.939 61.1572 103.796 61.6452 103.442C62.8653 102.549 64.4216 102.177 65.353 100.879C65.407 100.837 65.4704 100.809 65.5379 100.797C65.6053 100.785 65.6746 100.79 65.7398 100.811V100.811Z" fill="#0378E0"></path><path d="M65.4984 100.933C65.6144 101.799 64.8497 101.945 64.3527 102.26C63.0375 103.09 61.6062 103.727 60.3921 104.721C59.8743 106.137 60.2641 107.599 60.1748 109.039C60.1064 110.158 60.1242 111.282 60.1004 112.404L26.6684 131.624C26.2369 131.258 26.4095 130.836 26.4095 130.476C26.3262 104.401 26.2409 78.3235 26.1536 52.2444C26.1536 51.2654 26.4511 50.7566 27.2932 50.2775C30.629 48.4445 33.9261 46.534 37.2381 44.6534C37.8898 44.7308 37.741 45.2485 37.8332 45.6681C38.0152 46.5883 38.5368 47.4062 39.2943 47.9594C41.3267 49.5663 43.1627 49.4294 45.3439 48.0993C50.7835 44.7992 56.3748 41.7551 61.871 38.5562C65.4894 36.4494 67.632 33.3993 67.5635 29.0518C67.5635 28.3584 67.5784 27.6681 67.5873 26.9688L67.8551 26.7932L81.0048 19.342V31.9233C80.9869 38.9539 80.9721 45.9835 80.9602 53.0122C80.9602 58.1631 80.9601 63.3111 81.0256 68.462C81.0405 69.6732 80.7697 70.6075 79.8948 71.5003C78.5713 72.8373 77.4097 74.3254 76.4341 75.934C75.22 76.0828 74.4731 75.1395 73.5685 74.6307C72.6639 74.1218 72.2324 74.2022 71.7206 75.1217C70.0344 78.1371 68.2955 81.1237 66.5042 84.0815C66.0191 84.882 66.3048 85.1409 66.9743 85.5396C67.9236 86.105 69.0901 86.3966 69.6882 87.4649L68.233 90.7918C67.7004 91.3741 67.0675 91.8559 66.3643 92.2142C60.6867 95.4309 55.0388 98.7071 49.4028 101.989C48.5826 102.453 47.8709 103.087 47.3156 103.848C46.7603 104.609 46.3742 105.48 46.1831 106.402C45.9718 107.274 45.939 108.078 46.7038 108.706C47.4686 109.333 48.2274 109.003 48.9088 108.584C52.3457 106.521 55.8868 104.644 59.3089 102.555C60.8711 101.6 62.4751 100.722 64.07 99.829C64.4837 99.5969 64.9836 99.1118 65.4061 99.4362C65.8287 99.7605 65.6412 100.409 65.4984 100.933Z" fill="#FEFEFE"></path><path d="M104.448 80.0466C108.816 78.4278 112.807 80.6418 114.247 84.9803C115.437 88.5512 115.098 92.2232 114.101 95.7792C112.543 101.486 109.434 106.649 105.12 110.696C102.505 113.157 99.5171 115.014 95.8778 115.675C91.8933 116.398 87.7333 113.378 87.4863 109.476C89.9234 108.286 92.3189 107.054 94.4078 105.251C99.2106 101.103 102.207 95.8506 103.993 89.8545C104.948 86.6527 104.969 83.3467 104.448 80.0466Z" fill="#0378E0"></path><path d="M104.447 80.0465C105.518 81.0761 105.271 82.561 105.233 83.6888C104.935 91.9672 101.516 98.9452 95.6597 104.673C93.3892 106.893 90.848 108.953 87.5003 109.494C86.3576 106.634 86.8546 103.745 87.5271 100.924C89.378 93.1872 93.3624 86.7478 99.9328 82.1176C101.248 81.1743 102.679 80.1864 104.447 80.0465Z" fill="#FEFEFE"></path><path d="M65.4982 100.933C65.4684 100.496 65.4387 100.061 65.397 99.4452C60.255 102.421 55.229 105.34 50.1971 108.25C49.602 108.595 48.989 108.926 48.373 109.241C47.7064 109.58 47.0458 109.643 46.4626 109.06C45.8794 108.476 45.4151 107.869 45.6205 106.977C46.1382 104.679 47.1083 102.811 49.3341 101.579C55.5415 98.1091 61.6595 94.4846 67.8133 90.9257C67.9478 90.862 68.0883 90.8122 68.2329 90.7769C67.4354 93.5771 66.3731 96.3028 65.9118 99.1922C65.8285 99.7279 65.7958 100.269 65.7392 100.808L65.4982 100.933Z" fill="#E8E6FB"></path><path d="M77.3687 45.207C77.1574 47.4775 75.3958 49.254 73.0241 50.4949C68.1678 53.0332 63.5227 55.9404 58.7645 58.6483C55.4913 60.5052 52.2924 62.4423 49.028 64.3022C48.2752 64.7307 47.4271 65.1532 46.5403 64.4748C45.6536 63.7963 45.6923 62.9333 45.7666 61.9633C45.9601 59.5232 47.4331 58.0085 49.3851 56.8778C56.7768 52.6047 64.1893 48.3702 71.5869 44.115C72.4439 43.624 73.2443 43.0348 74.1162 42.5795C76.2468 41.4517 77.3955 42.1837 77.3687 45.207Z" fill="#E8E6FB"></path><path d="M77.3681 67.4949C77.2683 68.3853 76.9583 69.2393 76.4637 69.9863C75.9691 70.7334 75.3041 71.3523 74.5233 71.7919C70.4585 74.226 66.355 76.6006 62.2485 78.9693C57.8861 81.4867 53.5029 83.9714 49.1227 86.4591C48.3282 86.9085 47.5128 87.5988 46.5665 86.837C45.6738 86.1139 45.5518 85.1974 45.7899 84.0518C46.2571 81.7932 47.5128 80.2399 49.4679 79.121C54.9491 75.9846 60.4214 72.8314 65.8848 69.6612C68.6136 68.0811 71.3244 66.4653 74.0651 64.9001C76.1421 63.7158 77.386 64.4805 77.3681 67.4949Z" fill="#E8E6FB"></path><path d="M42.2193 87.2389C41.6777 91.3037 39.8834 95.0978 35.8126 97.3831C32.5572 99.2102 29.6499 97.4992 29.8612 93.7825C30.1201 89.2594 32.1168 85.4952 36.1102 83.1384C39.5084 81.1506 42.2848 82.8944 42.2193 87.2389Z" fill="#B18AFB"></path><path d="M42.1271 64.8704C41.7402 68.965 39.7703 72.6519 35.7858 75.0176C32.5899 76.9101 29.6618 75.1515 29.8344 71.417C30.0219 66.9385 32.1049 63.3826 35.8394 60.8889C37.2052 59.9724 38.7853 59.5885 40.3387 60.4068C41.892 61.2252 42.0437 62.8112 42.1271 64.8704Z" fill="#F25170"></path><path d="M29.9717 115.457C30.1426 113.459 30.7788 111.529 31.8292 109.821C32.8797 108.113 34.3153 106.674 36.0213 105.62C37.405 104.727 38.9434 104.248 40.4997 105.17C41.9876 106.063 42.3268 107.605 42.2286 109.182C41.9578 113.672 39.9284 117.243 36.1225 119.623C32.7748 121.733 29.9776 120.055 29.9717 115.457Z" fill="#443C9A"></path><path d="M33.9733 95.559C33.2264 95.2317 32.3486 95.0026 31.9439 94.2408C31.6463 93.6694 32.0837 93.11 32.4765 92.6517C32.7086 92.378 33.0717 92.1012 33.3692 92.3155C34.5863 93.1844 34.8571 92.1756 35.2737 91.4228C36.2973 89.6373 37.318 87.8222 38.3893 86.0486C38.7166 85.5041 39.0677 84.5608 39.8771 85.0607C40.5556 85.4654 40.0705 86.2212 39.7551 86.7747C38.3168 89.3021 36.8687 91.8205 35.4106 94.33C35.0832 94.8924 34.7262 95.4221 33.9733 95.559Z" fill="#FAF9F8"></path><path d="M33.2243 69.9292C34.9085 71.0897 35.0097 69.3043 35.5542 68.4413C36.5838 66.8166 37.4855 65.1115 38.4675 63.457C38.765 62.963 39.137 62.2667 39.8155 62.6536C40.4939 63.0404 40.0803 63.7099 39.7976 64.2069C38.2324 66.9505 36.6791 69.703 35.0365 72.408C34.3967 73.4673 33.5903 73.3929 32.2869 72.3484C31.3942 71.6402 31.8644 70.9647 32.3345 70.3011C32.4354 70.1646 32.5714 70.0579 32.7281 69.9924C32.8847 69.9269 33.0562 69.9051 33.2243 69.9292V69.9292Z" fill="#F9F7F8"></path><path d="M34.0029 117.951C33.2917 117.609 32.4169 117.356 32.0092 116.588C31.7116 115.993 32.1193 115.449 32.5389 115.008C32.8156 114.711 33.1846 114.434 33.5774 114.737C34.5088 115.458 34.8064 114.797 35.1902 114.107C36.2972 112.131 37.4399 110.17 38.5796 108.212C38.8771 107.694 39.2818 107.021 39.9216 107.373C40.5614 107.724 40.24 108.42 39.9395 108.938C38.3653 111.672 36.7763 114.395 35.1962 117.127C35.0908 117.36 34.9241 117.559 34.7139 117.705C34.5037 117.85 34.2579 117.935 34.0029 117.951Z" fill="#F8F8F8"></path></svg>