<svg xmlns="http://www.w3.org/2000/svg" width="132" height="136" viewBox="0 0 132 136" fill="none"><path opacity="0.3" d="M97.5652 89.7764C97.5652 98.1533 97.5652 127.491 54.5217 135.279C33.4663 135.279 16.3975 128.489 16.3975 120.112C16.3975 111.735 33.4663 104.944 54.5217 104.944C86.4968 89.7763 97.5652 81.3995 97.5652 89.7764Z" fill="#D9D9D9"></path><path d="M59.3088 24.48C60.0552 25.3488 59.616 26.3472 59.496 27.2376C58.5696 34.1088 57.576 40.9656 55.8504 47.7024C55.1736 50.3616 53.2104 51.9096 51.2904 53.5104C49.2432 55.224 47.1504 56.8968 44.964 58.4232C40.836 61.3032 38.3832 65.3184 36.9864 70.02C34.8624 77.1672 34.68 84.468 35.5632 91.824C35.6133 92.0135 35.6892 92.1952 35.7888 92.364C36.1776 92.7096 36.2376 93.1944 36.3312 93.66C36.5699 94.7514 36.9406 95.8095 37.4352 96.8112C38.556 99.192 40.6248 100.123 43.1352 99.3744C45.1992 98.7576 47.1408 97.8096 49.1688 97.0944C50.5584 96.6024 51.9336 96.072 53.3904 95.7984C53.9544 95.6904 54.4944 95.664 55.0128 95.9544C56.1528 97.3632 56.5032 99.1008 56.9328 100.783C58.1497 105.277 59.0305 109.855 59.568 114.48C59.6348 114.934 59.5967 115.396 59.4565 115.833C59.3162 116.269 59.0777 116.668 58.7592 116.998C54.6826 121.396 49.7485 124.913 44.2608 127.332C41.3808 128.59 38.7048 127.514 36.1152 126.341C34.968 125.82 33.9552 124.997 32.8848 124.31C30.5664 122.669 29.3136 120.247 28.2264 117.751C26.1936 113.098 25.1664 108.185 24.6264 103.15C24.0365 97.9911 23.8079 92.7977 23.9424 87.6072C24.3648 74.9952 26.1216 62.628 31.0464 50.8872C33.9576 43.944 37.8936 37.6224 42.6288 31.7904C43.5408 30.6672 44.7624 29.8536 45.9552 29.0616C49.4112 26.7696 53.0784 24.9408 57.2352 24.2616C57.9288 24.1488 58.6584 24 59.3088 24.48Z" fill="#01A2E2"></path><path d="M59.3087 24.48C54.9887 24.4152 51.3191 26.3664 47.6543 28.32C43.1327 30.732 40.5095 34.896 37.7903 38.964C32.9111 46.2624 29.5919 54.2568 27.4703 62.748C26.2184 67.7934 25.3638 72.9291 24.9143 78.108C24.4343 83.4336 24.0815 88.7592 24.2855 94.092C24.5567 101.167 25.1039 108.23 27.4487 114.989C28.5911 118.277 30.0887 121.414 32.6255 123.912C32.7218 124.034 32.8025 124.168 32.8655 124.31C29.5511 122.41 25.9895 120.871 22.9919 118.49C19.3919 115.63 17.6399 111.53 16.3319 107.225C14.4863 101.177 13.9319 94.932 13.7111 88.6656C13.4699 81.837 13.7845 75 14.6519 68.2224C16.4807 53.8224 21.2423 40.6032 29.8799 28.8C33.9983 23.172 39.6023 20.2392 46.0847 18.5328C46.9823 18.2928 47.9015 18.4632 48.8063 18.6912C51.9599 19.4808 55.0295 20.46 57.6599 22.4712C58.3775 23.016 59.0399 23.5968 59.3087 24.48Z" fill="#36BFFE"></path><path d="M111.106 27.1199C112.251 32.1599 112.858 37.2431 112.436 42.4271C111.608 52.5359 108.704 62.0639 104.276 71.1263C97.4812 85.0031 88.3468 96.9719 75.4108 105.744C73.3603 107.131 71.2004 108.348 68.9524 109.385C68.6212 109.538 68.2732 109.903 67.8916 109.445C67.3444 106.176 66.7588 102.914 66.0028 99.6863C65.7628 98.7263 66.0724 98.1623 66.9916 97.8479C72.9124 95.8175 77.7916 92.1479 82.1668 87.8303C88.333 81.7033 93.2841 74.4647 96.7588 66.4967C99.082 61.2407 100.791 55.8143 101.547 50.1143C102.132 45.6959 102.204 41.2823 101.175 36.9023C100.764 35.1647 101.175 34.8047 102.951 35.2607C104.65 35.6951 106.289 36.3647 108.051 36.5519C108.756 36.5711 108.73 36.0023 108.831 35.5583C109.368 33.1919 109.791 30.8015 110.367 28.4399C110.48 27.9575 110.35 27.2711 111.106 27.1199Z" fill="#7CD401"></path><path d="M103.44 32.1745C101.611 31.7785 99.7465 31.8505 97.8985 31.7257C93.8217 31.4473 89.7417 31.1737 85.6585 30.9049C85.6585 30.1849 86.2488 30.0217 86.7168 29.7649C89.076 28.4617 91.4016 27.0961 93.8904 25.7641C92.9808 24.8593 91.9272 24.4921 90.8592 24.1153C89.7048 23.7097 88.428 23.7145 87.3504 23.0593C80.988 22.5529 75.5329 24.9793 70.3801 28.3393C69.0193 29.2273 67.7401 30.2401 66.4225 31.1977C65.7745 31.0297 65.9761 30.5089 66.0457 30.1297C66.7657 26.3233 67.2889 22.4905 67.8313 18.6577C67.8727 18.34 67.9837 18.0352 68.1562 17.7652C68.3288 17.4951 68.5587 17.2664 68.8297 17.0953C75.6529 12.4585 82.9369 9.13213 91.4089 9.29053C93.4105 9.32653 95.3857 9.61933 97.2025 10.5601L99.7777 11.7601C100.258 11.4841 100.608 11.8345 100.978 12.0337C102.122 12.6794 103.192 13.4496 104.167 14.3305C104.844 14.9161 105.286 14.8825 105.727 14.0497C107.102 11.4505 108.569 8.89933 110.021 6.34093C110.208 6.01213 110.28 5.46493 110.89 5.62093C110.909 5.62093 110.921 5.68093 110.921 5.71453C110.913 5.75339 110.901 5.79124 110.885 5.82733C110.357 9.88573 109.812 13.9417 109.31 18.0025C109.022 20.3257 108.559 22.6297 108.458 24.9769C108.663 25.3238 108.735 25.7332 108.66 26.1289C108.42 27.9529 108.094 29.7625 107.846 31.5841C107.734 32.4217 107.292 32.8249 106.462 32.6377C105.478 32.4001 104.383 32.8273 103.44 32.1745Z" fill="#7CD401"></path><path d="M107.978 36.7416C106.476 36.912 105.18 36.108 103.774 35.8272C103.266 35.7252 102.766 35.5906 102.276 35.424C101.242 35.076 101.131 35.6208 101.362 36.384C102.43 39.96 102.449 43.6512 102.178 47.292C101.698 53.8392 99.9096 60.0888 97.2672 66.1128C94.92 71.531 91.915 76.6398 88.32 81.324C83.3016 87.804 77.4576 93.3816 69.9672 96.9912C68.9861 97.4336 67.9823 97.8238 66.96 98.16C66.3552 98.3784 66.06 98.652 66.24 99.3744C66.9912 102.377 67.512 105.427 68.0616 108.47C68.1264 108.835 68.256 109.171 67.8888 109.43L62.9856 106.694C62.8281 106.61 62.6936 106.488 62.5937 106.339C62.4937 106.191 62.4314 106.02 62.412 105.842C61.8648 102.54 61.308 99.2376 60.5304 95.9784C60.4008 95.4384 60.5688 95.2104 61.08 95.0184C73.8 90.0768 82.0032 80.3616 88.5504 68.9496C91.8605 63.2042 94.2274 56.9649 95.5608 50.4696C96.7752 44.544 97.0824 38.6016 95.6136 32.6688C95.3736 31.7256 95.7912 31.8768 96.3816 32.052C98.5152 32.688 100.656 33.3048 102.792 33.9288C104.366 33.9456 105.432 35.0976 106.728 35.724C107.198 35.9544 107.779 36.1392 107.978 36.7416Z" fill="#69BF00"></path><path d="M87.5811 37.98C87.8811 38.3256 87.7251 38.7408 87.7275 39.12C87.7275 43.1304 87.7275 47.1432 87.7275 51.156C87.7275 51.636 87.7899 52.1016 87.8235 52.5768C88.4523 53.5992 87.9147 54.7632 88.2363 55.9368C89.2107 55.5984 89.9643 54.828 90.9579 54.588C91.4379 55.9704 91.1667 57.396 91.1091 58.7904C91.0827 59.424 90.2571 59.6135 89.7459 59.8127C88.0659 60.4607 87.4179 61.5312 87.6387 63.3576C87.8235 64.8864 87.6387 66.4584 87.6915 68.0064C87.7131 68.7024 87.4803 69.0768 86.8611 69.3936C85.5603 70.0584 84.3075 70.8168 83.0211 71.5368C82.6179 71.112 82.6851 70.5768 82.6803 70.0632C82.6691 68.5096 82.6691 66.9552 82.6803 65.4C82.6803 64.7016 82.4787 64.5767 81.8307 64.9007C80.5899 65.5223 79.7451 66.312 79.9731 67.86C80.0427 68.34 80.0811 68.9088 79.6275 69.3C79.3731 68.4864 79.4883 67.6488 79.5147 66.828C79.5411 65.9064 79.2003 65.9231 78.5547 66.2927C76.2251 67.6431 73.8907 68.988 71.5515 70.3272C71.2491 70.5 70.9995 70.9632 70.5459 70.5912C70.3539 68.7432 70.4403 66.9647 71.2107 65.1983C74.5155 57.6167 77.7459 49.9992 81.0027 42.3984C81.341 41.5412 81.9742 40.8331 82.7883 40.4016C84.0507 39.7128 85.3203 39.0312 86.5371 38.2608C86.6839 38.1473 86.8518 38.064 87.031 38.0158C87.2102 37.9676 87.3972 37.9554 87.5811 37.98V37.98Z" fill="#F7322F"></path><path d="M58.7735 59.28C57.7295 59.0136 57.0935 59.7912 56.3903 60.2856C54.6959 61.4856 53.3711 63.0528 52.1303 64.7016C51.9407 64.9536 51.8903 65.4624 51.3671 65.3496C51.2567 65.1816 51.1079 65.0448 50.9951 64.8696C49.5911 62.8104 49.6175 62.28 51.1919 60.3312C53.5751 57.3816 56.3303 54.8808 59.8319 53.3016C61.1351 52.7112 62.4911 52.1592 63.9671 52.7928C66.8471 54.12 67.3271 56.6496 67.1423 59.3904C66.8423 63.7464 64.9823 67.596 62.9735 71.3784C62.4527 72.3648 61.8791 73.32 61.3535 74.304C61.1999 74.5896 60.8399 74.8608 61.1471 75.264C60.1199 77.3304 58.8551 79.2528 57.6119 81.1704C60.4727 79.5192 63.4031 77.9112 66.2735 76.2C66.6983 75.948 67.0943 75.5064 67.6799 75.8184C67.7039 77.136 67.7135 78.4584 67.7567 79.7664C67.7769 79.9615 67.7369 80.158 67.6421 80.3296C67.5472 80.5013 67.4021 80.6397 67.2263 80.7264C61.4487 84.048 55.6735 87.3712 49.9007 90.696C49.8431 90.7296 49.7495 90.696 49.6727 90.696C49.1495 89.0736 49.1375 87.4752 50.0783 85.9992C52.6343 81.9912 55.0487 77.8992 57.3911 73.7592C58.9055 71.088 60.3575 68.3736 61.2767 65.4144C61.5628 64.4991 61.7471 63.555 61.8263 62.5992C62.0327 60.1272 61.1999 59.232 58.7735 59.28Z" fill="#F7322F"></path><path d="M97.2194 10.5599C95.0786 10.1855 92.9858 9.59992 90.773 9.59992C86.1602 9.59992 81.8234 10.7423 77.6306 12.5591C74.9642 13.7159 72.4706 15.1823 69.9746 16.6679C68.4842 17.5559 68.0906 18.7367 67.9226 20.2343C67.5482 23.6183 67.0106 26.9759 66.3314 30.3143C66.2666 30.6335 66.1706 30.9359 66.4394 31.2071C66.1802 31.6439 65.9066 31.3727 65.6402 31.2191C64.1186 30.3455 62.6066 29.4479 61.0802 28.6031C60.5522 28.3151 60.5186 28.0031 60.6194 27.4439C61.3394 23.5223 62.0042 19.5887 62.4506 15.6239C62.4637 15.3079 62.552 14.9996 62.7081 14.7246C62.8642 14.4495 63.0836 14.2156 63.3482 14.0423C68.3666 10.6823 73.6682 7.97032 79.6682 6.87832C85.4282 5.83192 90.9722 6.31912 96.0218 9.61912C96.4394 9.89512 96.8186 10.2479 97.2194 10.5599Z" fill="#A1E900"></path><path d="M87.5811 37.9799C85.9347 38.9399 84.3003 39.9384 82.6371 40.8599C82.0842 41.1641 81.6584 41.6562 81.4371 42.2471C78.0947 50.1207 74.7283 57.9848 71.3379 65.8392C70.9596 66.7152 70.7723 67.6618 70.7883 68.616C70.7883 69.2688 71.0283 69.9719 70.5771 70.5839C70.3582 70.4908 70.1531 70.3681 69.9675 70.2192C69.1131 69.3144 67.2507 69.3743 67.4211 67.4783C67.5411 66.1463 67.3587 64.8384 67.9371 63.5016C71.3355 55.6896 74.6571 47.8391 77.9787 39.9959C78.1648 39.4711 78.5326 39.0301 79.0155 38.7528C80.5827 37.8816 82.1355 36.9719 83.6859 36.0887C83.9763 35.9255 84.2379 35.6231 84.6459 35.9375C85.5891 36.6743 86.7099 37.1471 87.5811 37.9799Z" fill="#AB0A07"></path><path d="M58.7735 59.2801C60.3839 58.4905 61.5647 59.0137 61.9631 60.7513C62.5799 63.4417 61.6055 65.8753 60.5447 68.2321C57.8519 74.2033 54.3863 79.7521 50.8559 85.2481C49.7063 87.0361 49.6559 88.7977 49.6727 90.7009C48.3095 90.3217 46.8071 89.6473 46.3367 88.5025C46.0771 87.8511 45.9698 87.149 46.023 86.4497C46.0763 85.7505 46.2887 85.0727 46.6439 84.4681C49.8599 79.1473 53.2151 73.9081 56.0327 68.3521C57.4799 65.4889 58.7999 62.5777 58.7735 59.2801Z" fill="#AB0A07"></path><path d="M55.0128 95.9569C52.2864 96.0241 49.8768 97.2241 47.3832 98.1169C45.9984 98.6113 44.6568 99.2233 43.2624 99.6769C40.6224 100.536 38.34 99.5449 37.1592 97.0201C36.4704 95.5489 35.928 94.0129 35.7888 92.3689C37.1688 91.8505 38.568 91.3825 39.9216 90.8041C42.4656 89.7145 44.9616 89.8873 47.4528 90.9313C50.2944 92.1169 53.04 93.4465 55.0128 95.9569Z" fill="#36BFFE"></path><path d="M110.904 5.81757C110.217 5.84877 110.368 6.53757 110.092 6.88797C109.791 7.307 109.524 7.74917 109.293 8.21037C108.093 10.356 106.893 12.4968 105.72 14.6592C105.379 15.2904 105.153 15.4608 104.493 14.9352C103.017 13.752 101.613 12.456 99.7939 11.7552C101.524 8.67357 103.281 5.60637 104.966 2.50077C105.348 1.79997 105.643 1.72797 106.293 2.13117C107.642 2.96877 109.029 3.74397 110.412 4.53117C110.954 4.83117 111.36 5.15277 110.904 5.81757Z" fill="#A1E900"></path><path d="M63.9552 52.8001C60.2664 52.6369 57.5496 54.7033 54.9288 56.8657C53.3794 58.185 51.9921 59.6834 50.796 61.3297C50.2008 62.1241 50.1312 62.7697 50.6352 63.5953C50.9568 64.1305 51.2904 64.6945 51.3552 65.3473C49.3584 64.3441 47.5896 63.1441 46.9848 60.7873C46.8696 60.3361 46.7448 60.0025 47.0448 59.5873C49.6488 56.0161 52.752 53.0689 56.8536 51.2353C59.6856 49.9561 61.8768 51.0001 63.9552 52.8001Z" fill="#AB0A07"></path><path d="M87.3596 23.0591C89.8724 23.3663 92.2628 24.0191 94.4948 25.6439C93.47 26.5127 92.2484 26.9663 91.1564 27.6095C89.5868 28.5383 87.962 29.3735 86.3708 30.2711C86.1141 30.4561 85.8783 30.6685 85.6676 30.9047C83.654 30.2183 81.9644 28.9295 80.1476 27.8951C79.5284 27.5471 80.186 27.3455 80.438 27.2015C82.4132 26.0735 84.398 24.9647 86.3804 23.8415C86.75 23.6399 87.2084 23.5391 87.3596 23.0591Z" fill="#A1E900"></path><path d="M107.979 36.7416C106.227 35.8488 104.619 34.6801 102.79 33.9337C103.51 33.5353 103.332 32.7984 103.45 32.1744C104.552 32.244 105.668 32.0112 106.76 32.352C107.153 32.4744 107.439 32.364 107.506 31.872C107.816 29.5704 108.152 27.2712 108.466 24.972C109.148 25.3488 109.824 25.7377 110.513 26.1025C110.933 26.3257 111.197 26.616 111.094 27.1272C110.35 29.0808 110.134 31.1616 109.654 33.1776C109.4 34.248 109.068 35.316 108.97 36.4032C108.891 37.524 108.442 37.0104 107.979 36.7416Z" fill="#A1E900"></path><path d="M67.6799 75.8112C65.2271 77.1936 62.7735 78.576 60.3191 79.9584C59.2583 80.5584 58.2023 81.1584 57.0359 81.6864C58.5191 79.6032 59.4575 77.196 61.1471 75.2568L62.1887 74.7C62.9495 74.2968 63.7991 73.3224 64.4303 73.5792C65.6015 74.0616 66.8159 74.736 67.6799 75.8112Z" fill="#AB0A07"></path><path d="M79.6511 69.3024C79.6655 68.9856 79.6943 68.6688 79.6967 68.3424C79.7111 65.5656 80.1287 65.0064 83.0447 64.008V71.52C81.793 70.984 80.6446 70.2335 79.6511 69.3024V69.3024Z" fill="#AC0A07"></path><path d="M90.9606 54.5809C90.1422 55.4713 88.9806 55.8121 87.8262 56.7193V52.5769C88.9206 53.164 89.9684 53.8339 90.9606 54.5809V54.5809Z" fill="#AC0B07"></path><path d="M79.495 57.0816C79.519 57.0504 79.5718 57.0192 79.5694 56.9904C79.3294 53.736 81.2902 51.12 82.1134 48.1728C82.3102 47.4528 82.459 46.716 83.0374 45.9216V54.5064C83.0374 55.9032 83.0374 57.3 83.0374 58.6968C83.0374 59.1072 83.023 59.4864 82.5934 59.724C80.4694 60.9 78.3502 62.088 76.2262 63.2664C76.171 63.2976 76.0774 63.2664 75.8086 63.2448C76.639 61.392 77.443 59.5992 78.2446 57.8064C78.5638 57.396 78.9406 57.0864 79.495 57.0816Z" fill="#AB0A07"></path><path d="M79.4955 57.0816C79.1835 57.504 78.6627 57.5616 78.2451 57.8016L79.2291 55.332L79.4955 55.3776V57.0816Z" fill="#F7EBE9"></path></svg>