<svg xmlns="http://www.w3.org/2000/svg" width="151" height="155" viewBox="0 0 151 155" fill="none"><path opacity="0.05" d="M0.0863127 100.933C-0.834745 94.4852 5.84292 90.059 9.29689 88.6519C45.7555 92.7455 120.208 101.623 126.348 104.387C134.024 107.841 152.445 122.808 150.91 125.494C149.375 128.181 106.008 157.347 94.8786 154.277C83.7491 151.207 1.23764 108.992 0.0863127 100.933Z" fill="black"></path><path d="M4.76965 93.0534C4.72431 90.9616 5.83069 89.6134 7.55674 88.6128C16.4238 83.4659 25.2909 78.3159 34.1579 73.1629C34.7141 72.8395 35.1343 72.2561 35.8356 72.1987C35.9824 72.0992 36.1571 72.0491 36.3343 72.0556C36.5115 72.0621 36.682 72.1249 36.8211 72.2349C40.1462 74.2149 43.5923 75.9651 46.7784 78.1658C46.8971 78.2576 46.9994 78.3691 47.0807 78.4953C47.0232 79.3598 46.4096 79.1361 45.9924 78.9517C44.7168 78.3834 43.7948 78.8641 42.894 79.7558C40.3004 82.3222 37.734 84.8947 35.3066 87.6334C33.9191 89.1902 33.8677 90.2905 35.2885 91.8231C35.9384 92.5214 36.6941 93.1259 37.2564 93.9028C37.4559 94.1839 37.6856 94.5467 37.3078 94.8339C37.0236 95.0485 36.7304 94.8036 36.5037 94.6222C35.2492 93.6368 34.1761 92.4277 32.7553 91.6417C32.4077 91.4513 32.184 90.7348 31.7306 91.3666C31.4555 91.7505 30.9567 92.3007 31.6762 92.7964C31.1925 93.3315 31.5945 93.5461 32.0147 93.7849C32.4349 94.0237 32.9216 94.3895 32.6495 94.9638C32.2958 95.6833 31.7034 95.2661 31.2258 95.0787C30.5864 94.8006 29.9169 94.5977 29.2307 94.4741C27.9943 94.2807 26.9424 94.5225 26.4134 95.8284C26.3469 95.9614 26.2894 96.1609 26.1745 96.1972C24.1825 96.8017 23.5961 98.6971 22.5018 100.127C21.6342 101.254 21.6826 102.086 22.6166 103.174C22.9854 103.603 23.6595 103.851 23.4933 104.61C22.7164 104.994 22.142 104.468 21.5647 104.129C16.9457 101.427 12.3208 98.7364 7.65951 96.1307C6.38386 95.4142 5.12031 94.6495 4.76965 93.0534Z" fill="#6FB5E8"></path><path d="M47.0352 78.5921C43.579 76.5769 40.1219 74.5616 36.6637 72.5464C36.4005 72.4173 36.1289 72.3062 35.8506 72.2139C39.3541 69.7956 43.181 67.9486 46.7722 65.6875C47.008 65.5394 47.3556 65.5726 47.6518 65.5212C49.1633 65.8235 50.3724 66.7878 51.6541 67.5375C55.5506 69.8077 59.4833 72.0144 63.3859 74.2755C64.0841 74.6805 65.0182 74.88 65.26 75.8504C62.3762 77.3618 60.9948 80.8502 57.461 81.5485C58.8576 81.2129 60.1212 80.6416 61.5056 81.1464C61.9077 81.2915 62.618 81.1857 62.4488 81.9989C61.956 82.3918 61.3031 82.2195 60.7741 82.4825C58.9604 83.3259 57.3129 84.4292 55.5778 85.3966C54.8281 85.8137 54.1359 86.5181 53.1293 86.2127C52.8572 85.5296 53.4315 85.3059 53.8275 85.0913C54.5258 84.6953 55.1969 84.2509 55.7954 83.9788C52.9086 82.1893 49.65 80.9258 47.0352 78.5921Z" fill="#657585"></path><path d="M119.282 94.0148C121.126 94.6193 122.692 95.7831 124.354 96.7353C128.32 99.0116 132.256 101.342 136.204 103.652C135.463 104.794 134.39 105.632 133.514 106.675C132.555 107.774 131.515 108.801 130.403 109.746C129.375 110.653 128.774 111.463 129.575 112.769C129.485 112.832 129.383 112.876 129.275 112.898C129.168 112.92 129.057 112.921 128.949 112.899C123.665 109.975 118.418 106.995 113.264 103.848C113.168 103.74 113.093 103.615 113.043 103.479C112.913 102.932 112.475 102.715 112.036 102.446C110.888 101.738 110.827 101.007 111.81 100.027C113.3 98.543 113.533 98.5158 114.95 99.5436C114.279 99.0236 113.998 98.407 114.633 97.7087C115.972 96.2305 117.236 94.6345 119.282 94.0148Z" fill="#6FB5E8"></path><path d="M119.282 94.0148C118.272 95.1514 116.763 95.6532 115.811 96.9228C115.016 97.9838 113.568 98.7637 115.724 99.8308C115.276 100.254 115.119 99.9366 114.962 99.8308C113.571 98.9813 112.38 99.2625 111.582 100.716C111.241 101.339 111.41 101.853 112.154 102.137C112.695 102.346 113.517 102.382 113.206 103.346C112.797 103.667 112.441 103.413 112.099 103.222C107.589 100.71 103.148 98.0836 98.6807 95.493C98.5574 95.4086 98.4543 95.2982 98.3784 95.1695C97.9854 94.1296 97.1088 94.048 96.1808 94.0722C96.0787 94.0291 95.9862 93.9664 95.9084 93.8876C95.8306 93.8087 95.7691 93.7153 95.7274 93.6127C94.6149 91.9229 94.7661 90.5113 96.5375 89.3263C97.0544 88.9817 97.3537 88.3288 97.8857 87.9297C99.9654 86.37 101.026 86.3065 103.097 87.6728C102.432 87.295 101.722 86.8869 101.852 85.98C101.945 85.3392 101.991 84.5048 103.019 84.5623C106.87 86.4757 110.485 88.7943 114.242 90.8891C115.993 91.8121 117.677 92.8565 119.282 94.0148V94.0148Z" fill="#6FB5E8"></path><path d="M52.5122 34.1259C51.1036 30.8854 50.5474 27.4363 50.0395 23.9781C49.3836 19.4983 49.6375 15.0909 51.294 10.8408C52.6724 7.29497 55.2932 5.04596 58.8753 3.87007C61.1243 2.7637 63.4096 3.32293 65.6133 3.90937C69.1863 4.85855 72.3936 6.62994 75.4074 8.74595C78.0614 10.5929 80.3195 12.8812 82.5474 15.1998C82.9978 15.6713 83.7414 16.0734 83.3364 16.956C80.0112 17.5788 77.6473 15.5565 75.1746 13.8969C74.3675 13.3528 73.5967 12.8419 72.6294 12.6878C70.3078 11.6328 68.1344 10.2181 65.5619 9.77976C63.9897 9.3944 62.3557 9.33168 60.7586 9.59537C57.8415 10.1002 55.9008 11.8625 54.7733 14.571C53.7354 16.9879 53.2987 19.6204 53.5007 22.243C53.5309 23.5277 53.5309 24.8094 53.5249 26.0942C53.4765 27.8565 53.1531 29.5977 54.1294 31.3177C54.7552 32.4361 54.0599 33.3974 52.5122 34.1259Z" fill="#B6F0FF"></path><path d="M65.1722 75.8414C61.1034 73.2054 56.7716 71.0199 52.6273 68.5139C50.9647 67.5104 49.1752 66.7184 47.6426 65.4911C50.0881 63.8587 52.5064 62.1418 55.3418 61.2591C57.9415 60.449 60.6681 60.4852 63.1015 61.6339C66.3547 63.1756 69.4872 64.9601 72.4724 66.9723C72.5872 67.2111 72.4361 67.5104 72.5268 67.7008C73.4336 69.5689 72.1399 70.3065 70.834 71.0259C69.1502 71.9328 68.198 73.7677 66.345 74.5053C65.7405 74.741 66.345 75.1461 66.6201 75.3819C67.1672 75.8414 68.0257 76.1104 67.6177 77.117C66.4901 77.2893 65.7767 76.6787 65.1722 75.8414Z" fill="#6FB5E8"></path><path d="M103.006 84.5745C101.758 85.8924 101.782 86.1222 103.511 88.2019C102.498 87.9964 102.181 86.9928 101.244 86.9928C99.5935 87.023 98.4448 87.9268 97.3143 88.9425C97.2447 89.006 97.2236 89.1239 97.1631 89.2025C95.818 91.0343 95.6517 91.6601 95.9903 93.6824C95.688 93.8214 95.422 93.6642 95.159 93.5312C91.1476 91.1311 87.094 88.8034 83.0192 86.5121C82.2332 86.0708 81.408 85.6778 80.749 85.0339C80.6542 84.917 80.5721 84.7904 80.5041 84.6561C79.9328 82.6217 80.6916 80.7052 82.5174 79.7228C83.1219 79.4054 83.7628 79.097 83.9079 78.4441C84.316 76.6304 85.5614 75.8323 87.233 75.4877C92.5774 78.3897 97.8675 81.3491 103.006 84.5745Z" fill="#6FB5E8"></path><path d="M128.955 112.699L129.559 112.769C130.965 113.071 132.062 113.978 133.271 114.664C134.707 115.477 136.188 116.227 137.558 117.14C138.736 117.932 139.728 118.022 140.992 117.264C143.241 115.916 145.526 114.664 147.34 112.729C147.85 115.45 146.638 117.119 144.296 118.418C138.425 121.677 132.642 125.09 126.826 128.439C126.104 127.835 126.524 127.315 126.935 126.762C127.238 126.363 127.887 126.03 127.322 125.38C125.451 123.996 123.181 123.249 121.418 121.692C121.192 121.426 120.953 121.166 120.738 120.888C119.408 119.189 119.529 118.086 121.515 117.261C123.302 116.526 124.142 114.694 125.898 114.002C126.294 113.845 126.403 113.289 126.554 112.856C126.935 111.759 127.213 111.708 128.048 112.554C128.329 112.838 128.531 113.198 128.894 113.41C128.97 113.165 128.794 112.923 128.955 112.699Z" fill="#2D4259"></path><path d="M87.2397 75.4968C87.1762 75.9653 87.0704 76.4641 86.4447 76.3281C85.2053 76.056 84.8879 76.8843 84.6098 77.7791C84.2591 78.9156 83.7876 79.8134 82.4333 80.1671C81.1607 80.4966 80.3778 83.066 80.8644 84.6561C80.2599 84.9976 79.8095 84.5926 79.3349 84.3326C75.7074 82.3436 72.2009 80.1762 68.5765 78.1992C68.1261 77.9544 67.4701 77.8274 67.582 77.0657C67.5336 76.2041 66.8505 75.9351 66.2278 75.6177C65.8015 75.4031 65.4569 75.1492 65.4962 74.602C65.5355 74.0549 65.9738 74.0277 66.3819 74.0277C67.0772 74.0095 67.4278 73.4624 67.8299 73.0452C69.1051 71.8007 70.5155 70.7026 72.0347 69.7715C72.6 69.4027 72.8569 69.0611 72.2221 68.5261C71.4694 67.8882 72.3339 67.4922 72.473 66.9874C74.6857 68.4989 77.1735 69.5236 79.4679 70.8899C82.0575 72.4316 84.6481 73.9672 87.2397 75.4968Z" fill="#6FB5E8"></path><path d="M147.343 112.72C146.79 114.029 145.756 114.876 144.574 115.571C143.147 116.408 141.711 117.23 140.275 118.053C139.84 118.303 139.408 118.572 138.87 118.264C135.744 116.45 132.522 114.821 129.547 112.766C129.435 112.397 129.127 112.24 128.834 112.037C128.151 111.562 128.299 111.157 128.87 110.613C130.844 108.736 133.102 107.116 134.493 104.688C134.879 104.011 135.937 104.498 136.197 103.652C139.326 105.429 142.497 107.137 145.568 109.011C146.85 109.797 147.651 111.058 147.343 112.72Z" fill="#6FB5E8"></path><path d="M52.5127 34.1258C52.8543 33.8568 52.8573 33.3671 53.3531 33.1343C53.5078 33.0702 53.646 32.9717 53.757 32.8463C53.868 32.7209 53.9491 32.5718 53.9939 32.4104C54.0388 32.249 54.0463 32.0795 54.0159 31.9148C53.9856 31.7501 53.9181 31.5944 53.8186 31.4596C52.5883 29.8333 53.1112 28.0257 53.0901 26.2694C53.8277 26.3177 53.7279 26.9495 53.8186 27.3909C54.1209 28.8721 54.4504 30.3442 54.8252 31.8042C55.5535 35.1021 56.9114 38.2285 58.8244 41.0119C59.1781 41.5409 59.5136 42.2482 60.2724 42.1908C61.1006 42.1273 61.3606 41.3414 61.5904 40.6975C62.0287 39.4642 62.6695 38.3155 63.0353 37.055C63.2922 36.1723 63.8666 35.8458 64.7674 36.1632C65.0002 36.2586 65.2409 36.3335 65.4868 36.3869C66.2849 36.5139 66.8531 36.1148 67.2794 35.5133C67.7056 34.9117 67.1524 34.5188 66.8804 34.0593C66.2758 33.0104 65.0666 32.2758 65.0969 30.8702C65.7014 30.5074 66.0521 31.0062 66.306 31.3629C67.2885 32.6869 68.5792 33.7207 69.6312 34.9752C70.1602 35.7823 70.8796 36.4141 71.5416 37.0912C72.5795 38.1242 73.3468 39.3971 73.7755 40.7973C74.2017 42.2633 73.5669 43.016 72.0343 42.9344C71.3811 42.8742 70.7498 42.6675 70.1874 42.3299C68.2426 41.2686 66.5024 39.8693 65.0485 38.1976C64.4137 37.4842 64.1417 37.6142 63.8756 38.4636C63.4645 39.8209 63.5431 41.021 64.6888 42.0276C65.229 42.4806 65.6978 43.0125 66.0793 43.6055C66.3604 44.1375 66.7353 44.6121 67.0527 45.1169C67.6089 46.0238 67.8265 46.9911 67.2643 47.9645C66.7383 48.8713 66.9106 49.624 67.494 50.4523C68.0247 51.24 68.6214 51.9812 69.2775 52.668C69.6584 53.0459 70.133 53.3965 70.0816 54.0374C69.1384 54.5694 68.5701 53.847 68.0351 53.3331C67.013 52.3792 65.9361 51.486 64.8097 50.6578C64.4651 50.4009 64.0751 49.9747 63.6217 50.2014C63.1683 50.4281 63.5431 50.9208 63.5401 51.2926C63.561 51.4142 63.5545 51.5389 63.521 51.6576C63.4875 51.7763 63.428 51.8861 63.3466 51.9788C60.4205 49.2582 58.3257 45.9119 56.2731 42.5505C54.6422 39.9264 53.3771 37.092 52.5127 34.1258V34.1258Z" fill="#6FB5E8"></path><path d="M101.685 33.5485C102.74 39.0622 103.018 44.5427 101.192 49.9838C100.282 52.8714 98.4161 55.3636 95.9023 57.0513C94.412 58.0609 92.9066 59.0524 91.4073 60.05C91.0657 59.122 91.8426 58.5718 92.163 57.8735C92.4351 57.2689 92.7434 56.7037 93.0064 56.1051C93.4497 55.1885 93.7718 54.2181 93.9646 53.2183C94.5904 49.9717 94.9773 46.7191 94.4362 43.4182C94.3646 42.7729 94.3444 42.123 94.3757 41.4745C94.3969 40.5223 94.4392 39.8361 95.8328 39.824C96.7064 39.824 97.5679 38.8688 98.2148 38.1342C99.1972 37.0188 100.694 36.2117 100.633 34.3708C100.633 34.242 100.662 34.1149 100.718 33.9992C100.775 33.8834 100.857 33.782 100.958 33.7027C101.06 33.6234 101.178 33.5683 101.304 33.5416C101.43 33.5149 101.56 33.5173 101.685 33.5485V33.5485Z" fill="#2192F6"></path><path d="M83.3634 16.9106C81.7734 14.5196 79.5818 12.7119 77.4809 10.8196C76.8189 10.215 76.1085 9.67693 75.4193 9.10863C74.7755 8.38919 73.9079 7.98715 73.131 7.44304C72.46 6.97147 72.0972 6.12809 72.9103 5.7472C74.6545 4.93405 75.6884 3.35612 77.1424 2.27091C77.278 2.19683 77.4195 2.13414 77.5656 2.0835C82.3535 4.08073 86.5893 7.20289 89.9139 11.1853C89.3396 13.3709 87.6619 14.7553 86.1324 16.2093C85.5742 16.6872 85.0677 17.2221 84.6209 17.8054C83.8441 17.9989 83.5448 17.5364 83.3634 16.9106Z" fill="#2192F6"></path><path d="M84.4945 17.8507C84.4764 17.3217 84.5913 16.7897 85.0628 16.5418C86.5743 15.7589 87.3179 14.2233 88.5845 13.2167C89.2707 12.6756 88.8867 11.4815 89.9145 11.1853C93.2155 14.19 95.5068 17.9233 97.5926 21.8046C97.7725 22.0479 97.8525 22.3507 97.8163 22.651C97.0968 24.637 95.5794 26.0941 94.1889 27.5239C93.3213 28.4156 92.8286 29.6217 91.7434 30.2958C91.1207 30.2233 90.9997 29.6913 90.8093 29.2439C89.2495 25.6564 87.259 22.2721 84.8815 19.1657C84.5943 18.7848 84.1409 18.4311 84.4945 17.8507Z" fill="#2192F6"></path><path d="M91.774 30.1963C92.6567 27.8687 94.954 26.6505 96.1783 24.5737C96.5985 23.8604 97.2696 23.2951 97.8288 22.6603C99.685 26.0607 100.991 29.7336 101.698 33.5426C101.347 33.7512 100.921 34.0172 100.924 34.4071C100.924 37.6265 97.8499 38.3761 96.2569 40.3078C96.1454 40.4148 96.0017 40.482 95.8481 40.4989C95.6945 40.5159 95.5396 40.4816 95.4075 40.4015C94.1983 39.7002 95.1052 40.9456 94.8029 41.0514C94.1167 41.0756 94.1983 40.5073 94.1197 40.1113C93.5484 36.9584 92.6083 33.9114 91.5987 30.8794C91.5758 30.7597 91.5797 30.6364 91.61 30.5183C91.6403 30.4002 91.6963 30.2902 91.774 30.1963Z" fill="#2192F6"></path><path d="M97.8645 145.08C93.5055 146.876 89.5909 145.712 85.7428 143.433C79.023 139.448 72.2245 135.594 65.4684 131.674C64.2291 130.954 63.0199 130.183 61.7987 129.437C61.6324 128.648 61.1941 127.835 61.9921 127.124C63.5217 127.124 64.5616 128.24 65.8493 128.79C71.1665 131.764 76.3205 135.02 81.6891 137.907C83.5542 139.083 85.5251 140.08 87.4326 141.205C90.7577 143.17 94.2582 143.278 97.8554 142.078C98.2816 141.936 98.6806 141.694 99.1522 141.849C99.7568 142.728 98.8257 142.876 98.4448 143.058C97.4412 143.572 97.2599 144.182 97.8645 145.08Z" fill="#4A5C6F"></path><path d="M4.76949 93.0534C5.57112 94.2114 6.63345 95.1651 7.87095 95.8375C12.5745 98.5127 17.2569 101.233 21.9454 103.954C22.4359 104.201 22.9406 104.419 23.4568 104.607C25.3068 105.251 26.9482 106.318 28.6199 107.294C30.9475 108.657 33.2721 110.033 35.642 111.321C36.7816 112.058 37.9877 112.681 39.1515 113.373C39.611 113.648 40.1944 113.836 40.14 114.549C39.4508 115.132 38.8704 114.467 38.2205 114.365C38.0814 114.812 38.4472 115.35 37.9696 115.719C34.6233 113.836 31.3525 111.807 27.9941 109.927C22.5016 106.838 17.0726 103.633 11.6012 100.508L7.43263 98.1198C5.498 97.0013 4.37652 95.4234 4.76949 93.0534Z" fill="#667686"></path><path d="M97.865 145.08C97.4449 144.841 96.8675 144.726 96.934 144.061C97.0005 143.396 97.4086 143.115 97.9799 142.931C98.4965 142.75 98.9569 142.437 99.316 142.024C99.3492 141.208 100.06 141.017 100.592 140.706C109.056 135.755 117.536 130.817 126.032 125.894C126.539 125.565 127.089 125.308 127.667 125.132C128.484 125.846 127.87 126.341 127.365 126.804C126.86 127.266 126.522 127.729 126.818 128.436C120.641 132.064 114.466 135.683 108.291 139.294C105.322 141.029 102.346 142.752 99.3613 144.463C98.9019 144.729 98.4636 145.107 97.865 145.08Z" fill="#3A4E62"></path><path d="M93.3 56.2351C93.0249 57.683 91.8793 58.6957 91.4107 60.0499C88.4604 62.5831 85.0627 63.6532 81.1995 63.103C80.3682 62.3685 80.6312 61.6672 81.3416 61.0838C82.726 59.9441 83.8717 58.5657 85.4043 57.5591C87.2702 56.285 88.7983 54.5764 89.857 52.5804C90.5401 51.3713 91.6888 50.5884 92.8013 49.8599C93.8411 49.1737 94.4638 49.8871 94.4668 51.6887C94.4541 51.8459 94.4132 51.9995 94.3459 52.1421C94.0822 53.5267 93.7329 54.8937 93.3 56.2351Z" fill="#B6F0FF"></path><path d="M77.5654 2.08345C76.2595 3.38328 75.398 5.13654 73.4452 5.77134C72.2754 6.15222 72.6955 6.89887 73.424 7.39462C74.1525 7.89037 75.0655 8.16545 75.4191 9.10556C72.6472 7.48531 69.978 5.71391 66.8614 4.71031C64.2406 3.86391 61.6198 3.36817 58.875 3.87298C62.2818 2.1832 65.483 -0.14138 69.5246 0.00674048C72.3328 0.112541 75.0715 0.680837 77.5654 2.08345Z" fill="#2192F6"></path><path d="M94.1919 51.6585C94.1043 51.0539 94.4579 50.2498 93.6478 49.9445C92.9284 49.6785 92.6805 50.5038 92.1817 50.7698C90.1231 51.8731 89.579 54.237 87.995 55.7666C87.2484 56.486 86.529 57.3536 85.6705 57.813C83.9958 58.7199 83.0648 60.3976 81.4929 61.3589C80.7704 61.8032 81.0032 62.4652 81.1906 63.094C79.93 62.8612 78.6756 62.6103 77.542 61.9695C77.2348 61.6428 76.99 61.2627 76.8195 60.848C76.3782 59.5482 76.8377 58.8499 78.1889 58.6625C79.7457 58.4448 81.2964 58.1788 82.8592 58.0005C87.6202 56.61 89.3402 52.9221 90.1141 48.4784C90.4345 46.6496 90.3227 44.7905 90.6249 42.9647C90.8184 42.3934 90.9514 41.81 91.1056 41.2326C91.3625 40.2744 92.0759 39.7424 92.9858 39.4703C93.6297 39.2768 93.9924 39.4884 94.1617 40.1988C94.857 43.0947 94.8569 46.0329 94.7149 48.9651C94.6816 49.6604 94.6514 50.3587 94.6181 51.0539C94.6212 51.3562 94.6514 51.7008 94.1919 51.6585Z" fill="#B6F0FF"></path><path d="M37.9671 115.704C37.9399 115.509 37.9399 115.312 37.9671 115.117C38.1273 114.576 37.0421 114.183 37.6829 113.739C38.1787 113.391 38.5717 114.205 39.0856 114.322C39.415 114.398 39.7476 114.458 40.0801 114.528C40.6846 114.093 41.123 114.607 41.5915 114.848C45.0164 116.662 48.2962 118.73 51.6758 120.628C54.6563 122.363 57.6731 124.041 60.6567 125.767C61.2613 126.112 62.1319 126.233 62.1137 127.218C61.4124 127.871 62.4976 128.772 61.8114 129.428C56.3945 126.35 50.9856 123.26 45.5847 120.157C43.0364 118.693 40.5123 117.191 37.9671 115.704Z" fill="#566878"></path><path d="M63.3585 51.994C63.3585 51.2262 62.4849 50.271 63.1893 49.7722C64.0961 49.1374 64.8276 50.2256 65.5048 50.7093C66.599 51.4922 67.5482 52.4747 68.5579 53.3755C68.9549 53.7572 69.463 54.0028 70.0088 54.0768C71.7833 54.8476 73.5668 55.5882 74.9089 57.0815C74.6066 57.4684 74.129 57.4654 73.6998 57.544C73.2866 57.5997 72.8946 57.7604 72.5612 58.0107C72.2278 58.261 71.9641 58.5926 71.7953 58.9738C68.4974 57.2599 65.801 54.766 63.3585 51.994Z" fill="#B6F0FF"></path><path d="M71.8016 58.9857C71.4208 57.7766 72.3306 57.6345 73.1196 57.3292C73.6768 57.1509 74.2612 57.0731 74.8457 57.0995C74.9726 57.0179 75.1056 56.8879 75.2507 56.9272C77.6654 57.5799 80.1454 57.9612 82.6447 58.0638C82.7928 58.0638 82.8955 58.2179 83.0013 58.3237C81.6652 58.9888 80.1659 58.6865 78.7361 59.0553C76.8317 59.545 76.7168 59.2306 77.3184 61.1229C77.4091 61.404 77.4695 61.6942 77.5451 61.9784C75.4684 61.3013 73.4703 60.4579 71.8016 58.9857Z" fill="#B6F0FF"></path><path d="M35.5306 111.511C33.6172 110.861 31.9515 109.713 30.2739 108.649C28.0369 107.234 25.5189 106.3 23.4664 104.586C22.9162 103.61 21.5892 103.207 21.4955 101.865C21.4683 101.472 21.2143 101.016 21.4955 100.72C22.6351 99.5498 23.3092 98.0716 24.216 96.7597C24.6755 96.1068 25.7789 96.6902 26.1265 95.7924C27.254 96.1854 28.4178 96.5088 29.367 97.2857C29.7902 97.6273 30.2436 97.8086 30.7545 97.5729C31.8097 97.1032 32.8052 96.5096 33.7199 95.8045C34.4908 95.1999 34.1552 94.6256 33.5234 94.0784C32.8917 93.5313 31.9455 93.6038 31.6221 92.7242C30.6729 92.5277 31.2623 91.7569 31.1324 91.2762C31.0024 90.7956 31.5616 90.6505 31.9243 90.5175C32.6619 90.2485 32.6105 90.9649 32.9158 91.2974C33.6262 92.0682 34.8112 92.2043 35.4158 93.2441C35.7694 93.8487 36.5372 94.2054 37.3625 94.4714C36.6068 93.7036 35.8994 92.8814 35.0893 92.1801C33.5778 90.853 33.3662 88.8549 35.0349 87.277C36.7035 85.6991 38.1242 83.9277 39.681 82.2862C40.866 81.0355 42.1226 79.8546 43.4445 78.7495C43.7802 78.4362 44.213 78.247 44.671 78.2135C45.129 78.18 45.5847 78.304 45.9625 78.5651C46.3192 78.7979 46.6487 79.0095 47.0115 78.5893L56.204 83.8219C55.4664 85.031 53.7464 84.9373 53.1025 86.2129C53.1237 86.6936 52.8002 86.9324 52.4375 87.1198C50.4152 88.1959 48.5229 89.5018 46.4794 90.5447C46.3835 90.5639 46.2887 90.5881 46.1953 90.6172C45.6421 90.8954 46.2799 90.8863 46.2981 90.8984C47.5284 91.6934 49.0186 92.1075 49.9104 93.3953C50.0101 93.8971 49.729 94.5258 50.4605 94.8069C50.9775 95.0034 51.3674 95.4115 51.1044 95.9768C50.8021 96.6902 50.5391 97.5819 49.6655 97.7724C49.0156 97.9144 48.1541 97.4701 48.2478 98.7397C48.2629 99.0027 47.6432 98.9694 47.3047 98.9906C46.8029 98.9059 46.3253 98.8515 45.8446 99.1357C43.774 100.345 41.7426 101.639 39.675 102.996C40.2795 103.815 41.0745 102.83 41.6428 103.298C41.7003 103.383 41.7849 103.51 41.7426 103.567C40.8841 104.804 40.9657 106.493 39.7475 107.566C38.7681 108.431 38.1787 109.628 37.3292 110.589C36.8849 111.13 36.4919 111.931 35.5306 111.511Z" fill="#6FB5E8"></path><path d="M18.7959 91.6027C21.2807 90.1487 23.6022 88.7884 25.9298 87.4372C26.3289 87.2075 26.7007 87.3888 27.0664 87.5884C27.5954 87.8725 28.1577 88.1053 28.6595 88.4317C29.5119 88.9819 30.8511 89.3386 30.5911 90.6173C30.3553 91.7629 29.125 91.7932 28.1033 91.8264C27.801 91.8264 27.4987 91.7962 27.4352 92.2345C27.2206 94.1238 25.688 94.2145 24.4124 94.1298C22.375 93.9999 20.6066 93.0204 18.7959 91.6027Z" fill="#6FB5E8"></path><path d="M31.6333 92.7271C32.4011 93.1835 33.2898 93.3921 34.0153 93.9664C34.9221 94.6829 34.9493 95.4083 34.0667 96.0371C33.0087 96.7958 31.8539 97.4216 30.7204 98.0745C30.5329 98.1833 30.1158 98.2287 30.0221 98.1198C28.9822 96.9107 27.105 97.1072 26.1377 95.7953C26.4793 94.4773 27.5584 93.7971 29.088 94.0299C29.9305 94.1493 30.7475 94.4067 31.5063 94.7917C31.7814 94.9368 32.2046 95.3025 32.4283 94.8793C32.6943 94.3836 32.126 94.2355 31.8237 94.0239C31.6998 93.9423 31.5396 93.915 31.4186 93.8304C31.1164 93.6188 30.4392 93.7518 30.5118 93.2258C30.5843 92.6999 31.1949 92.7694 31.6333 92.7271Z" fill="#6FB5E8"></path><path d="M46.3821 90.4116C48.4558 88.7369 50.9738 87.7787 53.114 86.2159C55.2723 85.309 57.1616 83.9487 59.2051 82.8454C59.6797 82.5884 60.1663 82.3557 60.647 82.1108C61.3997 81.9688 61.9861 82.3587 62.5846 82.7154C65.6589 84.5473 68.8813 86.1343 71.7923 88.2382C73.0014 88.8427 73.1737 90.599 74.7063 90.9013C75.0358 90.9678 75.0086 91.3819 74.8605 91.6752C74.6671 92.0909 74.3505 92.4371 73.9536 92.6667C71.6804 93.8123 70.3715 95.9918 68.5669 97.606C67.0996 98.8628 65.3663 99.7703 63.4975 100.26C62.6511 100.042 61.9861 99.4772 61.2576 99.051C60.4203 98.5643 60.2449 97.742 60.2419 96.8473C60.2419 94.2899 60.2419 91.7326 60.2419 89.1753C60.2786 88.7244 60.2449 88.2706 60.1421 87.8301C59.9154 87.1167 59.3622 86.76 58.7788 87.2648C57.7299 88.1717 56.3303 88.616 55.5958 89.9461C54.9428 91.128 53.782 91.9533 53.0052 93.0596C52.4943 93.773 51.7809 93.5917 51.0826 93.4345C49.5712 92.9297 48.2895 91.9986 46.9171 91.2278C46.7546 91.1636 46.6159 91.0507 46.5201 90.9046C46.4243 90.7584 46.3761 90.5862 46.3821 90.4116Z" fill="#F4B247"></path><path d="M67.5905 77.0657C69.3317 78.429 71.3691 79.2965 73.2645 80.3908C75.7734 81.8539 78.2068 83.459 80.873 84.644C80.8654 84.7305 80.8654 84.8175 80.873 84.904C79.9148 85.7836 78.4547 85.835 77.5871 86.887C76.8433 87.831 76.0277 88.7163 75.1477 89.535C73.6363 89.3506 72.5541 88.3258 71.3087 87.6457C68.6969 86.1887 66.1124 84.6772 63.5339 83.1567C63.0472 82.8545 62.3701 82.7094 62.4396 81.9144C60.8496 80.8684 59.323 81.2947 57.7995 82.0897C57.5214 82.2348 57.1677 82.6217 56.8685 82.265C56.5148 81.8539 56.9259 81.5304 57.201 81.2584C57.5486 80.9108 57.8327 80.4483 58.3889 80.3999C60.3054 80.2367 61.1095 78.7615 62.2461 77.4919C63.0071 76.627 64.0384 76.0453 65.1722 75.8414L67.5905 77.0657Z" fill="#596A7B"></path><path d="M62.4515 81.9144C64.9484 83.8248 67.8201 85.1186 70.4802 86.7509C71.9916 87.688 73.6028 88.5102 75.1657 89.3838C75.6644 89.2176 76.0423 89.5048 76.4232 89.7345C80.8698 92.4067 85.4343 94.8734 89.8719 97.5546C95.2828 100.632 100.679 103.73 106.032 106.904C106.597 107.24 107.392 107.455 107.302 108.389C107.26 108.45 107.207 108.502 107.144 108.542C107.082 108.582 107.012 108.609 106.939 108.621C106.336 108.597 105.746 108.445 105.207 108.174C98.9132 104.489 92.6106 100.813 86.2535 97.2342C81.562 94.4351 76.6831 91.9503 72.2032 88.8004C71.9977 88.6584 71.7045 88.7128 71.5412 88.4981C68.0377 86.1554 64.371 84.0908 60.6589 82.1108C61.2061 81.6907 61.8469 81.9023 62.4515 81.9144Z" fill="#9FB2C3"></path><path d="M106.851 108.446L107.153 108.479C108.441 106.913 109.653 105.278 111.168 103.909C111.434 103.64 111.782 103.469 112.157 103.423C112.532 103.376 112.912 103.457 113.235 103.652C118.559 106.511 123.815 109.507 128.936 112.72C128.966 113.28 130.194 113.57 129.505 114.12C128.994 114.528 128.564 113.603 128.105 113.261C127.721 112.959 127.724 112.294 127.044 112.24C126.835 113.549 126.518 114.785 124.877 114.96C124.778 114.979 124.685 115.021 124.606 115.084C124.528 115.146 124.465 115.226 124.423 115.317C124.091 116.967 122.485 117.001 121.4 117.672C120.016 118.536 119.825 119.183 120.826 120.486C121.098 120.837 121.379 121.181 121.657 121.532C120.974 121.904 120.518 121.357 120.022 121.088C115.119 118.44 110.376 115.513 105.512 112.784C104.587 112.209 103.463 111.916 102.84 110.904C103.804 109.444 105.219 108.763 106.851 108.446Z" fill="#374C61"></path><path d="M113.236 103.652C112.766 103.566 112.28 103.629 111.847 103.832C111.413 104.034 111.054 104.366 110.818 104.782C110.213 105.716 108.935 106.058 108.805 107.436C108.744 108.092 107.52 107.808 107.148 108.488C107.211 107.581 106.359 107.551 105.866 107.264C100.492 104.096 95.0898 100.97 89.697 97.8357C89.9721 97.0196 90.625 97.2946 91.1661 97.3612C92.5899 97.5365 94.3401 96.3001 94.6424 94.8673C94.7603 94.299 94.6998 93.64 95.3921 93.3559L95.9967 93.6974L96.3232 93.9332C97.23 93.7639 97.8074 94.4018 98.4392 94.8733C103.276 97.8378 108.194 100.668 113.194 103.365C113.215 103.452 113.236 103.546 113.236 103.652Z" fill="#42556A"></path><path d="M98.4451 94.8671C97.5745 94.9215 97.1211 94.0389 96.3291 93.927C97.372 93.4736 98.0884 93.7668 98.4451 94.8671Z" fill="#6FB5E8"></path><path d="M91.7734 30.196C91.7734 30.4167 91.7734 30.6374 91.7734 30.858C91.0751 31.4626 91.063 30.6253 90.8665 30.3774C90.5128 29.9089 90.404 29.271 89.9113 28.8871C89.5878 28.6332 89.219 28.4488 88.811 28.6453C88.4029 28.8418 88.5087 29.2227 88.5087 29.5522C88.4724 30.459 88.8805 31.2933 89.0619 32.1639C89.1918 32.7685 89.479 33.4063 89.1677 34.0562C88.158 34.2225 88.0643 33.3338 87.9041 32.7806C87.4023 31.0183 86.3534 29.661 85.1382 28.3551C84.6001 27.7747 84.4338 27.8896 83.8867 28.3551C81.7097 30.2048 79.6283 32.1641 77.6506 34.2255C76.8737 35.0387 75.7643 34.9359 74.6791 33.9656C73.3139 32.7737 72.0379 31.4836 70.8612 30.1054C70.3254 29.4397 69.7403 28.8152 69.111 28.2372C68.9047 27.9916 68.7744 27.6912 68.7361 27.3727C68.6908 25.0542 69.0384 24.7549 71.1091 25.2567C71.2572 25.2978 71.3994 25.3577 71.5323 25.435C72.4724 26.1998 73.5515 26.7711 74.5219 27.4966C74.6413 27.5713 74.7554 27.6542 74.8635 27.7445C75.4888 28.3108 76.0708 28.9231 76.6046 29.5764C77.0188 30.1054 77.5417 30.1537 77.6929 29.4826C77.9226 28.4791 78.4879 27.5722 78.4274 26.4598C78.376 25.5227 78.1251 24.8123 77.2183 24.4707C76.9536 24.3578 76.6953 24.2307 76.4444 24.0899C75.0569 22.917 73.2069 22.2399 72.4754 20.3657C72.4198 20.2273 72.391 20.0796 72.3908 19.9304C72.5419 18.3192 72.1761 16.9075 70.8552 15.8586C71.2421 15.1543 71.7439 15.4959 72.2154 15.7226C72.6175 15.916 72.95 16.2274 73.34 16.4481C73.5282 16.574 73.7543 16.6307 73.9797 16.6087C74.2052 16.5866 74.416 16.4872 74.5763 16.3271C75.0055 15.9402 74.7879 15.5624 74.5975 15.118C74.141 14.0751 73.086 13.4403 72.7324 12.346C73.6317 12.3945 74.4864 12.7534 75.1506 13.3617C76.7588 14.719 78.6511 15.6379 80.5374 16.5448C80.8397 16.6899 81.1964 16.9771 81.5077 16.6597C82.2423 15.91 82.7713 16.5932 83.3638 16.8713L84.4973 17.8114C86.834 21.1698 89.1888 24.5161 90.8453 28.2947C91.1114 28.9627 91.2081 29.6942 91.7734 30.196Z" fill="#6FB5E8"></path><path d="M72.7293 12.3855C73.9657 13.0717 74.4191 14.4139 75.2625 15.4295C75.6827 15.9344 75.3109 16.3848 74.8877 16.681C74.3677 17.0407 73.8478 17.4609 73.1586 16.8835C72.4694 16.3062 71.8769 15.6079 70.8551 15.7318C69.5704 15.7046 69.0958 16.2578 69.1623 17.5999C69.2409 19.1446 68.8933 19.3865 67.4272 19.2474C66.1709 19.124 64.9157 19.4936 63.9267 20.2782C63.0713 20.9009 62.8053 21.7624 62.8506 22.7842C62.8869 23.5852 62.8506 24.3923 62.8506 25.2025C62.8687 26.2665 62.4093 27.0494 61.7624 27.8988C60.6107 29.4103 59.0418 30.5408 57.9989 32.1309C57.0921 33.5365 55.6532 33.4398 54.5952 32.022C53.6883 30.2083 53.7669 28.1437 53.0837 26.2786C53.0837 24.8679 53.0837 23.4573 53.0837 22.0466C54.0964 22.1947 54.84 21.832 55.5504 21.0702C58.4191 18.005 61.3634 15.0245 64.3409 12.056C65.0694 11.3366 65.8251 10.5446 65.7737 9.37474C68.2887 9.9249 70.5136 11.134 72.7293 12.3855Z" fill="#6FB5E8"></path><path d="M65.7769 9.37775C66.1518 9.90675 66.4782 10.2302 65.7769 10.9648C63.543 13.2772 61.3545 15.626 59.0329 17.8629C57.7089 19.1325 56.4726 20.5291 55.2392 21.9075C54.4956 22.7388 53.8608 22.7448 53.096 22.0496C52.8421 19.3471 53.4165 16.7807 54.4231 14.299C56.0796 10.2121 60.3932 8.13837 64.9064 9.22055C65.1724 9.29008 65.4747 9.33845 65.7769 9.37775Z" fill="#6FB5E8"></path><path d="M95.4016 93.3498C95.2716 93.8244 95.0268 94.299 95.0298 94.7705C95.0298 95.4991 94.794 95.8588 94.2167 96.3817C93.1012 97.3883 92.2034 98.4433 90.5288 97.6211C90.3869 97.5655 90.2312 97.5555 90.0834 97.5923C89.9355 97.6291 89.8028 97.711 89.7035 97.8267L75.1484 89.3929C76.542 87.2436 78.0746 85.2727 80.8677 84.916C85.7647 87.6487 90.689 90.3148 95.4016 93.3498Z" fill="#4F6072"></path><path d="M105.658 112.448L120.999 121.215C121.214 121.335 121.452 121.417 121.676 121.517L127.67 125.129C125.724 126.822 123.348 127.813 121.162 129.104C114.261 133.179 107.32 137.178 100.401 141.217C100.025 141.463 99.6622 141.731 99.3159 142.018C97.3994 142.722 95.4647 143.3 93.3759 143.227C91.1874 143.167 89.1167 142.768 87.2516 141.555C85.3865 140.343 83.2554 139.515 81.487 138.115C80.3655 136.652 80.5439 136.386 81.6623 135.092C82.8382 133.726 84.3648 132.732 85.4288 131.281C86.3357 130.047 87.2788 130.779 88.228 131.193C89.331 132.112 90.6462 132.742 92.0541 133.023C93.462 133.305 94.9181 133.231 96.29 132.807C97.6956 132.411 99.1587 131.9 99.4338 130.186C99.6151 129.047 98.2941 127.81 96.4532 127.221C96.024 127.082 95.5796 127.003 95.1473 126.873C93.5301 126.096 93.512 125.643 94.3886 124.132C95.4185 122.372 96.5999 120.705 97.9193 119.15C99.3068 117.502 101.012 116.206 102.511 114.685C102.824 114.439 103.098 114.146 103.324 113.818C103.82 112.871 104.636 112.491 105.658 112.448Z" fill="#6FB5E8"></path><path d="M69.3344 28.1193C71.0212 29.8242 72.7069 31.5281 74.3917 33.231C74.7816 33.6209 75.1444 34.0441 75.6854 34.2497C76.4533 34.552 76.9883 34.4703 77.6503 33.7721C79.2524 32.0793 80.7276 30.2202 82.7589 28.9778C83.5237 28.5093 83.9681 27.7687 84.4034 26.8346C85.7274 28.7843 87.7074 30.063 88.1487 32.436C88.2571 33.087 88.5756 33.6848 89.0556 34.1378C89.636 34.4673 89.8445 35.0447 89.9806 35.6281C90.5549 38.122 91.2622 40.6007 90.8602 43.2064C90.9865 45.8481 90.6802 48.4927 89.9533 51.0356C88.8923 54.6631 86.861 57.3655 83.0008 58.3238C80.2241 58.5513 77.4325 58.1323 74.8451 57.0995C73.2309 56.0989 71.4353 55.3825 70.0085 54.0766C68.9777 52.7284 67.6084 51.6583 66.7861 50.1318C66.4839 49.5998 66.2148 49.1282 66.5655 48.6204C67.6386 47.0666 67.2849 45.7154 66.106 44.4216C65.9705 44.2109 65.8685 43.9804 65.8037 43.7384C67.7202 43.8987 69.5611 45.7366 69.4704 47.6682C69.3949 49.2673 70.1022 50.2013 71.402 50.9117C72.0489 51.2654 72.327 51.1414 72.3361 50.4069C72.3361 50.156 72.3361 49.9051 72.3512 49.6542C72.451 48.2244 72.723 47.9856 74.1075 48.1216C77.9254 48.4934 79.2917 47.1906 78.9441 43.3455C78.6418 39.8782 76.7827 37.1395 74.564 34.6185C73.7815 33.7015 72.9152 32.8595 71.9764 32.1034C70.6735 31.0606 69.676 29.8091 69.3344 28.1193Z" fill="#6FB5E8"></path><path d="M54.5918 32.025C56.4388 33.2704 57.0403 33.1192 58.053 31.1846C58.189 30.9307 58.3553 30.5952 58.6092 30.5135C60.3171 29.909 60.5982 27.9471 62.0099 27.0131C62.7414 26.5264 62.3938 25.4261 62.4543 24.5948C62.551 23.1801 62.028 21.6566 63.1374 20.4111C63.3159 20.2448 63.5092 20.0951 63.7148 19.9637C63.8023 20.1154 63.8484 20.2874 63.8484 20.4625C63.8484 20.6376 63.8023 20.8096 63.7148 20.9613C62.6326 23.7695 63.3732 26.3329 64.7426 28.8207C64.9421 29.4555 65.5618 29.9997 65.1839 30.7675C65.5164 32.0129 66.4958 32.8502 67.1639 33.884C67.5115 34.4221 68.4154 34.7909 67.7473 35.6192C67.0792 36.4474 66.2177 37.3754 65.0932 36.7437C63.8085 36.0272 63.5485 36.4232 63.1949 37.6505C62.7231 39.1251 62.1159 40.553 61.3812 41.9158C60.8945 42.8801 59.9846 43.2428 59.244 42.2574C56.9738 39.1831 55.1964 35.864 54.5918 32.025Z" fill="#6FB5E8"></path><path d="M90.8664 43.1944C90.2467 41.8553 90.6789 40.3831 90.3041 38.9866C89.8749 37.3754 89.63 35.7098 89.0617 34.1258C89.0617 32.5146 88.0067 31.103 88.1549 29.4615C88.1972 29.0232 87.6712 28.3975 88.4208 28.1678C88.7514 28.0424 89.1116 28.0174 89.4563 28.0959C89.801 28.1744 90.1149 28.3529 90.3585 28.6091C90.8875 29.1411 90.8936 29.8999 91.3077 30.4621C91.4256 30.6223 91.3712 31.0365 91.7823 30.84C93.2091 33.7661 93.8983 36.9068 94.5029 40.0748C94.5663 40.4073 94.4847 40.7852 94.8052 41.0482C95.0198 44.325 95.3493 47.6017 94.8323 50.8876C94.6963 51.7703 94.6661 52.662 94.2278 53.4631C94.1124 53.2285 94.0506 52.9712 94.0469 52.7097C94.0433 52.4483 94.0978 52.1894 94.2066 51.9516L94.2247 51.6494C94.7114 51.205 94.5089 50.6155 94.527 50.0865C94.5482 48.1277 94.4092 46.1568 94.5724 44.2161C94.6933 42.75 93.9406 41.4956 93.9013 40.105C93.9013 39.7151 93.6323 39.5791 93.2967 39.7544C92.5108 40.1504 91.5556 40.359 91.5132 41.5409C91.513 42.1538 91.282 42.7441 90.8664 43.1944Z" fill="#B6F0FF"></path><path d="M73.1406 12.5834C81.6344 18.5605 87.428 29.7544 89.263 34.6042C89.1319 32.6381 89.0271 28.7058 89.6562 28.7058C90.2854 28.7058 91.4913 30.2787 92.0156 31.0651C90.967 28.8368 88.6339 24.0657 87.6901 22.8073C86.5104 21.2344 84.5443 17.6954 82.9714 16.9089C81.713 16.2797 81.3984 16.6467 81.3984 16.9089C80.7431 16.7778 79.0391 16.2011 77.4661 14.9427C75.8932 13.6844 73.9271 12.8455 73.1406 12.5834Z" fill="#B6F0FF"></path><path d="M94.1914 51.9608C94.1914 52.4626 94.1914 52.9644 94.2126 53.4722C94.2458 54.5 93.8135 55.3767 93.3057 56.2321C93.2997 54.7539 93.9375 53.4027 94.1914 51.9608Z" fill="#B6F0FF"></path><path d="M105.657 112.448C103.789 113.555 102.568 115.359 100.987 116.753C99.5994 117.962 98.5233 119.473 97.1721 120.64C95.7332 121.889 95.5428 123.787 94.2157 125.06C93.59 125.664 94.4606 126.235 95.1014 126.553C93.6535 127.363 92.1239 127.209 90.5853 126.943C90.4996 126.819 90.4581 126.67 90.4674 126.52C90.7697 123.881 90.2467 123.04 87.6924 122.26C85.4252 121.568 83.2065 121.716 81.1207 122.892C79.1135 124.023 79.053 125.703 80.9484 127.024C81.868 127.654 82.9506 128.004 84.0649 128.031C85.4252 128.085 86.7855 127.925 88.1307 127.925C88.2136 127.949 88.2902 127.991 88.3549 128.048C88.4195 128.105 88.4707 128.176 88.5046 128.255C88.5384 128.335 88.5542 128.42 88.5507 128.507C88.5472 128.593 88.5245 128.677 88.4844 128.754C88.1488 129.63 88.4602 130.591 88.0975 131.474C86.8671 130.851 86.0479 130.782 85.1562 132.293C84.5244 133.357 83.2941 134.297 82.2966 135.086C80.9937 136.12 80.9212 136.9 81.4864 138.14C78.2399 136.767 75.3833 134.696 72.3423 132.961C70.1295 131.701 67.7838 130.646 65.7585 129.068C65.7373 128.92 65.7222 128.766 65.695 128.62C65.2355 126.365 65.5408 124.488 68.1314 123.956C68.1318 123.798 68.0897 123.642 68.0094 123.505C67.9291 123.369 67.8136 123.256 67.675 123.179C66.9283 122.575 66.9676 121.949 67.814 121.547C69.0564 120.958 69.9724 119.939 71.384 119.461C72.7957 118.984 73.6965 117.345 74.555 115.979C74.8081 115.628 75.1288 115.331 75.4981 115.105C76.6347 113.941 78.1159 113.153 79.053 111.762C79.2392 111.526 79.4766 111.335 79.7474 111.204C80.0181 111.073 80.3151 111.005 80.6159 111.006C82.3147 111.405 83.6599 112.518 85.1502 113.325C86.9639 114.322 88.7202 115.365 90.4976 116.399C90.7805 116.598 91.1177 116.704 91.4634 116.704C91.8091 116.704 92.1463 116.598 92.4292 116.399C95.3755 114.686 98.3258 112.978 101.28 111.275C101.779 110.973 102.247 110.495 102.919 110.876L105.657 112.448Z" fill="#6FB5E8"></path><path d="M80.5884 111.209C78.7747 112.397 77.4356 114.12 75.7246 115.42C74.7815 115.036 74.0621 115.61 73.3396 116.024C72.3421 116.596 71.5984 116.59 70.6885 115.692C69.0653 114.087 65.4197 114.963 64.6882 117.158C65.728 115.701 67.046 114.873 68.8657 115.042C69.7726 115.132 70.613 115.287 70.8488 116.311C71.0845 117.336 70.2442 117.699 69.5943 118.146C69.026 118.527 68.2914 118.624 67.8712 119.259C69.5906 118.53 71.2458 117.658 72.8197 116.653C73.4242 116.269 73.9623 115.595 74.8389 115.973C74.2857 117.651 72.9738 119.389 71.7405 119.739C70.2291 120.166 69.4643 121.402 68.1131 121.765C67.1639 122.019 67.2062 122.481 67.9922 122.907C69.3162 123.639 68.9806 123.95 67.7896 124.452C66.5472 124.972 65.2806 125.661 66.0545 127.499C66.1791 127.752 66.2194 128.038 66.1693 128.316C66.1193 128.593 65.9816 128.847 65.7764 129.041L62.1278 127.227C59.3861 125.259 56.3451 123.796 53.4461 122.088C52.8053 121.713 52.1221 121.411 51.5931 120.879C51.5145 120.818 51.4299 120.764 51.3513 120.704C49.0539 118.839 48.9995 118.285 50.9946 116.197C51.9256 115.22 53.0018 114.383 53.827 113.304C53.9812 113.104 54.223 112.823 54.4134 112.88C55.8977 113.301 56.9073 112.17 58.1467 111.807C58.778 111.636 59.441 111.616 60.0813 111.75C60.704 111.868 61.3388 111.868 61.629 111.185C61.9313 110.45 61.5686 109.942 60.8975 109.622C60.7684 109.576 60.6448 109.516 60.5287 109.443C59.8909 108.863 59.0898 108.401 59.0173 107.4C59.1665 106.913 59.2777 106.414 59.3498 105.91C61.233 106.402 62.2124 105.169 63.3702 104.008C64.2529 103.123 63.5244 102.258 63.7601 101.427C64.3073 101.221 64.7214 101.53 65.1567 101.771C69.8391 104.362 74.3674 107.213 79.0619 109.788C79.6272 110.099 80.5401 110.229 80.5884 111.209Z" fill="#6FB5E8"></path><path d="M59.1268 107.225C59.2719 108.174 60.2302 108.525 60.6383 109.283C60.2423 109.737 59.8433 109.283 59.4533 109.305C59.7768 109.459 60.1818 109.48 60.466 109.731C61.2519 110.426 60.6896 109.377 60.9315 109.38C62.0016 109.818 62.4187 110.366 62.0953 111.145C61.7718 111.925 61.3547 112.479 60.2816 112.179C58.9999 111.829 57.7031 111.877 56.6753 112.995C56.4637 113.222 56.1282 113.636 55.7684 113.404C54.5835 112.609 54.1361 113.476 53.4952 114.223C52.6647 115.228 51.7395 116.151 50.7323 116.98C49.4537 117.995 49.8255 118.875 50.693 119.845C50.9953 120.181 51.2765 120.531 51.5667 120.873C48.0158 118.864 44.4599 116.862 40.899 114.867C40.6336 114.74 40.361 114.629 40.0828 114.534C39.1971 113.537 37.8912 113.201 36.8362 112.466C36.3949 112.164 35.7964 112.073 35.5273 111.523C36.3737 111.439 36.809 110.777 37.2353 110.19C38.1421 108.921 39.0036 107.6 40.2309 106.59C40.3428 106.496 40.5332 106.309 40.4969 106.264C39.7896 105.003 41.0773 104.568 41.5035 103.782C41.5548 103.643 41.5853 103.497 41.5942 103.349C41.5942 102.727 42.0386 102.793 42.4195 102.845C42.8003 102.896 42.9878 103.204 42.9727 103.606C42.9727 103.909 42.8578 104.196 42.8638 104.498C42.8485 104.675 42.8988 104.852 43.0054 104.994C43.1119 105.136 43.267 105.234 43.4412 105.269C43.5157 105.286 43.5929 105.286 43.6678 105.272C43.7427 105.257 43.8137 105.226 43.8762 105.183C43.9388 105.139 43.9915 105.083 44.0311 105.017C44.0707 104.952 44.0963 104.879 44.1062 104.803C44.5476 103.065 45.6963 102.385 47.4949 102.576C46.588 102.028 45.7416 102.331 44.8892 102.428C44.4569 102.476 43.8916 102.57 43.7435 102.019C43.6256 101.578 44.1153 101.348 44.4357 101.146C45.3112 100.565 46.2264 100.045 47.1744 99.5921C47.8092 99.3079 47.4404 99.0479 47.3498 98.7366C47.5462 98.4796 48.6919 98.7638 47.8274 97.8902C47.7803 97.8484 47.7422 97.7974 47.7152 97.7405C47.6883 97.6836 47.6731 97.6218 47.6705 97.5589C47.668 97.496 47.6782 97.4332 47.7004 97.3743C47.7227 97.3154 47.7566 97.2616 47.8002 97.2161C48.0208 96.9864 48.2868 97.1526 48.4833 97.2645C50.0159 98.1713 50.2215 96.6357 50.8351 95.9404C51.1132 95.623 50.8714 95.2543 50.4422 95.1908C49.1242 95.0003 49.233 94.2839 49.762 93.4073C50.3666 93.1262 50.8291 93.507 51.2886 93.7761C54.9734 95.9072 58.6704 98.0081 62.3432 100.175C62.8812 100.478 63.5735 100.689 63.6762 101.472C64.7252 102.509 64.4592 103.362 63.4888 104.356C62.8843 104.961 62.1709 105.447 61.6932 106.118C60.8438 107.303 60.1818 105.973 59.4291 106.07C58.6492 106.345 58.0991 105.768 57.4733 105.526C56.4089 105.066 55.25 104.867 54.0932 104.946C52.9364 105.025 51.8152 105.379 50.823 105.979C48.834 107.128 48.8279 108.491 50.7142 109.752C51.0165 109.964 51.3188 110.254 51.7571 110.308C51.2097 110.059 50.7167 109.705 50.3061 109.265C49.7016 108.51 49.6351 107.724 50.2124 106.919C51.8508 104.64 57.0652 104.417 58.9334 106.548C59.0214 106.634 59.0856 106.742 59.1195 106.861C59.1534 106.979 59.1559 107.105 59.1268 107.225V107.225Z" fill="#6FB5E8"></path><path d="M63.6787 101.463C59.1444 98.6216 54.4499 96.0008 49.7736 93.3981L45.2393 90.6291C45.5899 90.1697 46.0282 90.472 46.4061 90.4115C47.7936 91.5269 49.4108 92.2554 50.9646 93.0898C54.4771 94.7372 58.0169 96.3333 61.1063 98.7516C61.8875 99.3763 62.763 99.8732 63.6999 100.224C67.6296 102.231 71.384 104.589 75.2472 106.735C80.2622 109.715 85.3617 112.551 90.4099 115.471C91.1203 115.882 91.7672 116.006 92.5259 115.541C96.7579 112.938 101.132 110.532 105.37 107.917C105.826 108.219 106.479 107.968 106.881 108.446L102.952 110.864C99.4362 112.596 96.1503 114.733 92.7556 116.68C91.8669 117.191 91.2291 117.258 90.3041 116.707C87.0696 114.815 83.808 113.023 80.5886 111.209C75.0054 107.844 69.404 104.558 63.6787 101.463Z" fill="#DBE3E6"></path><path d="M47.3524 98.7276C47.957 99.0843 48.3318 99.3805 47.3948 99.8672C46.1992 100.478 45.0767 101.223 44.0484 102.086C45.0762 101.986 46.101 101.856 47.1318 101.802C47.5671 101.781 48.0386 101.847 48.0658 102.497C48.087 103.319 47.4431 103.02 47.1136 102.993C45.7503 102.881 44.8283 103.204 44.5774 104.761C44.5049 105.203 44.3114 106.155 43.3441 105.789C42.5128 105.487 41.9717 105.018 42.5159 104.012C42.6489 103.767 43.0025 103.356 42.5159 103.105C42.3596 103.022 42.1778 103.001 42.0068 103.046C41.8359 103.092 41.6883 103.2 41.5939 103.35C40.687 103.758 39.7802 104.278 38.9519 102.954C41.3128 101.509 43.7159 100.052 46.101 98.5613C46.6149 98.2349 46.9443 98.6188 47.3524 98.7276Z" fill="#6FB5E8"></path><path d="M33.7043 99.991C33.0242 100.024 32.6856 99.7733 32.4952 99.4317C32.2352 98.9874 32.743 98.8604 32.9637 98.6458C34.1154 97.5243 35.7629 97.4366 37.108 96.7021C37.2241 96.6723 37.3456 96.6707 37.4623 96.6976C37.5791 96.7244 37.6877 96.7788 37.7791 96.8562C37.9907 97.0527 37.8154 97.3732 37.6552 97.5152C36.4188 98.6065 34.8983 99.2231 33.7043 99.991Z" fill="#6FB5E8"></path><path d="M38.752 98.0232C39.9611 98.6278 39.9611 98.6278 39.0905 99.6525C38.6734 99.1175 39.0905 98.5129 38.752 98.0232Z" fill="#6999E4"></path><path d="M21.8064 91.8867C22.943 91.2671 23.7713 90.1758 24.9683 91.397C25.2978 91.7356 25.449 92.1255 25.0076 92.4157C23.9164 93.1291 22.9218 92.7936 21.8064 91.8867Z" fill="#6FB5E8"></path><path d="M25.3154 89.9309C26.1528 89.2356 26.9145 88.5585 27.9453 89.5198C28.2234 89.7797 28.4834 90.1636 28.0964 90.3994C27.108 91.004 26.1981 90.6836 25.3154 89.9309Z" fill="#6FB5E8"></path><path d="M31.1618 95.7167C30.2549 96.4391 29.5416 96.6417 28.7828 96.1127C28.7285 96.0811 28.6829 96.0366 28.6502 95.983C28.6174 95.9294 28.5985 95.8685 28.5952 95.8058C28.5919 95.7431 28.6043 95.6805 28.6313 95.6238C28.6582 95.5671 28.6989 95.518 28.7496 95.4809C29.5325 94.8642 30.2036 95.3872 31.1618 95.7167Z" fill="#7F9DCC"></path><path d="M75.1111 107.001C71.2327 104.885 67.3544 102.769 63.6242 100.402C63.4761 100.26 63.4882 100.136 63.6605 100.024C65.2203 98.6216 67.4753 98.4523 68.9112 96.6205C70.3924 94.7312 72.1698 92.9628 74.3765 91.7839C74.5101 91.7226 74.614 91.611 74.6656 91.4734C74.7171 91.3357 74.7121 91.1833 74.6516 91.0493C73.8324 91.5572 73.3608 91.3516 73.1674 90.3813C72.989 89.4744 72.0761 89.1268 71.529 88.498C73.3064 88.9364 74.6969 90.1213 76.2356 91.001C79.6333 92.9417 82.9675 94.9942 86.3259 97.0014C86.7279 97.3036 87.1542 97.5636 87.5774 97.8266C89.3125 98.8997 89.5241 100.689 87.9582 102.016C86.5405 103.225 85.2558 104.543 83.9318 105.834C83.5107 106.191 83.1414 106.605 82.8345 107.064C81.3412 109.709 79.8358 109.262 77.3752 108.122C76.6165 107.769 75.9665 107.179 75.1111 107.001Z" fill="#F5BD65"></path><path d="M63.6608 100.024L63.6245 100.402L50.9285 93.0898C52.9387 93.912 53.4072 91.8807 54.1206 91.0071C55.4017 89.4655 56.8426 88.0642 58.4191 86.8264C58.5992 86.6496 58.8301 86.5335 59.0794 86.4945C59.3288 86.4554 59.5841 86.4954 59.8096 86.6088C60.4626 86.9111 60.6349 87.3857 60.6318 88.0567C60.6137 90.6201 60.7346 93.1956 60.6016 95.7439C60.5109 97.479 60.8193 98.794 62.5997 99.4378C62.9699 99.6018 63.325 99.798 63.6608 100.024V100.024Z" fill="#F6C06B"></path><path d="M75.1116 107.001C76.7197 106.814 77.7233 108.249 79.2378 108.512C80.5165 108.73 81.2963 108.612 82.0249 107.551C83.4547 105.471 85.2986 103.754 87.2363 102.176C89.1739 100.598 89.1921 99.1898 87.1456 97.8658C86.7959 97.6633 86.5132 97.3627 86.3324 97.0013C88.5512 97.9414 90.5644 99.2563 92.6351 100.462C96.8822 102.932 101.099 105.429 105.349 107.917C105.349 108.552 104.841 108.715 104.412 108.969C100.446 111.315 96.4772 113.654 92.5263 116.021C91.9459 116.369 91.3806 116.472 90.8244 116.145C85.5979 113.074 80.2172 110.278 75.1116 107.001Z" fill="#F7CA88"></path><path d="M72.1249 31.7833C75.9912 35.1447 79.2952 38.8508 79.3798 44.3796C79.4191 47.7198 77.6598 49.2615 74.4072 48.5632C72.9532 48.2609 72.5602 48.5844 72.7356 49.9447C72.7718 50.247 72.7356 50.5492 72.7356 50.8515C72.8202 52.0153 72.3547 51.967 71.5264 51.4924C69.9031 50.5855 68.6456 49.5245 69.1081 47.3843C69.208 47.0174 69.1752 46.6269 69.0154 46.2818C68.8555 45.9367 68.579 45.6592 68.2345 45.498C67.3639 45.0083 66.7715 44.1196 65.8162 43.7478C65.5506 43.3855 65.2466 43.0531 64.9094 42.7563C63.0957 41.4776 62.9747 39.7939 63.6518 37.8774C63.7667 37.5449 63.7637 37.1126 64.1355 37.0038C64.601 36.8678 64.8489 37.3061 65.0847 37.6084C66.2757 39.1984 67.8506 40.3592 69.4376 41.5018C69.8967 41.8103 70.3811 42.0793 70.8856 42.3059C71.6776 42.6868 72.5965 42.974 73.3039 42.3482C74.0112 41.7225 73.4671 40.8368 73.1769 40.1173C72.6814 39.0163 71.9912 38.0138 71.1395 37.158C70.5349 36.5111 69.7006 36.0365 69.4195 35.1115C69.2411 34.1351 70.024 33.8086 70.6286 33.4943C70.9851 33.3315 71.3029 33.0948 71.5609 32.7998C71.8188 32.5048 72.0111 32.1583 72.1249 31.7833Z" fill="white"></path><path d="M65.2026 30.7524L64.4893 29.0354C65.9342 28.3341 67.4154 27.6872 67.7751 25.8463C67.8177 25.6472 67.9132 25.4632 68.0515 25.3137C68.1898 25.1643 68.3658 25.0548 68.5611 24.9969C68.6289 24.9885 68.6976 24.9984 68.7603 25.0255C68.823 25.0526 68.8774 25.0959 68.9178 25.151C68.8241 25.9702 68.7152 26.7864 69.0659 27.5693C69.0437 27.6766 69.0582 27.7882 69.107 27.8863C69.1558 27.9844 69.236 28.0633 69.3349 28.1104C70.1874 29.3921 70.8766 30.7947 72.125 31.7741C72.524 32.6175 72.2459 33.1284 71.3874 33.4579C70.5289 33.7874 69.7944 34.2317 69.3893 35.0963C67.757 33.8841 66.6657 32.1369 65.2026 30.7524Z" fill="white"></path><path d="M68.7665 25.0392C68.1982 25.4352 68.0259 26.0277 67.8596 26.6716C67.5573 27.8807 65.6257 29.2108 64.477 29.0354C62.7117 26.1365 62.1343 23.1348 63.7062 19.9517C64.8881 18.9874 66.2091 18.5582 67.7236 18.93C68.6002 19.1446 68.9327 18.7879 68.8602 17.9385C68.842 17.6937 68.8602 17.4428 68.8602 17.1949C68.8602 14.9308 68.8602 14.9308 70.8432 15.7318C73.2343 16.6387 72.8473 18.6428 72.7325 20.5382C73.2766 22.6542 73.0347 23.1741 70.9641 23.8331C70.1358 24.0991 69.498 24.6311 68.7665 25.0392Z" fill="white"></path><path d="M68.7666 25.0393C68.8257 24.6884 68.9965 24.3658 69.2535 24.1197C69.5106 23.8735 69.8402 23.7169 70.1934 23.673C72.0343 23.3707 73.044 22.5213 72.7386 20.5383C73.7392 22.0165 75.4592 22.6755 76.6291 23.9511C76.094 25.3114 75.3202 26.4631 73.9085 27.0647C73.1044 26.6052 72.2399 26.2485 71.5235 25.6469C70.6922 25.133 69.7309 25.2812 68.8301 25.1119L68.7666 25.0393Z" fill="white"></path><path d="M73.9174 26.8983C75.0721 26.1456 75.6374 24.8518 76.638 23.951L77.2425 24.1808C79.0563 25.3899 78.8356 25.662 78.355 27.7387C77.7202 30.4864 77.4753 30.4925 75.4681 28.5458C75.1808 28.2679 74.878 28.0066 74.5613 27.7629H74.5794C74.2801 27.5361 73.7783 27.4545 73.9174 26.8983Z" fill="white"></path><path d="M74.5432 27.7778C75.4924 28.0075 75.9216 28.8721 76.5806 29.4525C77.031 29.8515 77.2729 29.8606 77.5842 29.2983C78.5334 27.5874 78.4185 25.6709 77.2245 24.1957C78.3369 24.4103 78.6694 25.1328 78.8054 26.212C78.9687 27.5269 78.2009 28.5879 78.0528 29.8152C77.9742 30.4561 77.1671 30.8279 76.5413 30.181C75.8279 29.4222 75.2143 28.5698 74.5432 27.7778Z" fill="#2192F6"></path><path d="M68.8516 25.1237C69.8099 24.9998 70.7802 24.8214 71.545 25.6588C71.4967 25.6618 71.4482 25.6618 71.3999 25.6588C69.1539 25.3051 69.1539 25.3051 69.0663 27.5722C68.3438 26.8165 68.4768 25.9792 68.8516 25.1237Z" fill="#2192F6"></path><path d="M73.9179 26.8982C74.1355 27.2005 74.3532 27.4816 74.5678 27.7748C73.4675 27.1914 72.2644 26.7561 71.5449 25.6588C72.4639 25.8009 73.1289 26.4659 73.9179 26.8982Z" fill="#2192F6"></path><path d="M90.5429 126.625C92.0543 126.928 93.5808 126.39 95.1013 126.562C96.3041 126.67 97.4586 127.087 98.4537 127.771C100.476 129.207 100.382 131.117 98.2814 132.447C95.7452 134.05 90.6245 134.146 88.0974 131.483C87.5291 130.347 88.0278 129.219 88.1306 128.089C88.4073 127.689 88.7651 127.352 89.1808 127.1C89.5964 126.848 90.0605 126.686 90.5429 126.625V126.625Z" fill="#B2CCED"></path><path d="M90.5426 126.626C89.8353 127.257 89.0147 127.748 88.1243 128.073C85.6123 128.766 83.1396 128.778 80.8151 127.469C78.4905 126.16 78.4633 123.902 80.7546 122.632C83.7593 120.982 86.8457 121.012 89.7899 122.814C91.4162 123.799 91.5855 125.06 90.5426 126.626Z" fill="#FDFDFD"></path><path d="M74.8244 115.985C72.6963 117.194 70.5682 118.395 68.4401 119.588C68.0109 119.83 67.4365 120.283 67.1675 119.697C67.121 119.557 67.1066 119.408 67.1252 119.262C67.1439 119.116 67.1951 118.975 67.2752 118.852C67.3552 118.728 67.4621 118.623 67.5879 118.546C67.7136 118.469 67.8551 118.421 68.0018 118.406C68.7636 118.313 69.4105 117.877 70.0271 117.448C70.934 116.816 70.8191 115.967 69.8035 115.532C68.1741 114.83 65.9372 115.707 65.2329 117.345C65.0999 117.648 65.0969 118.149 64.6525 118.031C64.4552 117.978 64.2819 117.859 64.1606 117.694C64.0393 117.53 63.9773 117.329 63.9844 117.125C63.9734 116.876 64.0332 116.63 64.1568 116.414C65.5624 114.537 69.5979 113.642 71.2423 115.652C71.8711 116.423 72.2066 116.23 72.787 115.888C73.2616 115.607 73.7422 115.335 74.2168 115.051C74.8456 114.676 75.3534 114.749 75.7101 115.429L74.8244 115.985Z" fill="#6FB5E8"></path><path d="M59.1266 107.225C56.9441 105.09 53.7399 104.758 51.2974 106.418C49.6953 107.503 49.7255 108.6 51.3367 109.664C51.8687 110.015 52.5882 110.021 53.0023 110.598C51.8536 111.003 49.4535 109.906 48.9517 108.694C48.3471 107.258 49.254 106.402 50.3301 105.746C53.4164 103.899 56.4453 104.295 59.4198 106.049C59.84 106.575 59.8158 106.977 59.1266 107.225Z" fill="#6FB5E8"></path><path d="M63.1711 113.911C62.9444 113.89 62.6663 113.941 62.6088 113.594C62.5514 113.246 64.2472 112.04 64.8004 112.043C65.142 112.043 65.3022 112.306 65.2478 112.503C64.9667 113.536 64.0114 113.627 63.1711 113.911Z" fill="#6FB5E8"></path><path d="M60.9404 109.395C61.1762 109.951 61.7112 110.429 61.3878 111.457C60.8557 110.021 59.7131 109.722 58.4707 109.265C59.4169 108.676 60.0184 109.208 60.6472 109.298L60.9404 109.395Z" fill="#6FB5E8"></path><path d="M55.1152 110.907C55.1779 110.899 55.2415 110.909 55.2993 110.934C55.3572 110.96 55.4072 111 55.4444 111.051C55.4816 111.102 55.5046 111.162 55.511 111.225C55.5175 111.288 55.5071 111.351 55.481 111.408C55.43 111.599 55.3249 111.77 55.1783 111.901C55.0318 112.033 54.8503 112.119 54.6558 112.149C54.3988 112.194 54.2507 111.871 54.2839 111.602C54.2919 111.501 54.3198 111.403 54.3661 111.314C54.4124 111.224 54.4761 111.144 54.5535 111.08C54.6309 111.015 54.7205 110.966 54.8169 110.937C54.9134 110.907 55.0148 110.897 55.1152 110.907V110.907Z" fill="#5B90DF"></path><path d="M21.4768 92.9568C21.776 93.2495 21.9013 93.5939 21.8528 93.9901C21.81 94.3809 21.6138 94.7425 21.2641 95.075C20.7596 95.5546 20.1684 95.8234 19.4905 95.8814C18.8244 95.9375 18.1545 95.7656 17.4806 95.3655L14.4756 93.5817L20.5121 87.8422L23.416 89.566C24.0715 89.9551 24.4426 90.3923 24.5293 90.8776C24.6221 91.3665 24.4277 91.8399 23.9462 92.2978C23.5907 92.6357 23.1944 92.8564 22.7572 92.9599C22.3261 93.067 21.8993 93.066 21.4768 92.9568ZM19.6414 91.097L20.6706 91.7079C20.9279 91.8607 21.1756 91.928 21.4135 91.9099C21.6633 91.89 21.8914 91.7819 22.0978 91.5857C22.3042 91.3895 22.3914 91.1978 22.3594 91.0106C22.3335 90.827 22.192 90.6588 21.9347 90.5061L20.9054 89.8951L19.6414 91.097ZM18.3915 94.0736C18.655 94.23 18.9116 94.2982 19.1614 94.2783C19.4231 94.2565 19.66 94.1448 19.8721 93.9432C20.0842 93.7415 20.1739 93.538 20.1411 93.3326C20.1145 93.1308 19.9694 92.9518 19.706 92.7954L18.5665 92.119L17.2337 93.3862L18.3915 94.0736Z" fill="white"></path><path d="M22.6284 94.7029C23.1214 94.2341 23.6522 93.8808 24.2209 93.6429C24.7957 93.4086 25.3549 93.2979 25.8987 93.3108C26.4424 93.3237 26.9256 93.4556 27.3483 93.7065C27.7098 93.9211 27.9565 94.1738 28.0884 94.4646C28.2265 94.7591 28.2573 95.0562 28.1808 95.3561L28.8601 94.7102L30.4315 95.643L25.6333 100.205L24.0619 99.2724L24.7412 98.6265C24.3645 98.7481 23.9695 98.7925 23.5562 98.7597C23.1491 98.7305 22.7648 98.6086 22.4033 98.394C21.9867 98.1467 21.7072 97.8259 21.5648 97.4314C21.4281 97.0316 21.445 96.5945 21.6154 96.1202C21.7977 95.6441 22.1354 95.1716 22.6284 94.7029ZM26.461 96.9913C26.8279 96.6424 27.0071 96.3017 26.9987 95.9691C26.9964 95.6402 26.839 95.3829 26.5265 95.1975C26.2141 95.012 25.8415 94.9546 25.4089 95.0254C24.9881 95.0943 24.5942 95.3032 24.2274 95.6521C23.8605 96.0009 23.6753 96.3425 23.6719 96.6769C23.6803 97.0095 23.8408 97.2686 24.1532 97.454C24.4657 97.6395 24.8351 97.6951 25.2617 97.6207C25.6943 97.5499 26.0941 97.3401 26.461 96.9913Z" fill="white"></path><path d="M34.7443 98.1236C35.3447 98.48 35.6391 98.9381 35.6276 99.4978C35.6279 100.056 35.3098 100.637 34.6735 101.242L31.8702 103.908L30.308 102.98L32.9135 100.503C33.2346 100.198 33.3951 99.9079 33.3951 99.6335C33.3952 99.359 33.2451 99.1327 32.9449 98.9545C32.6448 98.7763 32.317 98.719 31.9616 98.7825C31.6062 98.846 31.268 99.0303 30.947 99.3356L28.3415 101.813L26.7701 100.88L31.5683 96.3179L33.1397 97.2507L32.5034 97.8557C32.8748 97.7486 33.2555 97.7178 33.6454 97.7634C34.0411 97.8035 34.4074 97.9235 34.7443 98.1236Z" fill="white"></path><path d="M36.0958 106.416L36.5458 103.576L34.5336 105.489L32.9622 104.556L39.3255 98.5057L40.8969 99.4385L37.3799 102.782L40.8849 101.848L42.8238 102.999L38.2842 104.023L38.044 107.573L36.0958 106.416Z" fill="white"></path><path d="M43.3505 106.048C43.9467 105.481 44.6148 105.059 45.3549 104.781C46.1006 104.498 46.8475 104.379 47.5956 104.424C48.3555 104.468 49.0479 104.676 49.6728 105.047C50.4386 105.501 50.905 106.07 51.0718 106.754C51.2387 107.437 51.0873 108.144 50.6176 108.874L48.89 107.849C49.0135 107.533 49.0218 107.241 48.9147 106.974C48.8138 106.71 48.6132 106.489 48.313 106.311C47.829 106.024 47.2793 105.941 46.6638 106.063C46.0483 106.184 45.4769 106.496 44.9495 106.997C44.4221 107.499 44.1508 107.988 44.1357 108.466C44.1206 108.944 44.355 109.327 44.839 109.614C45.1392 109.792 45.4716 109.888 45.8363 109.901C46.2071 109.917 46.5829 109.844 46.9638 109.68L48.6914 110.706C47.8541 111.218 46.9736 111.492 46.05 111.528C45.1322 111.559 44.2903 111.347 43.5246 110.892C42.8997 110.521 42.4681 110.066 42.2298 109.526C42.0034 108.985 41.9846 108.411 42.1732 107.806C42.3619 107.201 42.7543 106.615 43.3505 106.048Z" fill="white"></path><path d="M49.6852 110.765C50.1782 110.296 50.7091 109.942 51.2777 109.705C51.8525 109.47 52.4118 109.36 52.9555 109.372C53.4992 109.385 53.9824 109.517 54.4051 109.768C54.7666 109.983 55.0133 110.235 55.1453 110.526C55.2834 110.821 55.3142 111.118 55.2376 111.418L55.9169 110.772L57.4883 111.705L52.6901 116.267L51.1187 115.334L51.798 114.688C51.4213 114.81 51.0263 114.854 50.613 114.821C50.2059 114.792 49.8216 114.67 49.4601 114.456C49.0435 114.208 48.764 113.888 48.6216 113.493C48.4849 113.093 48.5018 112.656 48.6722 112.182C48.8546 111.706 49.1922 111.233 49.6852 110.765ZM53.5178 113.053C53.8847 112.704 54.0639 112.363 54.0555 112.031C54.0532 111.702 53.8958 111.445 53.5834 111.259C53.2709 111.074 52.8984 111.016 52.4657 111.087C52.0449 111.156 51.6511 111.365 51.2842 111.714C50.9173 112.063 50.7321 112.404 50.7287 112.739C50.7372 113.071 50.8976 113.33 51.21 113.516C51.5225 113.701 51.892 113.757 52.3185 113.682C52.7512 113.612 53.1509 113.402 53.5178 113.053Z" fill="white"></path><path d="M59.3969 114.073C59.8443 113.931 60.2805 113.871 60.7052 113.893C61.1357 113.91 61.5194 114.018 61.8563 114.218L60.2999 115.698L59.868 115.441C59.4759 115.209 59.1016 115.11 58.745 115.147C58.3942 115.177 58.021 115.381 57.6255 115.757L55.3983 117.875L53.8269 116.942L58.6252 112.38L60.1966 113.312L59.3969 114.073Z" fill="white"></path><path d="M59.8528 116.8C60.3459 116.332 60.8767 115.978 61.4454 115.74C62.0202 115.506 62.5794 115.395 63.1231 115.408C63.6668 115.421 64.15 115.553 64.5728 115.804C64.9097 116.004 65.1501 116.249 65.2939 116.538C65.4439 116.83 65.4867 117.13 65.4224 117.437L67.6496 115.32L69.221 116.253L62.8577 122.303L61.2863 121.37L61.9742 120.716C61.5979 120.847 61.2031 120.896 60.7898 120.863C60.3827 120.833 59.9984 120.712 59.6369 120.497C59.2142 120.246 58.9317 119.923 58.7892 119.529C58.6525 119.129 58.6694 118.692 58.8399 118.218C59.0222 117.742 59.3598 117.269 59.8528 116.8ZM63.6854 119.089C64.0523 118.74 64.2316 118.399 64.2231 118.067C64.2208 117.738 64.0634 117.48 63.751 117.295C63.4385 117.11 63.066 117.052 62.6333 117.123C62.2125 117.192 61.8187 117.401 61.4518 117.75C61.0849 118.098 60.8998 118.44 60.8963 118.774C60.9048 119.107 61.0652 119.366 61.3777 119.552C61.6901 119.737 62.0596 119.793 62.4861 119.718C62.9188 119.647 63.3186 119.438 63.6854 119.089Z" fill="white"></path><path d="M53.4792 28.7057C54.7375 36.5703 63.572 47.8429 68.0286 52.6927L63.7031 52.2995C58.9844 48.3672 55.0521 40.5026 53.4792 36.9635C52.2208 34.1323 51.9062 31.5894 51.9062 30.6719L52.6927 23.5938L53.4792 28.7057Z" fill="#B6F0FF"></path></svg>