<svg xmlns="http://www.w3.org/2000/svg" width="180" height="180" viewBox="0 0 180 180" fill="none"><path opacity="0.05" d="M6.90914 136.703C6.13076 133.589 10.1524 128.595 12.2605 126.487L130.963 88.5406C141.342 93.5677 164.043 100.8 166.378 103.135C169.297 106.054 171.828 118.216 169.396 120.649C166.963 123.081 88.1524 170.757 83.2875 172.216C78.4226 173.676 68.6929 174.162 62.3686 170.757C56.0443 167.351 7.88211 140.595 6.90914 136.703Z" fill="black"></path><path d="M134.448 56.7098C135.068 57.2911 135.628 57.4833 136.547 57.0698C137.965 56.4276 139.123 57.3398 139.123 58.8795C139.123 62.2338 139.072 65.5881 139.15 68.94C139.177 70.1271 138.697 70.8227 137.739 71.3725C137.201 71.679 136.311 71.8589 136.345 72.5303C136.379 73.2016 137.114 73.6614 137.775 73.8681C138.962 74.2427 139.235 75.0138 139.145 76.1692C139.045 77.4122 139.245 78.6892 139.089 79.92C138.933 81.1508 139.661 82.243 139.602 83.4471C139.288 84.8238 139.648 86.2419 139.359 87.6187C138.899 88.5406 137.919 88.7814 137.158 89.3068C136.688 89.7008 137.126 89.9052 137.374 89.9927C139.364 90.6957 139.665 92.2306 139.447 94.0525C139.423 94.4145 139.423 94.7777 139.447 95.1398C139.43 98.01 139.417 100.88 139.447 103.751C139.483 104.213 139.38 104.677 139.15 105.08C138.92 105.483 138.574 105.808 138.157 106.013C131.385 109.883 124.679 113.867 117.912 117.752C116.231 118.725 114.538 119.666 112.882 120.671C112.437 120.941 112.006 121.271 111.435 121.198C110.678 119.659 110.948 118.557 112.327 117.757C115.733 115.772 119.116 113.753 122.544 111.795C119.262 113.631 116.056 115.599 112.775 117.433C111.315 118.245 111.332 118.26 110.868 116.672C110.733 114.948 110.733 113.217 110.868 111.493C110.997 110.902 111.505 110.707 111.96 110.447C115.828 108.258 119.61 105.928 123.48 103.743C119.744 105.845 116.076 108.066 112.354 110.194C111.95 110.437 111.544 110.8 111.033 110.394C110.992 110.235 110.98 110.447 110.98 110.289C110.999 108.747 110.479 107.487 109.1 106.672C109.019 106.115 109.425 105.886 109.812 105.665C116.866 101.617 123.845 97.4506 130.899 93.4079C131.914 92.8568 132.9 92.2544 133.854 91.603C133.431 91.3914 133.173 91.603 132.925 91.7538C127.652 94.8357 122.332 97.8349 117.095 100.975C115.567 101.89 113.977 102.692 112.473 103.629C112.14 103.836 111.778 104.069 111.34 103.872C110.737 101.997 111.007 101.308 112.556 100.379C115.054 98.8881 117.603 97.4773 120.097 95.9692C117.54 97.4603 114.957 98.9052 112.427 100.44C111.656 100.907 111.14 100.837 110.882 99.9049C110.744 98.1842 110.737 96.4554 110.861 94.7335C110.999 94.1303 111.223 93.5952 111.817 93.2741C116.754 90.5254 121.597 87.6162 126.479 84.7727C126.793 84.6201 127.097 84.4471 127.389 84.2546C123.825 86.3441 120.233 88.3898 116.686 90.489C115.331 91.2917 113.955 92.0554 112.592 92.8435C112.145 93.1014 111.668 93.5927 111.05 93.1403C110.997 93.0801 110.961 93.0058 110.948 92.9263C110.972 91.4984 110.634 90.2749 109.172 89.64C109.088 89.5859 109.019 89.5109 108.971 89.4223C108.924 89.3337 108.9 89.2345 108.902 89.1341C110.668 87.7817 112.656 86.7868 114.568 85.68C120.8 82.0776 127.002 78.4241 133.241 74.8314C133.502 74.683 133.852 74.5881 133.971 74.1454C132.881 74.4179 132.025 75.0235 131.132 75.5417C124.92 79.1757 118.7 82.7968 112.471 86.4049C112.128 86.6043 111.795 86.8914 111.354 86.6481C110.729 84.8408 111.048 84.1452 112.588 83.1746C115.58 81.2919 118.712 79.65 121.717 77.7917C118.632 79.6038 115.521 81.3673 112.42 83.143C111.69 83.5638 111.123 83.6076 110.878 82.6249C110.743 80.9046 110.743 79.1763 110.878 77.456C111.055 76.6241 111.678 76.1473 112.337 75.7533C117.37 72.8344 122.393 69.8984 125.312 68.2127C122.767 69.7257 118.058 72.3795 113.393 75.1111C112.695 75.5198 112.043 76.376 111.019 75.8141C110.656 75.0844 110.977 74.2525 110.707 73.5081C110.291 72.8733 109.309 72.8392 109.095 71.9903C109.248 71.353 109.824 71.156 110.311 70.8811C117.798 66.5498 125.277 62.203 132.748 57.8408C133.342 57.5075 133.911 57.1294 134.448 56.7098V56.7098Z" fill="#2192F6"></path><path d="M139.184 95.1737C139.18 95.134 139.18 95.0941 139.184 95.0545C139.483 92.5661 139.205 90.3915 136.18 89.8467C136.369 89.3334 136.688 89.241 136.965 89.095C138.142 89.6178 139.273 90.2377 140.346 90.9486C140.968 91.3316 141.706 91.4816 142.428 91.3718C142.75 91.3353 143.114 91.2818 143.212 90.9169C143.309 90.5521 142.968 90.3599 142.703 90.1872C141.794 89.5937 140.808 89.1242 139.894 88.5356C139.595 88.3434 139.235 88.2121 139.13 87.8058C139.13 86.5896 139.13 85.3953 139.157 84.1888C139.157 83.8702 138.994 83.4056 139.609 83.4396C143.175 85.8186 146.975 87.818 150.672 89.9658C154.756 92.3472 158.857 94.7042 162.948 97.0734C164.213 97.8031 165.198 98.7761 165.661 100.211C166.215 101.98 165.337 103.174 164.026 104.147C162.528 105.263 160.84 106.073 159.229 107.01C145.578 114.956 131.924 122.893 118.267 130.821C109.396 135.973 100.557 141.149 91.7025 146.299C86.8692 149.108 82.0773 151.988 77.193 154.703C72.62 157.244 67.9011 157.378 63.2941 154.795C56.7606 151.132 50.3122 147.315 43.8225 143.574C35.0495 138.518 26.2798 133.459 17.5133 128.396C16.5105 127.862 15.6189 127.141 14.8863 126.272C14.3098 125.543 13.9376 124.759 14.3171 123.806C14.5944 122.14 15.6938 121.113 17.0633 120.315C24.0671 116.234 31.0757 112.159 38.0892 108.09C38.652 107.786 39.1749 107.413 39.646 106.981C40.6044 106.635 41.1419 107.248 41.6722 107.871C41.0738 108.958 39.8114 109.138 38.943 109.861C38.7436 110.063 38.6633 110.347 38.4565 110.549C33.9273 113.225 29.3398 115.81 24.8106 118.493C23.519 119.26 23.5287 119.323 24.8106 120.07C35.4476 126.265 46.1357 132.378 56.7873 138.556C63.6192 142.513 70.4544 146.466 77.2928 150.417C78.1222 150.903 78.7522 150.803 79.533 150.349C88.7227 144.955 97.9279 139.596 107.148 134.27C117.418 128.325 127.649 122.312 137.938 116.406C143.628 113.14 149.242 109.744 154.965 106.526C155.405 106.283 156.118 106.129 156.133 105.584C156.147 105.04 155.43 104.884 154.997 104.633C150.151 101.846 145.294 99.0826 140.478 96.2488C139.986 95.9569 139.458 95.7186 139.184 95.1737Z" fill="#4C5C75"></path><path d="M70.3192 17.983C71.7154 18.4694 72.2919 19.4157 72.2652 20.9408C72.2044 26.4503 72.2287 31.9597 72.2652 37.4813C72.2822 40.0719 71.1949 42.0032 68.9741 43.2876C58.1449 49.5486 47.3254 55.8365 36.45 62.0173C34.3046 63.2335 32.6165 64.654 31.4684 66.8821C29.8606 70.0127 27.9852 73.0046 26.2144 76.0476C26.0392 76.3467 25.9711 76.7554 25.5406 76.8478C25.0322 76.5657 25.1927 76.0816 25.1976 75.6584C25.2203 73.8454 25.2203 72.0324 25.1976 70.2194C25.183 69.2221 25.02 69.1735 24.1346 69.6332C23.147 70.1465 22.6581 70.8494 22.7044 72.0292C22.7481 73.1748 22.9476 74.3473 22.6071 75.4905C22.0792 75.3178 22.1765 74.8703 22.1692 74.4786C22.1546 73.3865 22.1498 72.2894 22.1425 71.1997C22.1425 70.8032 22.1157 70.414 21.549 70.6305C20.4033 71.0684 19.5154 70.5527 18.6665 69.8789C18.6665 63.6835 18.6373 57.4857 18.6811 51.2903C18.6981 48.9259 19.8171 47.0821 21.8214 45.8586C25.1027 43.8543 28.4741 42.0032 31.7944 40.0597C35.3214 37.9921 38.8922 36.0024 42.4144 33.9276C49.1084 29.9797 55.8925 26.1876 62.5817 22.2349C64.8462 20.897 67.2398 19.7854 69.3925 18.27C69.6714 18.0958 69.9907 17.9969 70.3192 17.983V17.983Z" fill="#6889ED"></path><path d="M167.3 101.972C167.3 103.551 167.283 105.135 167.332 106.711C167.393 108.671 166.412 110.102 164.865 111.021C157.524 115.375 150.135 119.651 142.757 123.947C133.7 129.219 124.641 134.489 115.579 139.758L85.77 157.057C82.9338 158.702 80.1219 160.385 77.2565 161.956C74.7511 163.326 72.0194 163.605 69.1832 163.557C65.1162 163.486 61.8859 161.385 58.573 159.48C50.5727 154.887 42.6065 150.237 34.6232 145.615C28.3946 142.005 22.1635 138.399 15.93 134.796C13.7578 133.54 12.4662 131.809 12.6705 129.172C12.746 128.199 12.69 127.226 12.6949 126.253C13.0257 125.667 13.4076 125.985 13.6678 126.265C15.8935 128.617 18.8854 129.799 21.583 131.405C25.4749 133.72 29.3976 135.991 33.3511 138.216C40.3249 142.166 47.2159 146.265 54.1897 150.215C56.9019 151.75 59.6092 153.302 62.2849 154.902C64.9605 156.503 67.8332 156.875 70.8957 156.885C74.1965 156.885 76.9427 155.59 79.6524 154C87.5092 149.378 95.4146 144.849 103.291 140.266C108.786 137.067 114.237 133.806 119.756 130.641C126.148 126.97 132.528 123.276 138.894 119.559C146.459 115.18 154.048 110.819 161.569 106.353C162.095 106.042 162.647 105.784 163.165 105.473C164.518 104.655 165.906 103.877 166.673 102.388C166.785 102.162 166.921 101.853 167.3 101.972Z" fill="#AFB6D0"></path><path d="M41.5434 107.961C41.0266 107.449 40.3639 107.109 39.6461 106.988C38.408 105.799 38.3934 104.363 38.571 102.756C38.7729 100.917 38.6659 99.0413 38.6805 97.1805C38.6926 95.7624 38.6805 94.3443 38.6805 92.9262C39.201 92.537 39.6705 92.7584 40.1399 93.0502C43.1878 94.967 46.3548 96.6794 49.4707 98.4794C54.3356 101.289 59.2005 104.113 64.1018 106.842C66.6097 108.233 69.0032 109.824 71.5451 111.167C72.2115 111.517 72.9097 111.897 73.3061 112.612C73.6175 113.254 73.5834 113.945 73.5834 114.626C73.5834 117.562 73.5834 120.498 73.5834 123.434C73.5834 124.035 73.547 124.65 73.8753 125.19C73.9021 126.112 73.6321 126.36 72.8002 126.078C71.9683 125.796 71.2775 125.348 70.538 124.918C61.5161 119.766 52.5867 114.458 43.504 109.411C42.8667 108.91 41.9448 108.791 41.5434 107.961Z" fill="#2192F6"></path><path d="M41.3518 90.4865C41.1058 90.2807 40.8344 90.1074 40.5442 89.9708C38.5982 89.3481 38.2699 87.7816 38.4766 86.1154C38.8245 83.34 38.5812 80.567 38.6761 77.7965C38.697 77.3914 38.697 76.9854 38.6761 76.5803C38.608 75.4881 39.1237 75.5319 39.8266 75.9916C40.2304 76.2568 40.6026 76.5706 41.111 76.6168C43.3245 77.3465 45.1634 78.767 47.1507 79.8957C54.2047 83.9043 61.2345 87.9787 68.2569 92.0579C69.4731 92.7681 70.6893 93.5173 71.9396 94.1595C72.4723 94.4368 73.0099 94.7457 73.3407 95.293C73.6326 95.9035 73.5839 96.5578 73.5839 97.2024C73.5839 100.321 73.5839 103.437 73.5839 106.555C73.5853 107.081 73.6358 107.605 73.7347 108.122C73.9123 108.851 73.4599 108.961 72.9053 108.898C72.4675 108.812 72.0529 108.635 71.6891 108.377C65.2382 104.568 58.7169 100.878 52.2442 97.1076C49.4129 95.456 46.5037 93.9454 43.7307 92.1795C42.9596 91.603 41.9064 91.4011 41.3518 90.4865Z" fill="#2192F6"></path><path d="M43.407 74.9456C47.2989 72.7273 51.1908 70.5283 55.0681 68.2808C59.607 65.6489 64.1216 62.9756 68.6459 60.3219C68.7675 60.2075 68.9354 60.0981 69.074 60.171C70.3267 60.8254 71.7278 61.2583 72.6059 62.4819C72.4989 63.1483 71.9102 63.3381 71.4408 63.6202C66.5102 66.5756 61.4678 69.3462 56.5494 72.3162C55.321 73.0459 55.3162 73.0581 55.9705 74.3448C56.1726 74.7038 56.2557 75.1176 56.2076 75.5268C56.1595 75.9359 55.9828 76.3193 55.7029 76.6216C55.2408 77.1786 55.3527 77.49 55.9462 77.8378C60.1762 80.3092 64.4427 82.7027 68.6629 85.2008C68.9418 85.3692 69.2561 85.4702 69.5809 85.4955C69.9057 85.5209 70.2319 85.4699 70.5335 85.3467C72.2913 84.6622 74.2454 84.6814 75.9894 85.4002C76.7192 85.697 77.3005 85.4002 77.9208 85.0548C83.5932 81.8489 89.1465 78.4362 94.8481 75.2813C96.4219 75.8481 98.0102 76.4027 99.0562 77.8305C98.1489 78.9275 96.8062 79.38 95.6362 80.0683C88.7597 84.1135 81.837 88.0954 74.9605 92.1454C73.6665 92.9116 72.7202 92.8897 71.4286 92.1454C63.2629 87.4192 55.1313 82.6346 46.9097 77.9983C45.9221 77.4413 44.9637 76.8356 44.0102 76.2154C43.6235 75.9332 43.0081 75.6681 43.407 74.9456Z" fill="#6FB5E8"></path><path d="M134.448 56.7097C134.499 57.544 133.718 57.6097 133.261 57.8773C126.745 61.6994 120.215 65.4989 113.67 69.2756C112.136 70.1683 110.61 71.0805 109.08 71.9829C107.429 71.6667 106.035 70.9273 105.03 69.5384C107.066 67.9184 109.409 66.814 111.634 65.4859C114.93 63.5132 118.277 61.6232 121.593 59.6773C122.252 59.2905 122.605 58.9792 121.999 58.2178C121.367 57.4054 121.398 56.4519 122.014 55.62C122.434 55.0532 122.371 54.7419 121.77 54.3867C117.477 51.8716 113.152 49.4124 108.84 46.9313C108.629 46.8103 108.394 46.7388 108.151 46.7223C107.909 46.7059 107.666 46.7449 107.441 46.8365C105.625 47.4559 103.658 47.4696 101.834 46.8754C101.49 46.7643 101.125 46.7331 100.768 46.7841C100.41 46.8351 100.068 46.967 99.769 47.1697C94.7168 50.1519 89.6185 53.0513 84.576 56.0505C83.9898 56.4008 83.4109 56.7802 82.7031 56.8727C81.2436 56.4056 79.8644 55.8438 78.9814 54.4913C81.5647 52.6694 84.3912 51.2513 87.1058 49.6508C92.3355 46.5616 97.6382 43.594 102.844 40.4659C104.06 39.7362 104.953 39.7362 106.137 40.4367C115.015 45.6259 123.913 50.7835 132.831 55.9094C133.349 56.1892 133.906 56.4324 134.448 56.7097Z" fill="#6FB5E8"></path><path d="M68.1084 58.3978C70.0543 56.8118 72.4138 55.8729 74.4935 54.4913C74.8633 54.2481 75.2452 54.0218 75.6222 53.7883C77.9622 54.8927 80.1489 56.2767 82.3843 57.5732C91.0179 62.5791 99.6603 67.5729 108.312 72.5545C108.767 72.8172 109.219 73.0824 109.654 73.3791C110.017 73.6224 110.255 73.9289 110.034 74.3983C108.088 75.1281 106.451 76.3735 104.682 77.4048C103.953 77.8281 103.323 78.424 102.44 78.5359C102.321 78.5259 102.204 78.4997 102.092 78.4581C95.0841 74.5175 88.1492 70.4529 81.173 66.437C77.1952 64.1456 73.2157 61.8389 69.2346 59.5167C68.7773 59.2516 68.1449 59.1081 68.1084 58.3978Z" fill="#00F919"></path><path d="M70.3189 17.983C67.5945 20.0798 64.4543 21.4857 61.5183 23.2298C56.4102 26.2727 51.1464 29.0919 46.0261 32.1325C40.9059 35.173 35.6907 38.0871 30.551 41.1081C27.4716 42.9179 24.2583 44.5136 21.3516 46.6152C19.7681 47.7584 19.014 49.3711 19.0018 51.283C18.9678 57.0308 19.0018 62.7787 18.9848 68.5265C18.9848 68.9887 19.1575 69.5165 18.671 69.8765C16.4429 69.1176 15.5089 67.7019 15.5964 65.2208C15.7667 60.086 15.5964 54.939 15.5964 49.7968C15.5964 47.2427 16.7421 45.2992 18.9629 44.0173C34.1145 35.2703 49.2832 26.5938 64.3618 17.7568C66.6216 16.4238 68.3948 16.2438 70.3189 17.983Z" fill="#566CF8"></path><path d="M167.3 101.972C166.084 104.558 163.574 105.553 161.326 106.859C154.515 110.819 147.683 114.74 140.869 118.693C133.919 122.721 126.975 126.761 120.038 130.811C112.583 135.163 105.149 139.551 97.6912 143.893C90.9169 147.838 84.1425 151.776 77.3244 155.644C75.6178 156.578 73.7155 157.097 71.7712 157.159C68.7039 157.318 65.7071 157.159 62.9853 155.634C57.8771 152.764 52.8323 149.796 47.7558 146.878C44.1071 144.781 40.4585 142.716 36.8098 140.609C33.3193 138.588 29.8531 136.515 26.3504 134.494C23.3853 132.791 20.3812 131.13 17.4258 129.386C16.049 128.576 14.5531 127.902 13.5607 126.55C13.3563 126.27 13.1131 125.917 12.6728 126.248C12.1863 124.74 13.5485 124.477 14.305 123.816C14.3439 125.871 15.6671 127.002 17.2701 127.926C22.109 130.719 26.9471 133.51 31.7844 136.299L62.6934 154.16C67.6361 157.018 72.569 157.062 77.5312 154.16C105.869 137.673 134.213 121.196 162.562 104.728C164.316 103.709 165.807 102.539 165.636 100.214C165.918 100.664 166.077 101.213 166.755 101.296C166.838 101.299 166.919 101.319 166.993 101.356C167.066 101.392 167.132 101.445 167.183 101.509C167.235 101.573 167.272 101.648 167.292 101.728C167.313 101.808 167.315 101.891 167.3 101.972V101.972Z" fill="#E1E7F3"></path><path d="M41.3513 90.4865L43.7837 91.9216C43.594 92.4616 43.8907 92.7243 44.3213 92.9749C50.2394 96.4143 56.1818 99.8027 62.0951 103.249C65.3813 105.164 68.7161 107.003 71.9586 108.995C72.8294 109.53 73.5275 109.532 74.4129 109.012C82.1261 104.48 89.8832 100.012 97.6086 95.5046C98.0951 95.22 98.5815 94.8843 99.1824 94.9427C101.493 95.7576 101.877 96.4897 101.347 99.0778C100.7 99.4743 100.788 98.8832 100.664 98.567C100.469 98.0805 100.997 97.2851 100.277 97.1076C99.8124 96.9908 99.4524 97.6816 98.9975 97.937C96.1394 99.5376 93.3178 101.206 90.484 102.846C87.3218 104.67 84.2034 106.528 81.068 108.379C78.7718 109.737 76.4634 111.079 74.087 112.298C73.7245 112.483 73.3572 112.702 72.9705 112.359C70.0515 110.586 67.0791 108.885 64.1261 107.166C60.334 104.957 56.4883 102.829 52.6937 100.637C48.3997 98.164 44.1161 95.6757 39.8432 93.1719C39.4942 92.974 39.0956 92.881 38.6951 92.9043C39.0964 92.1527 39.9648 91.9703 40.5194 91.4157C40.8089 91.1359 41.3367 91.0313 41.3513 90.4865Z" fill="#B6F0FF"></path><path d="M43.407 74.9457C43.21 75.7046 43.8935 75.7995 44.2925 76.0354C50.0249 79.3711 55.7638 82.6954 61.5092 86.0084C65.1579 88.1149 68.8065 90.2043 72.4284 92.3327C72.9441 92.6368 73.3211 92.7219 73.8562 92.4081C80.7092 88.3751 87.5695 84.3535 94.437 80.3432C95.9281 79.4724 97.4265 78.6138 98.9224 77.7503C100.749 77.8914 101.513 78.6941 101.513 80.4746C101.513 80.9149 101.552 81.36 101.377 81.7808C101.258 81.9657 101.107 82.1019 100.905 81.8976C100.662 81.6543 100.676 81.3065 100.645 80.9854C100.538 79.8641 100.523 79.8446 99.5038 80.4187C95.4497 82.697 91.4249 85.02 87.4292 87.3876C83.4668 89.7276 79.4338 91.9459 75.5103 94.3589C74.7806 94.8089 74.0289 95.5751 72.9757 95.0886C68.86 92.7024 64.7881 90.2384 60.6189 87.9446C55.5814 85.1716 50.7141 82.1068 45.623 79.4189C44.0614 78.6162 42.6165 77.5703 41.1084 76.6216C42.293 76.6216 43.0957 76.1351 43.407 74.9457Z" fill="#B6F0FF"></path><path d="M101.165 81.973C101.165 81.9341 101.185 81.8952 101.192 81.8562C101.635 79.8276 101.046 78.373 98.9223 77.7698C97.7061 76.8211 96.3172 76.1692 94.9696 75.4444C93.4421 75.0795 92.2745 74.0117 90.8953 73.3549C90.4964 73.1652 90.1242 72.9098 89.7375 72.6908C89.1961 72.2761 88.586 71.96 87.935 71.7568C85.6048 70.2657 83.1675 68.9522 80.808 67.5146C79.8788 66.9479 78.9156 66.4589 77.9621 65.9506C76.5513 64.9995 75.0432 64.1992 73.5837 63.3503C73.2042 63.1338 72.781 62.9514 72.5378 62.5476C71.3069 61.6938 70.0907 60.8133 68.6459 60.3316C68.4634 59.9449 68.0718 59.8062 67.7605 59.5703C67.4953 59.3684 66.9334 59.3271 67.0307 58.933C67.1402 58.483 67.634 58.3565 68.1083 58.4076C71.0588 60.3852 74.2088 62.0295 77.2786 63.81C85.4223 68.5257 93.5767 73.2244 101.742 77.906C101.9 78.0254 102.045 78.1625 102.172 78.3146C101.442 81.5741 101.963 84.8822 101.807 88.1587C101.776 88.8349 101.912 89.533 101.549 90.1679C101.505 90.2297 101.44 90.2737 101.366 90.292C101.292 90.3102 101.214 90.3016 101.146 90.2676C100.545 89.1171 100.902 87.8887 100.844 86.6943C100.844 86.4657 100.844 86.2395 100.844 86.0133C100.922 84.6487 100.489 83.2622 101.165 81.973Z" fill="#E75769"></path><path d="M109.912 74.4009C110.031 73.8049 109.569 73.659 109.182 73.4279C103.653 70.2268 98.1253 67.0249 92.6004 63.8222C87.1728 60.686 81.7404 57.5555 76.3031 54.4306C76.047 54.2397 75.8136 54.0202 75.6074 53.7763C76.1255 53.2898 76.6217 53.3044 77.2153 53.7155C77.7334 54.0755 78.2661 54.4938 78.9642 54.4695C80.1001 55.3938 81.3966 56.0603 82.6931 56.7049C84.0626 57.0211 85.1036 57.9771 86.3198 58.5925C87.0009 58.9403 87.6358 59.3782 88.3412 59.6871C92.1163 61.942 95.9207 64.1482 99.7736 66.2547C101.15 67.3128 102.751 68.0011 104.206 68.9303C104.531 69.1371 104.979 69.2076 105.101 69.6601L109.056 71.9782L110.858 73.2236C110.201 77.0279 110.698 80.8663 110.535 84.6828C110.496 85.556 110.734 86.4657 110.228 87.2855C110.198 87.311 110.163 87.3301 110.126 87.3416C110.088 87.3532 110.048 87.3569 110.009 87.3525C109.97 87.3482 109.932 87.3359 109.898 87.3165C109.864 87.297 109.834 87.2707 109.81 87.2393C109.496 86.7722 109.528 86.2371 109.528 85.7141C109.518 82.479 109.518 79.243 109.528 76.0063C109.557 75.4565 109.481 74.8679 109.912 74.4009Z" fill="#E75868"></path><path d="M22.6216 75.4905C22.1935 73.8608 22.3784 72.1946 22.4708 70.56C22.5122 69.8157 23.5946 69.677 24.1735 69.2148C24.497 68.9546 24.947 68.5629 25.3508 68.76C25.8081 68.9838 25.5576 69.5627 25.56 69.9762C25.5795 72.2651 25.56 74.5565 25.56 76.8454C24.3244 76.9403 23.5508 76.0281 22.6216 75.4905Z" fill="#566DF7"></path><path d="M139.184 95.1738C144.859 98.4527 150.524 101.741 156.211 104.998C157.162 105.543 156.8 105.772 156.126 106.164C151.293 108.963 146.477 111.79 141.648 114.597C135.353 118.257 129.054 121.912 122.751 125.562C112.813 131.334 102.878 137.107 92.946 142.881C88.3998 145.523 83.8341 148.135 79.2976 150.811C78.6044 151.222 78.1179 151.227 77.4368 150.83C71.1774 147.187 64.9082 143.561 58.6293 139.955C49.6195 134.766 40.6106 129.577 31.6025 124.387C29.0071 122.891 26.4214 121.378 23.8333 119.875C23.3322 119.586 22.836 119.289 23.6703 118.805C28.4638 116.025 33.2614 113.248 38.063 110.474C38.1752 110.428 38.293 110.397 38.4133 110.381C38.8998 110.836 38.7441 111.437 38.7465 111.984C38.7636 115.147 38.7976 118.309 38.732 121.471C38.7076 122.624 39.0847 123.332 40.099 123.903C46.0828 127.299 52.043 130.737 57.9798 134.217C62.1757 136.664 66.4155 139.038 70.5895 141.514C71.5041 142.059 72.3725 142.796 73.5449 142.75C77.2957 140.743 80.9201 138.517 84.6003 136.387C90.1365 133.181 95.6484 129.928 101.204 126.752C101.632 126.462 102.104 126.248 102.557 125.998C104.943 124.652 107.258 123.183 109.654 121.862C110.112 121.699 110.486 121.376 110.941 121.211C111.092 121.155 111.254 121.139 111.413 121.164C120.223 116.055 129.038 110.947 137.858 105.84C138.831 105.288 139.184 104.665 139.155 103.549C139.094 100.761 139.17 97.9663 139.184 95.1738Z" fill="#57B2FD"></path><path d="M109.977 87.2903C110.045 87.2847 110.109 87.2554 110.157 87.2076C110.413 87.0227 110.619 86.7673 110.938 86.6749C111.085 86.6111 111.245 86.5836 111.405 86.5946C114.906 84.5854 118.407 82.5754 121.908 80.5646C125.654 78.3965 129.393 76.2194 133.124 74.0335C133.662 73.7221 134.158 73.6127 134.717 74.2767C133.231 75.1524 131.798 76.0135 130.339 76.8576C123.518 80.8176 116.696 84.7735 109.87 88.7254C109.584 88.8702 109.29 88.9986 108.99 89.1097C108.923 89.1568 108.847 89.1892 108.767 89.2045C108.686 89.2199 108.604 89.218 108.524 89.1989C108.445 89.1797 108.37 89.1439 108.306 89.0937C108.241 89.0435 108.188 88.9801 108.15 88.9078C108.221 87.7646 109.238 87.6843 109.977 87.2903Z" fill="#6FB5E8"></path><path d="M111.405 103.865C116.1 101.155 120.794 98.4445 125.489 95.7331C128.043 94.2542 130.597 92.7607 133.141 91.2794C133.572 91.0361 134.126 90.7296 134.404 91.3158C134.681 91.902 133.961 91.9677 133.628 92.1623C125.696 96.7953 117.759 101.422 109.817 106.042C109.573 106.183 109.362 106.37 109.133 106.528C108.603 106.813 108.386 106.433 108.16 106.071C108.33 105.142 109.252 105.01 109.819 104.5C110.199 104.327 110.585 104.166 110.95 103.955C111.092 103.887 111.248 103.856 111.405 103.865Z" fill="#6FB5E8"></path><path d="M111.206 104.025C110.822 104.249 110.525 104.67 109.99 104.558C109.367 103.923 109.562 103.099 109.571 102.369C109.61 98.9635 109.591 95.5581 109.571 92.1527C109.715 91.4035 109.343 90.99 108.698 90.6616C108.054 90.3332 107.392 90.0608 106.944 89.46C107.112 88.7643 107.448 88.3776 108.207 88.7692C108.411 89.0124 108.693 89.0392 108.983 89.1024C109.029 89.1657 109.063 89.2678 109.126 89.2897C110.999 89.9441 111.415 91.3768 111.204 93.15C111.418 93.5489 111.255 93.9478 111.204 94.3468C111.204 96.3057 111.204 98.2638 111.204 100.221C111.323 101.486 111.324 102.76 111.206 104.025Z" fill="#D64458"></path><path d="M108.258 106.035C108.54 106.217 108.745 106.521 109.134 106.521C110.997 107.2 111.418 108.645 111.213 110.425C111.391 110.668 111.313 110.912 111.213 111.143V117.012C111.369 118.446 111.357 119.894 111.177 121.325L110.019 121.923C109.45 121.481 109.572 120.834 109.569 120.252C109.569 116.63 109.54 113.011 109.569 109.394C109.681 108.769 109.443 108.365 108.89 108.017C108.268 107.625 107.463 107.433 107.132 106.65C107.236 105.957 107.577 105.687 108.258 106.035Z" fill="#D03A57"></path><path d="M139.136 87.8108C140.434 88.5405 141.736 89.2703 143.027 90.0194C143.378 90.2213 143.757 90.4451 143.689 90.9316C143.621 91.4181 143.181 91.5713 142.796 91.6443C142.327 91.7319 141.77 91.8462 141.364 91.6784C139.783 91.0289 138.248 90.27 136.971 89.0951L139.136 87.8108Z" fill="#121F37"></path><path d="M111.211 86.7771C110.885 86.9789 110.595 87.2635 110.16 87.2076C110.16 83.1479 110.192 79.0857 110.16 75.0235C110.16 74.2938 110.269 73.6833 110.875 73.2308C111.495 74.0554 110.941 75.026 111.208 75.8944C111.5 76.2981 111.281 76.6946 111.208 77.0935V82.9654C111.476 84.2352 111.225 85.5073 111.211 86.7771Z" fill="#D13A56"></path><path d="M111.211 94.3589V93.1621C113.673 92.0578 115.925 90.5691 118.282 89.2702C121.527 87.4848 124.706 85.5754 127.917 83.7267C127.995 83.6805 128.138 83.7462 128.564 83.7997C126.404 85.0718 124.477 86.2151 122.544 87.3413C118.987 89.4113 115.431 91.4764 111.858 93.5245C111.491 93.7386 111.444 94.0986 111.211 94.3589Z" fill="#CFCEE4"></path><path d="M111.203 77.0935C111.203 76.6946 111.203 76.2933 111.203 75.8943C113.373 75.0892 115.224 73.7051 117.219 72.5765C120.75 70.5868 124.251 68.5362 127.766 66.5149C127.904 66.4346 128.06 66.3787 128.337 66.6243C126.948 67.466 125.603 68.2857 124.251 69.0981C120.116 71.5816 115.847 73.8706 111.806 76.5292C111.59 76.7003 111.388 76.889 111.203 77.0935V77.0935Z" fill="#CECDE3"></path><path d="M111.162 121.327L111.199 117.015C111.391 117.547 111.473 117.912 112.257 117.448C115.883 115.29 119.576 113.242 123.334 111.104C123.307 111.833 122.743 111.938 122.395 112.147C118.936 114.21 115.463 116.25 111.975 118.267C111.774 118.359 111.608 118.512 111.5 118.704C111.392 118.897 111.349 119.119 111.376 119.338C111.413 119.943 111.403 120.554 111.413 121.157L111.162 121.327Z" fill="#CDCEE3"></path><path d="M111.211 86.777V82.9654C111.391 83.0578 111.425 83.3983 111.78 83.1916C114.037 81.8829 116.319 80.6156 118.571 79.2997C119.883 78.5359 121.303 77.9886 122.583 77.1519C121.352 78.3413 119.887 79.1756 118.447 80.027C116.258 81.3137 114.069 82.5713 111.88 83.8532C111.707 83.9618 111.569 84.1181 111.483 84.3032C111.396 84.4883 111.365 84.6944 111.393 84.8967C111.413 85.4635 111.393 86.0302 111.41 86.5994L111.211 86.777Z" fill="#CECEE4"></path><path d="M111.216 111.145C111.216 110.902 111.216 110.659 111.216 110.428C113.585 109.404 115.689 107.905 117.932 106.65C119.824 105.592 121.68 104.461 123.56 103.388C123.786 103.259 124.025 103.035 124.604 103.388L111.216 111.145Z" fill="#CECDE3"></path><path d="M111.206 104.025V100.231C111.449 100.678 111.765 100.528 112.103 100.326C114.171 99.0924 116.239 97.8519 118.321 96.6478C119.143 96.1614 120.023 95.7819 120.863 95.3538L121.026 95.6287C119.809 96.4022 118.632 97.29 117.338 97.9249C115.414 98.8662 113.74 100.216 111.802 101.116C111.33 101.335 111.386 101.756 111.386 102.157C111.386 102.722 111.386 103.288 111.386 103.86L111.206 104.025Z" fill="#CDCEE4"></path><path d="M73.7174 143.027C73.1628 143.579 72.7274 143.047 72.3212 142.815C68.872 140.87 65.4333 138.905 62.0052 136.922C54.7979 132.76 47.6198 128.542 40.3712 124.453C38.9117 123.633 38.3474 122.77 38.4252 121.067C38.5736 117.513 38.4447 113.95 38.4252 110.389L38.7025 109.742C39.5198 109.88 40.2155 110.299 40.9088 110.715C45.0001 113.167 49.1352 115.541 53.285 117.902C59.2833 121.342 65.2598 124.818 71.2558 128.262C72.0196 128.7 72.8417 129.087 73.3623 129.863C73.6542 130.517 73.586 131.21 73.6055 131.891C73.6566 135.601 73.4717 139.313 73.7174 143.027Z" fill="#2192F6"></path><path d="M72.9729 129.649C68.7307 127.168 64.4983 124.672 60.2464 122.21C56.7267 120.174 53.1778 118.189 49.6556 116.163C46.5445 114.373 43.4359 112.573 40.3564 110.727C39.8067 110.396 39.0502 110.398 38.6951 109.754L41.5386 107.981C42.2002 108.418 43.0151 108.613 43.5551 109.245C43.6694 109.878 44.1559 110.155 44.657 110.445C49.1797 113.052 53.6999 115.665 58.2178 118.282C62.8053 120.938 67.4075 123.57 71.9853 126.241C72.8756 126.761 73.5883 126.773 74.4543 126.263C81.3526 122.188 88.3191 118.206 95.2272 114.161C96.4969 113.432 97.6596 112.395 99.1945 112.167C101.491 113.059 101.87 113.804 101.352 116.377C101.216 116.577 101.048 116.642 100.866 116.433C100.644 116.166 100.659 115.832 100.622 115.509C100.515 114.293 100.437 114.232 99.3843 114.935C98.168 115.742 96.874 116.409 95.6213 117.143C88.7399 121.174 81.8367 125.171 74.9456 129.174C74.3667 129.503 73.7926 130.113 72.9729 129.649Z" fill="#B6F0FF"></path><path d="M45.4407 140.351C44.1904 140.39 43.0666 140.351 42.2201 139.393C41.5123 138.602 41.578 137.773 42.4074 137.123C43.9082 135.946 46.6836 135.936 48.1918 137.104C49.1647 137.858 49.1355 138.972 48.1115 139.726C47.282 140.351 46.3212 140.419 45.4407 140.351Z" fill="#111D35"></path><path d="M146.401 92.3983C146.977 92.4664 147.877 92.3107 147.86 93.2934C147.843 94.2372 146.943 94.3127 146.245 94.3248C145.547 94.337 144.722 94.1667 144.754 93.291C144.785 92.4154 145.627 92.4105 146.401 92.3983Z" fill="#101F37"></path><path d="M56.6979 38.3424C56.8317 35.7494 57.4082 33.3559 59.7847 31.8332C61.429 30.7775 62.7352 31.3467 63.0174 33.2927C63.4333 36.1435 63.0028 38.8094 60.8282 40.8989C60.0985 41.6092 59.1523 42.3584 58.0139 41.8719C56.8196 41.3684 56.8463 40.1375 56.7077 39.06C56.6903 38.8212 56.6871 38.5816 56.6979 38.3424V38.3424Z" fill="#F6FAFC"></path><path d="M31.899 59.1251C31.7506 58.0427 31.3055 57.8822 30.5198 58.3346C30.2979 58.4345 30.0628 58.5017 29.8217 58.5341C29.486 58.6119 29.143 58.6119 29.0068 58.23C28.9562 58.0729 28.962 57.9031 29.0233 57.7499C29.0846 57.5966 29.1975 57.4696 29.3425 57.3908C29.5834 57.2486 29.8507 57.1567 30.1282 57.1208C31.2641 56.9457 31.7652 56.4154 31.663 55.1627C31.5803 54.1897 31.5512 53.5841 30.2887 53.7811C29.1868 53.9538 28.9241 53.1024 28.9947 52.2024C29.1066 50.8038 29.8071 49.663 30.819 48.7484C31.3055 48.3178 31.6898 47.9432 31.6266 47.2476C31.6004 47.105 31.6303 46.9578 31.7101 46.8368C31.7898 46.7158 31.9133 46.6302 32.0547 46.5981C32.3879 46.5446 32.3538 46.8803 32.4293 47.0968C32.6725 47.8095 33.0836 47.2062 33.4022 47.1843C33.8693 47.1503 34.5066 46.5641 34.7255 47.306C34.9103 47.9262 34.2925 48.2376 33.7014 48.4249C32.5825 48.7751 31.9355 50.4292 32.4414 51.5311C32.6676 52.0176 33.0568 51.7889 33.3852 51.7451C34.6938 51.5676 35.066 51.8911 35.0879 53.2046C35.1089 53.8775 34.9614 54.545 34.659 55.1465C34.3565 55.748 33.9087 56.2644 33.356 56.6489C32.4828 57.2814 32.5314 58.286 31.899 59.1251Z" fill="#F6FBFB"></path><path d="M55.7637 39.1986C55.7223 41.8111 55.0704 44.1559 52.7499 45.703C51.1493 46.7708 49.8309 46.3111 49.5245 44.4551C49.038 41.5095 49.415 38.7097 51.7769 36.5643C52.5066 35.8978 53.4212 35.1997 54.5012 35.6692C55.6201 36.1557 55.7174 37.277 55.7637 38.3449C55.7734 38.6343 55.7637 38.9189 55.7637 39.1986Z" fill="#F6FAFC"></path><path d="M40.865 46.5664C41.4853 46.1432 42.1177 45.6567 42.811 45.2602C43.4094 44.9172 44.0904 44.6035 44.7423 45.107C45.3942 45.6105 45.4721 46.3353 45.3942 47.0894C45.1267 49.4878 43.7426 51.064 41.6458 52.0929C41.2896 52.2851 40.9055 52.4205 40.5075 52.4943C40.111 52.5526 39.5345 52.7618 39.4299 52.0953C39.3472 51.531 39.7023 51.1686 40.2594 51.0932C40.8653 51.0336 41.4511 50.8436 41.9767 50.5362C42.4614 50.2442 42.9139 49.9017 43.3267 49.5145C44.1999 48.6607 44.5429 47.0967 43.8958 46.6953C42.8572 46.0483 42.1786 46.9386 41.478 47.5005C41.0718 47.824 40.7872 48.3007 40.3834 48.6291C39.858 49.0548 39.3788 48.9064 39.4421 48.2035C39.5758 46.7172 39.8118 45.2407 40.0575 43.7667C40.1329 43.3094 40.544 43.0491 40.9453 42.8229C41.9304 42.2659 42.9083 41.6894 43.8934 41.1202C44.1999 40.9451 44.5794 40.6167 44.8664 41.0229C45.1534 41.4291 44.8226 41.8037 44.4821 42.0445C44.0336 42.3912 43.5482 42.6873 43.0348 42.9275C41.3734 43.6086 40.4929 44.7056 40.865 46.5664Z" fill="#F6FAFC"></path><path d="M47.1892 48.7947C46.7392 48.8384 46.6857 48.5514 46.6711 48.2644C46.6368 47.9607 46.7135 47.6548 46.8869 47.4032C47.0603 47.1515 47.3189 46.971 47.6149 46.8949C48.0551 46.7538 48.1889 47.1017 48.1646 47.4519C48.1576 47.7483 48.0606 48.0356 47.8863 48.2754C47.7121 48.5153 47.4689 48.6964 47.1892 48.7947V48.7947Z" fill="#EAF5FC"></path><path d="M162.511 108.924C163.129 109.827 162.998 110.817 161.969 111.456C159.675 112.877 157.313 114.19 154.975 115.545C154.637 115.742 154.297 115.789 153.971 115.511C153.355 114.538 153.706 113.745 154.457 113.04C155.265 112.281 156.277 111.838 157.221 111.298C158.381 110.634 159.514 109.931 160.677 109.279C161.246 108.958 161.828 108.659 162.511 108.924Z" fill="#1C2943"></path><path d="M151.54 114.782C152.725 115.431 152.82 116.662 151.555 117.457C149.249 118.934 146.831 120.233 144.462 121.612C143.975 121.899 143.625 121.648 143.287 121.327C142.905 120.435 143.384 119.8 143.929 119.182C144.676 118.335 145.744 117.99 146.678 117.44C148.259 116.513 149.76 115.404 151.54 114.782Z" fill="#1C2943"></path><path d="M39.3805 143.321C39.9692 143.662 40.5651 143.995 41.1513 144.345C43.2019 145.562 43.3989 146.201 42.5889 148.451C42.3821 149.02 42.1024 148.875 41.7813 148.677C39.85 147.527 37.814 146.552 35.9775 145.24C36.8678 144.165 38.1619 143.813 39.3805 143.321Z" fill="#4C5C75"></path><path d="M39.3815 143.321C38.4086 144.253 37.0707 144.525 35.9761 145.24C35.4896 143.915 35.5091 142.514 35.1953 140.911L39.3815 143.321Z" fill="#1E2943"></path><path d="M162.511 108.924C160.548 109.318 159.117 110.756 157.366 111.566C156.673 111.887 156.052 112.359 155.379 112.724C154.25 113.332 153.72 114.22 153.97 115.511C152.754 114.643 152.939 113.308 154.457 112.398C156.16 111.381 157.882 110.415 159.594 109.43C159.918 109.264 160.232 109.081 160.535 108.881C161.217 108.384 161.866 108.358 162.511 108.924Z" fill="#4C5A73"></path><path d="M151.54 114.782C149.665 116.158 147.617 117.258 145.583 118.367C144.34 119.043 143.409 119.851 143.287 121.339C142.591 121.116 142.482 120.658 142.725 120.019C142.943 119.365 143.39 118.811 143.983 118.459C146.04 117.277 148.084 116.073 150.146 114.901C150.567 114.66 151.015 114.222 151.54 114.782Z" fill="#4D5B74"></path><path d="M53.0484 153.061C53.0484 153.652 52.866 154.114 52.1776 154.099C51.3992 154.082 50.3703 152.808 50.4165 151.893C50.4433 151.351 50.6184 150.821 51.3165 150.838C52.1168 150.859 53.0484 152.083 53.0484 153.061Z" fill="#4E5D76"></path><path d="M30.4223 140.276C30.4223 139.712 30.6169 139.332 31.2542 139.325C32.0861 139.325 33.1418 140.641 33.0494 141.614C32.9983 142.161 32.7234 142.531 32.1177 142.521C31.3345 142.507 30.4053 141.256 30.4223 140.276Z" fill="#4E5C75"></path><path d="M45.5012 149.042C45.5012 148.446 45.7201 147.999 46.3696 147.965C47.0191 147.931 48.155 149.322 48.1185 150.181C48.0942 150.716 47.9531 151.253 47.2453 151.251C46.5374 151.249 45.5134 149.976 45.5012 149.042Z" fill="#4E5D76"></path><path d="M28.0314 138.571C28.0485 139.152 27.9341 139.629 27.2068 139.643C26.4066 139.658 25.5576 138.636 25.5041 137.593C25.4822 137.043 25.5041 136.501 26.2339 136.447C27.0779 136.389 28.012 137.513 28.0314 138.571Z" fill="#4D5C73"></path><path d="M72.9727 112.378C74.4054 111.943 75.6824 111.162 76.9619 110.432C82.16 107.438 87.38 104.48 92.4978 101.357C94.9302 99.8732 97.5913 98.7519 99.8097 96.9105C100.053 96.7159 100.42 96.4581 100.642 96.5238C101.06 96.6478 100.899 97.1319 100.943 97.4797C101.019 98.0659 100.739 98.6959 101.157 99.2384C101.855 100.367 101.427 101.595 101.466 102.782C101.422 102.981 101.335 103.167 101.212 103.328C101.088 103.49 100.931 103.622 100.751 103.716C96.3362 106.178 92.0575 108.876 87.6305 111.32C86.0056 112.218 84.4829 113.293 83.4564 113.811C85.1835 112.816 87.4918 111.413 89.8464 110.092C93.3054 108.146 96.6889 106.086 100.136 104.13C100.513 103.916 100.948 103.466 101.391 104.079C101.7 105.186 101.332 106.344 101.656 107.448C101.77 107.97 101.776 108.51 101.673 109.034C101.454 110.335 100.32 110.715 99.3864 111.294C99.0117 111.46 98.6506 111.656 98.3064 111.88C90.7975 116.258 83.2545 120.571 75.7626 124.976C75.2299 125.29 74.7386 125.81 74.0064 125.538C73.1283 125.565 73.2159 124.949 73.2159 124.37C73.2159 121.009 73.2159 117.647 73.2159 114.283C73.2312 113.639 73.1492 112.997 72.9727 112.378V112.378Z" fill="#2192F6"></path><path d="M74.009 125.538C77.4144 123.592 80.7979 121.675 84.1863 119.729C88.2047 117.418 92.2133 115.09 96.2317 112.78C96.8885 112.4 97.4479 111.829 98.2239 111.673C98.6252 111.673 98.9682 111.753 98.9536 112.266C90.8585 117 82.7439 121.712 74.6755 126.486C73.5104 127.177 72.7028 126.973 71.6155 126.338C62.4914 121.013 53.326 115.759 44.1898 110.452C43.8201 110.238 42.672 110.172 43.5647 109.219C45.4109 109.768 46.9409 110.921 48.5779 111.868C56.1525 116.207 63.6931 120.607 71.2458 124.981C71.7323 125.263 72.2577 125.494 72.7515 125.769C73.2452 126.044 73.6685 126.039 74.009 125.538Z" fill="#6FB5E8"></path><path d="M101.189 86.5751L101.306 90.2992C101.826 92.3594 101.561 92.8897 99.4669 94.0111C99.1421 94.178 98.827 94.3631 98.5232 94.5657C92.6075 97.8762 86.7818 101.34 80.9318 104.762C79.1561 105.804 77.3342 106.759 75.5804 107.842C75.0259 108.185 74.4591 108.666 73.6977 108.486C73.0775 108.195 73.2113 107.625 73.2113 107.119C73.2113 103.622 73.2113 100.125 73.2113 96.6308C73.2113 96.1103 73.2648 95.58 72.968 95.1081C74.8337 94.7992 76.1934 93.5076 77.7648 92.627C79.8729 91.4416 81.9696 90.2384 84.055 89.0173C86.4486 87.6235 88.8202 86.1884 91.2137 84.797C94.2372 83.0384 97.2802 81.3138 100.304 79.5551C100.868 79.2292 100.89 79.5332 100.941 79.9638C101.021 80.6303 100.698 81.3381 101.157 81.9632C101.277 83.346 101.286 84.7361 101.184 86.1203C99.2796 87.4995 97.1561 88.5113 95.1518 89.7227C90.9461 92.2719 86.6383 94.6338 82.4302 97.1927C84.9672 95.6457 87.5383 94.1643 90.1264 92.6878C93.4929 90.7613 96.8059 88.74 100.197 86.85C100.52 86.6773 100.797 86.417 101.189 86.5751Z" fill="#2192F6"></path><path d="M73.703 108.487C78.9181 105.49 84.1324 102.49 89.3459 99.4865C92.3573 97.7595 95.3719 96.0406 98.3897 94.3298C98.7862 94.3687 98.9176 94.6265 98.9176 94.9841C96.4073 96.7452 93.6611 98.1049 91.0292 99.6592C85.3568 103.018 79.6308 106.297 73.9462 109.62C73.3746 109.956 72.9732 109.917 72.4138 109.588C65.2219 105.403 58.0186 101.235 50.8041 97.0857C48.4949 95.7495 46.1849 94.4157 43.8741 93.0844C43.2611 92.7317 42.7284 92.3814 43.7987 91.9265C48.0651 94.3711 52.3365 96.806 56.5932 99.2652C61.7986 102.269 66.987 105.302 72.1949 108.299C72.6327 108.555 73.1289 109.048 73.703 108.487Z" fill="#6FB5E8"></path><path d="M89.7402 72.4014C91.5392 73.3131 93.2852 74.3258 94.9699 75.4346L79.2637 84.6317C79.1167 84.702 78.9753 84.7833 78.8405 84.8749C77.6948 85.8017 76.5394 86.0619 75.0702 85.4635C73.5207 84.8311 71.8691 85.1327 70.3294 85.7311C70.0942 85.8396 69.8356 85.8873 69.5772 85.8699C69.3188 85.8525 69.0689 85.7705 68.8505 85.6314C64.331 83.019 59.8075 80.4211 55.2799 77.8379C54.8591 77.5946 54.6937 77.4146 55.0634 76.9184C56.2991 75.2619 56.2991 75.1744 55.0367 73.603C54.4383 72.8563 55.1753 72.7711 55.4964 72.579C58.3181 70.9127 61.1762 69.3073 63.9905 67.629C66.8048 65.9506 69.7918 64.4181 72.5356 62.5476C74.4602 63.4625 76.314 64.5194 78.0816 65.7098C80.1151 69.39 83.6007 70.8519 87.4124 71.8152C88.2042 71.9408 88.9833 72.137 89.7402 72.4014V72.4014Z" fill="#FEFEFE"></path><path d="M73.9459 87.5675C74.0286 87.9348 74.6392 88.1391 74.3327 88.611C74.0262 89.0829 73.5008 89.1194 73.024 89.0246C72.3332 88.8883 71.3359 88.7448 71.494 87.8716C71.6424 87.0543 72.5911 87.3 73.2624 87.3997C73.4972 87.4468 73.7294 87.5061 73.9581 87.5773L73.9459 87.5675Z" fill="#FEFEFE"></path><path d="M73.9578 87.5676C73.7924 87.2368 73.228 87.0446 73.5199 86.5606C73.7632 86.1373 74.2497 86.0741 74.6948 86.1179C74.8934 86.1391 75.0882 86.1874 75.2737 86.2614C75.7894 86.4584 76.507 86.619 76.3172 87.3317C76.1275 88.0444 75.4075 87.8522 74.8578 87.8182C74.5439 87.7683 74.2358 87.6868 73.9383 87.5749L73.9578 87.5676Z" fill="#FEFEFE"></path><path d="M72.5596 89.5914C72.0731 89.8663 71.6815 90.7273 71.1488 89.6157C71.0223 89.3506 70.475 89.2508 70.1028 89.1487C69.9228 89.1 69.5725 89.3773 69.6382 88.9419C69.682 88.6476 69.9544 88.526 70.2925 88.6525C71.0539 88.9371 71.6012 89.7252 72.5596 89.5914Z" fill="#FEFEFE"></path><path d="M88.3097 59.9035C86.3151 59.0594 84.4981 57.9089 82.7151 56.7146C88.4873 53.3724 94.2667 50.04 100.022 46.6686C100.264 46.5025 100.544 46.3993 100.836 46.3683C101.128 46.3373 101.424 46.3795 101.695 46.4911C103.663 47.1721 105.66 47.2354 107.611 46.3962C108.098 46.187 108.445 46.3184 108.852 46.5543C113.327 49.1546 117.801 51.7621 122.298 54.3211C122.994 54.7176 123.028 54.9292 122.49 55.513C121.576 56.4859 121.549 57.4589 122.49 58.4051C123.22 59.1348 122.802 59.3465 122.203 59.6943C116.92 62.7559 111.642 65.8257 106.368 68.9035C105.95 69.1467 105.541 69.4119 105.128 69.6673C103.22 68.7089 101.318 67.7384 99.6254 66.4175C97.531 62.7494 94.0429 61.273 90.1681 60.4167C89.5398 60.2793 88.9194 60.1079 88.3097 59.9035V59.9035Z" fill="#FEFEFE"></path><path d="M105.567 43.2972C105.687 43.7302 106.521 43.8591 106.151 44.4502C105.862 44.9197 105.339 45.0559 104.77 44.8735C104.159 44.6764 103.473 44.5499 103.254 43.8494C103.14 43.487 103.539 43.3386 103.826 43.1902C104.436 42.8789 104.996 43.2316 105.577 43.307L105.567 43.2972Z" fill="#FEFEFE"></path><path d="M105.567 43.3143C105.412 42.9665 105.032 42.6113 105.504 42.2537C105.686 42.0926 105.909 41.9847 106.149 41.9418C106.388 41.8989 106.635 41.9226 106.861 42.0105C107.462 42.2416 108.333 42.4459 108.107 43.1756C107.881 43.9054 107.056 43.9273 106.341 43.5965C106.098 43.4797 105.818 43.397 105.558 43.2973L105.567 43.3143Z" fill="#FEFEFE"></path><path d="M101.408 45.1167C101.946 44.387 101.95 44.387 102.838 44.8735C103.325 45.1483 103.782 45.5545 104.441 45.3818C103.955 45.7005 103.597 46.5421 102.96 45.4767C102.889 45.343 102.791 45.2261 102.671 45.1338C102.552 45.0415 102.413 44.9761 102.266 44.942C102.119 44.9078 101.966 44.9057 101.818 44.9359C101.67 44.966 101.53 45.0277 101.408 45.1167V45.1167Z" fill="#FEFEFE"></path><path d="M108.214 88.7838C107.974 88.7608 107.734 88.8153 107.528 88.9392C107.321 89.0631 107.16 89.2499 107.068 89.4722C105.959 90.3228 104.768 91.0626 103.514 91.6809C102.515 92.2111 102.31 91.333 102.101 90.6179C101.919 86.9011 102.04 83.1844 102.033 79.47C102.02 79.0613 102.153 78.6614 102.408 78.3414C104.619 77.0498 106.839 75.7728 109.031 74.4495C109.157 74.3554 109.307 74.3006 109.464 74.292C109.621 74.2833 109.776 74.3212 109.912 74.4009L109.977 87.2928C109.659 88.1052 108.562 88.0006 108.214 88.7838Z" fill="#FDBB21"></path><path d="M108.214 88.7838C107.974 88.7608 107.734 88.8153 107.528 88.9392C107.321 89.0631 107.16 89.2499 107.068 89.4722C105.959 90.3228 104.768 91.0626 103.514 91.6809C102.515 92.2111 102.31 91.333 102.101 90.6179C101.919 86.9011 102.04 83.1844 102.033 79.47C102.02 79.0613 102.153 78.6614 102.408 78.3414C104.619 77.0498 106.839 75.7728 109.031 74.4495C109.157 74.3554 109.307 74.3006 109.464 74.292C109.621 74.2833 109.776 74.3212 109.912 74.4009L109.977 87.2928C109.659 88.1052 108.562 88.0006 108.214 88.7838Z" fill="#00F919"></path><path d="M102.405 78.3389L102.51 91.0338C102.546 91.3136 102.54 91.5972 102.493 91.8754C102.446 92.0541 102.338 92.2108 102.188 92.3184C102.038 92.4259 101.855 92.4774 101.671 92.464C101.16 92.4422 101.32 92.0067 101.318 91.7343C101.318 91.2478 101.235 90.7613 101.384 90.2919C101.401 86.8865 101.442 83.5005 101.418 80.1049C101.418 79.3557 101.576 78.7719 102.167 78.317C102.247 78.3182 102.326 78.3255 102.405 78.3389Z" fill="#D23F5B"></path><path d="M98.9243 94.9915L98.3965 94.3347C98.6298 94.0797 98.9367 93.9037 99.2746 93.8312C100.788 93.9698 102.043 94.8674 102.194 95.9109C101.851 96.5774 101.807 97.295 101.809 98.0247C101.809 100.642 101.821 103.257 101.809 105.874C101.809 106.46 101.924 107.09 101.396 107.577C101.05 106.348 101.427 105.084 101.204 103.85C101.155 103.807 101.117 103.753 101.091 103.694C101.064 103.634 101.051 103.57 101.051 103.505C101.051 103.44 101.064 103.376 101.091 103.316C101.117 103.257 101.155 103.203 101.204 103.16C101.293 101.857 101.282 100.549 101.169 99.2482C101.627 97.1855 101.067 95.6725 98.9243 94.9915Z" fill="#E35C6D"></path><path d="M102.162 95.5702C101.299 94.8186 100.236 94.4027 99.2676 93.831C99.4903 93.6651 99.7253 93.5163 99.9706 93.3859C100.963 92.9432 101.413 92.2232 101.233 91.1213C101.222 90.8443 101.248 90.5671 101.308 90.2967L101.379 90.2797V92.2256C102.369 92.3254 102.418 91.6613 102.503 91.0313C102.695 91.8656 103.167 91.6029 103.631 91.3159C104.738 90.6324 105.738 89.7519 107.061 89.4697C107.842 89.8881 108.613 90.3211 109.404 90.72C109.592 90.791 109.747 90.9307 109.837 91.1111C109.928 91.2915 109.946 91.4993 109.89 91.6929C107.625 92.6002 105.633 93.994 103.541 95.2151C103.198 95.4146 102.87 95.6724 102.449 95.7162C102.339 95.7037 102.237 95.6519 102.162 95.5702V95.5702Z" fill="#FCCF6C"></path><path d="M102.162 95.5702C101.299 94.8186 100.236 94.4027 99.2676 93.831C99.4903 93.6651 99.7253 93.5163 99.9706 93.3859C100.963 92.9432 101.413 92.2232 101.233 91.1213C101.222 90.8443 101.248 90.5671 101.308 90.2967L101.379 90.2797V92.2256C102.369 92.3254 102.418 91.6613 102.503 91.0313C102.695 91.8656 103.167 91.6029 103.631 91.3159C104.738 90.6324 105.738 89.7519 107.061 89.4697C107.842 89.8881 108.613 90.3211 109.404 90.72C109.592 90.791 109.747 90.9307 109.837 91.1111C109.928 91.2915 109.946 91.4993 109.89 91.6929C107.625 92.6002 105.633 93.994 103.541 95.2151C103.198 95.4146 102.87 95.6724 102.449 95.7162C102.339 95.7037 102.237 95.6519 102.162 95.5702V95.5702Z" fill="#00BA13"></path><path d="M87.3243 72.0341C84.3641 71.4649 81.686 70.2998 79.5162 68.1592C78.8327 67.4879 78.1516 66.7581 78.0908 65.7C81.4962 67.5049 84.8205 69.4411 88.0638 71.5087C88.217 71.6279 88.4189 71.8079 88.2681 71.9684C88.0079 72.2433 87.6454 72.1411 87.3243 72.0341Z" fill="#6FB5E8"></path><path d="M101.189 86.5751C96.4164 89.3578 91.6756 92.194 86.8569 94.894C85.2442 95.7964 83.7774 97.037 81.8193 97.2899C83.9477 96.008 86.0664 94.714 88.202 93.4491C91.7947 91.3232 95.3826 89.1851 99.0142 87.1248C99.6928 86.7405 100.345 86.2005 101.181 86.1154L101.189 86.5751Z" fill="#CECEE3"></path><path d="M87.3242 72.034C87.5504 71.8224 88.3215 72.394 88.0758 71.5086C88.7168 71.6137 89.3051 71.9275 89.7493 72.4013C88.9233 72.4738 88.0918 72.3479 87.3242 72.034V72.034Z" fill="#AAC982"></path><path d="M88.3093 59.9035C92.3909 60.2319 96.025 61.5527 98.8345 64.6833C99.2856 65.1555 99.5626 65.7671 99.6201 66.4176C97.9174 65.8776 96.5091 64.7732 94.9985 63.8805C92.7655 62.5622 90.3647 61.5162 88.3093 59.9035Z" fill="#6FB5E8"></path><path d="M72.9727 129.649C73.6659 129.678 74.1889 129.276 74.7483 128.955C77.8886 127.148 81.0362 125.358 84.1643 123.531C87.847 121.381 91.4883 119.153 95.1954 117.053C96.8056 116.136 98.4086 115.219 99.9629 114.212C100.6 113.799 100.98 113.816 100.955 114.75C100.955 115.334 100.741 115.966 101.148 116.513C101.858 117.649 101.435 118.883 101.449 120.075C100.963 121.048 99.9702 121.415 99.1067 121.899C94.1397 124.689 89.3016 127.698 84.3467 130.51C82.7705 131.405 81.2332 132.37 80.2748 132.898C82.5054 131.526 85.4291 129.921 88.3019 128.243C92.2813 125.922 96.2778 123.621 100.265 121.322C100.62 121.116 101.055 120.773 101.393 121.393C101.636 123.113 101.452 124.842 101.508 126.564C101.508 126.705 101.458 126.842 101.366 126.949C98.0267 128.899 94.6967 130.865 91.3448 132.811C85.4729 136.216 79.597 139.622 73.717 143.027C73.0918 142.738 73.2305 142.168 73.2305 141.662C73.2305 138.165 73.2305 134.667 73.2305 131.169C73.2159 130.641 73.2743 130.113 72.9727 129.649Z" fill="#2192F6"></path><path d="M109.924 108.953C109.953 113.278 109.983 117.602 110.014 121.926C107.564 123.385 105.166 124.947 102.578 126.175C102.111 125.932 102.062 125.472 102.057 125.032C102.043 123.463 101.945 121.894 102.123 120.328C102.529 118.416 102.339 116.475 102.279 114.555C102.23 112.974 102.731 111.994 104.186 111.325C105.64 110.656 106.973 109.715 108.36 108.893C108.878 108.598 109.43 108.204 109.924 108.953Z" fill="#FDBB20"></path><path d="M109.924 108.953C109.953 113.278 109.983 117.602 110.014 121.926C107.564 123.385 105.166 124.947 102.578 126.175C102.111 125.932 102.062 125.472 102.057 125.032C102.043 123.463 101.945 121.894 102.123 120.328C102.529 118.416 102.339 116.475 102.279 114.555C102.23 112.974 102.731 111.994 104.186 111.325C105.64 110.656 106.973 109.715 108.36 108.893C108.878 108.598 109.43 108.204 109.924 108.953Z" fill="#00F919"></path><path d="M102.483 120.089C102.44 122.118 102.267 124.151 102.581 126.17C102.301 126.615 101.793 126.696 101.382 126.934C101.382 126.854 101.399 126.771 101.406 126.691C101.185 124.609 101.306 122.514 101.294 120.43C101.279 118.241 101.313 116.076 101.294 113.899C101.294 113.235 101.382 112.78 102.138 112.734C102.588 112.826 102.52 113.186 102.518 113.495C102.501 115.696 102.569 117.893 102.483 120.089Z" fill="#D23F5D"></path><path d="M102.405 95.5946C104.594 94.2714 106.735 92.8606 109.028 91.7028C109.371 91.5325 109.607 91.5009 109.907 91.6809C109.934 95.9684 109.962 100.256 109.992 104.544C109.581 105.234 108.642 105.302 108.253 106.02C107.766 106.042 107.311 106.127 107.219 106.733C106.245 107.381 105.237 107.977 104.2 108.518C102.945 109.134 102.368 108.82 102.332 107.407C102.261 104.702 102.332 101.994 102.303 99.2895C102.303 98.3165 102.4 97.3436 102.193 96.3925C102.164 96.2522 102.168 96.107 102.205 95.9685C102.241 95.83 102.31 95.7019 102.405 95.5946V95.5946Z" fill="#FDBB21"></path><path d="M102.405 95.5946C104.594 94.2714 106.735 92.8606 109.028 91.7028C109.371 91.5325 109.607 91.5009 109.907 91.6809C109.934 95.9684 109.962 100.256 109.992 104.544C109.581 105.234 108.642 105.302 108.253 106.02C107.766 106.042 107.311 106.127 107.219 106.733C106.245 107.381 105.237 107.977 104.2 108.518C102.945 109.134 102.368 108.82 102.332 107.407C102.261 104.702 102.332 101.994 102.303 99.2895C102.303 98.3165 102.4 97.3436 102.193 96.3925C102.164 96.2522 102.168 96.107 102.205 95.9685C102.241 95.83 102.31 95.7019 102.405 95.5946V95.5946Z" fill="#00F919"></path><path d="M102.476 96.3413C102.785 96.8691 102.625 97.4456 102.627 97.9978C102.647 101.058 102.627 104.12 102.644 107.18C102.644 108.725 102.785 108.708 104.145 108.153C105.198 107.728 105.918 106.584 107.222 106.74C107.952 107.151 108.681 107.582 109.428 107.971C109.614 108.045 109.766 108.186 109.856 108.365C109.946 108.544 109.967 108.75 109.915 108.944C109.487 108.674 109.148 108.773 108.698 109.041C106.923 110.123 105.113 111.15 103.301 112.174C102.722 112.5 102.6 112.979 102.608 113.59C102.63 115.363 102.622 117.136 102.608 118.909C102.608 119.301 102.734 119.719 102.462 120.079C102.442 118.068 102.435 116.056 102.398 114.045C102.398 113.624 102.571 113.147 102.155 112.804C101.053 112.432 100.015 111.953 99.2217 111.058C99.9003 110.425 101.061 110.352 101.326 109.24C102.24 108.929 101.987 108.119 101.997 107.494C102.041 104.332 101.997 101.17 102.026 98.0075C102.046 97.4408 101.897 96.7889 102.476 96.3413Z" fill="#FDCF6C"></path><path d="M102.476 96.3413C102.785 96.8691 102.625 97.4456 102.627 97.9978C102.647 101.058 102.627 104.12 102.644 107.18C102.644 108.725 102.785 108.708 104.145 108.153C105.198 107.728 105.918 106.584 107.222 106.74C107.952 107.151 108.681 107.582 109.428 107.971C109.614 108.045 109.766 108.186 109.856 108.365C109.946 108.544 109.967 108.75 109.915 108.944C109.487 108.674 109.148 108.773 108.698 109.041C106.923 110.123 105.113 111.15 103.301 112.174C102.722 112.5 102.6 112.979 102.608 113.59C102.63 115.363 102.622 117.136 102.608 118.909C102.608 119.301 102.734 119.719 102.462 120.079C102.442 118.068 102.435 116.056 102.398 114.045C102.398 113.624 102.571 113.147 102.155 112.804C101.053 112.432 100.015 111.953 99.2217 111.058C99.9003 110.425 101.061 110.352 101.326 109.24C102.24 108.929 101.987 108.119 101.997 107.494C102.041 104.332 101.997 101.17 102.026 98.0075C102.046 97.4408 101.897 96.7889 102.476 96.3413Z" fill="#00BA13"></path><path d="M99.2431 111.067C100.297 111.51 101.285 112.098 102.177 112.814C101.486 113.074 101.427 113.616 101.43 114.273C101.43 118.408 101.43 122.558 101.41 126.698C101.014 124.849 101.41 122.969 101.199 121.103C101.15 121.06 101.111 121.006 101.084 120.946C101.057 120.886 101.043 120.821 101.043 120.756C101.043 120.69 101.057 120.625 101.084 120.565C101.111 120.505 101.15 120.452 101.199 120.408C101.289 119.106 101.277 117.799 101.162 116.499C101.171 116.26 101.194 116.022 101.23 115.786C101.637 113.865 100.649 112.843 98.9707 112.262L98.241 111.668C98.5203 111.388 98.8646 111.182 99.2431 111.067V111.067Z" fill="#E36172"></path><path d="M61.8346 34.3606C61.8541 34.8179 62.1126 35.493 62.1126 36.613C61.9779 36.653 61.7934 38.3554 61.6901 38.4507C61.5868 38.546 60.8957 39.5872 60.845 39.7183C60.4225 40.9859 58.7323 40.9859 58.3098 39.7183C58.0666 39.891 57.9111 36.8562 57.9549 36.613C58.1981 35.4162 58.4657 34.2292 59.4581 33.3876C59.9446 32.9838 60.47 32.6214 61.1073 32.9206C61.7446 33.2197 61.7835 33.8716 61.8346 34.3606Z" fill="#6A8AEB"></path><path d="M33.0008 53.2703C33.6551 53.2387 34.0394 53.3506 33.9591 53.9125C33.8424 54.7493 33.4946 55.5447 32.6724 55.8122C32.2613 55.946 32.3975 55.3038 32.4291 55.0606C32.541 54.4136 31.9402 53.4284 33.0008 53.2703Z" fill="#7790DA"></path><path d="M31.6213 49.4878C31.6213 50.4024 31.6213 51.0275 31.6213 51.6527C31.6359 52.2024 31.3173 52.3313 30.8575 52.3094C30.354 52.2827 30.1278 51.981 30.191 51.5189C30.3102 50.7381 30.731 50.1373 31.6213 49.4878Z" fill="#7B90DD"></path><path d="M53.2949 37.0702C54.5073 37.6056 54.5073 37.183 54.9299 38.8732C54.9664 38.9559 54.9104 39.6429 54.9299 39.7183C55.2436 40.8445 54.3847 42.2002 53.8714 43.1488C53.436 43.9564 52.8084 44.7007 51.7455 44.7469C51.6033 44.7435 51.4642 44.7049 51.3406 44.6344C51.2171 44.5639 51.1129 44.4638 51.0376 44.3432C49.5393 42.4215 50.9014 37.9313 53.2949 37.0702Z" fill="#6A8AEB"></path><path d="M102.476 96.3414C102.476 100.279 102.445 104.22 102.442 108.158C102.442 108.747 102.442 109.292 101.761 109.532C101.462 109.639 101.44 109.406 101.343 109.25L101.387 107.567C101.404 104.162 101.443 100.756 101.416 97.3508C101.416 96.5992 101.579 96.0154 102.17 95.5605C102.25 95.5605 102.328 95.58 102.413 95.5946C102.43 95.85 102.454 96.0957 102.476 96.3414Z" fill="#D2405C"></path><path d="M101.189 103.15V103.841L82.0436 114.908L81.8174 114.521C88.2179 110.633 94.6752 106.842 101.189 103.15Z" fill="#CDCDE3"></path><path d="M73.9046 78.874C71.1729 78.874 69.2148 78.5043 67.6702 76.9792C66.5391 75.8602 66.5927 74.3497 67.7529 73.2405C70.2583 70.8494 76.247 70.8762 78.7791 73.2916C79.9686 74.4251 79.9954 75.8529 78.8351 77.0156C77.2856 78.5675 75.3081 78.8473 73.9046 78.874Z" fill="#6FB5E8"></path><path d="M63.9265 71.9611C63.3281 72.2773 62.7102 72.5619 62.1386 72.9171C61.567 73.2722 61.0416 73.1603 60.7521 72.6981C60.3921 72.1144 61.0878 72.0122 61.4113 71.8249C64.481 70.0273 67.5629 68.2517 70.6424 66.4736C70.8421 66.3349 71.0528 66.2129 71.2724 66.1087C71.4871 66.038 71.7203 66.0485 71.9279 66.1382C72.1354 66.2278 72.3029 66.3904 72.3986 66.5952C72.6054 66.9552 72.1189 67.1109 71.8781 67.2811C71.4524 67.5852 70.9878 67.8333 70.5402 68.1033C68.5032 69.657 66.2817 70.9528 63.9265 71.9611V71.9611Z" fill="#6FB5E8"></path><path d="M63.9268 71.9611C66.0512 70.5439 68.2599 69.2572 70.5405 68.1081C69.8935 68.7016 69.6624 69.4751 69.5676 70.3119C68.9862 69.9859 68.5727 70.4238 68.1495 70.667C67.2495 71.1803 66.3397 71.6862 65.4397 72.2019C65.0773 72.4111 64.71 72.7078 64.2235 72.4986C64.2335 72.3896 64.2105 72.2802 64.1576 72.1843C64.1047 72.0885 64.0243 72.0107 63.9268 71.9611V71.9611Z" fill="#EAFCE2"></path><path d="M64.2164 72.4865C65.6467 71.6887 67.0696 70.8763 68.5145 70.1101C68.8526 69.9325 69.3804 69.3633 69.5677 70.2998L64.4596 73.2552C63.8491 73.1676 63.7542 72.9171 64.2164 72.4865V72.4865Z" fill="#6FB5E8"></path><path d="M64.2162 72.4865C63.8902 72.8732 64.1116 73.0849 64.4594 73.2551C64.1943 73.4984 63.7856 73.5981 63.647 73.2965C63.4645 72.8951 63.7297 72.5546 64.2162 72.4865Z" fill="#EAFCE2"></path><path d="M73.8511 88.2657C73.8585 88.3313 73.851 88.3978 73.8291 88.4602C73.8073 88.5226 73.7716 88.5792 73.7249 88.6259C73.6782 88.6727 73.6215 88.7083 73.5592 88.7301C73.4968 88.752 73.4303 88.7595 73.3646 88.7522C72.7638 88.7692 72.2238 88.5649 71.9563 88.0224C71.8249 87.7476 72.1606 87.6162 72.399 87.6041C72.6756 87.5953 72.9505 87.6504 73.2024 87.7651C73.4542 87.8799 73.6762 88.0512 73.8511 88.2657V88.2657Z" fill="#6FB5E8"></path><path d="M74.5683 86.3757C75.0305 86.5776 75.6702 86.5776 75.7846 87.1833C75.8478 87.5044 75.444 87.5798 75.157 87.5506C74.6705 87.502 74.1548 87.3876 74.0016 86.8671C73.914 86.5387 74.2765 86.439 74.5683 86.3757Z" fill="#6FB5E8"></path><path d="M106.504 52.2656C108.509 52.2291 110.364 52.667 111.873 54.0729C113.072 55.1894 113.089 56.5394 112.011 57.6973C109.679 60.1686 103.444 60.2975 101.029 57.9235C99.4623 56.3837 99.7104 54.54 101.632 53.4308C103.167 52.5405 104.41 52.2462 106.504 52.2656Z" fill="#6FB5E8"></path><path d="M115.321 59.3829C115.967 59.0765 116.596 58.7363 117.206 58.3637C117.936 57.8772 118.515 57.9283 119.152 58.714C116.571 60.2172 114.025 61.7132 111.461 63.1848C111.243 63.3049 110.987 63.335 110.747 63.2686C110.508 63.2022 110.304 63.0446 110.179 62.8296C109.848 62.3432 110.568 62.3772 110.697 62.0999C112.059 60.9189 113.626 59.998 115.321 59.3829V59.3829Z" fill="#6FB5E8"></path><path d="M115.716 58.3784L114.828 58.9233C113.405 60.1225 112.043 61.453 109.963 61.2779C110.583 60.2466 111.775 60.0228 112.668 59.3782C113.189 59.0011 113.77 58.7044 114.324 58.3711C114.585 58.2641 114.762 58.0209 115.013 57.909C115.458 57.6925 115.752 57.7947 115.716 58.3784Z" fill="#6FB5E8"></path><path d="M109.946 61.2656C110.515 61.4286 110.919 61.1051 111.384 60.8448C112.52 60.1856 113.673 59.5532 114.818 58.911L115.305 59.3829C113.865 60.4605 112.269 61.2729 110.683 62.0902C111.029 61.2972 110 61.7229 109.946 61.2656Z" fill="#EBFCE2"></path><path d="M115.716 58.3784C115.254 57.42 114.782 58.5511 114.317 58.3784C114.393 58.2161 114.502 58.0718 114.638 57.9552C114.774 57.8385 114.934 57.7523 115.105 57.7022C115.619 57.566 115.804 57.78 115.716 58.3784Z" fill="#EBFCE2"></path><path d="M104.663 43.5406C105.04 43.6865 105.636 43.6962 105.636 44.2192C105.636 44.5865 105.149 44.5622 104.84 44.5087C104.41 44.4333 103.894 44.3189 103.933 43.7644C103.957 43.4141 104.378 43.5406 104.663 43.5406Z" fill="#6FB5E8"></path><path d="M106.901 43.3776C106.456 43.2341 105.865 43.2292 105.867 42.609C105.867 42.2709 106.281 42.3 106.548 42.3463C107.015 42.4265 107.587 42.5141 107.64 43.076C107.675 43.4238 107.215 43.4263 106.901 43.3776Z" fill="#6FB5E8"></path><path d="M101.189 120.405C101.189 120.649 101.189 120.87 101.189 121.101L79.1197 133.808L78.9421 133.528C79.8154 132.682 80.9976 132.244 82.007 131.626C86.7576 128.727 91.5884 125.961 96.3973 123.156C97.9857 122.227 99.5911 121.327 101.189 120.405Z" fill="#CECDE3"></path><path d="M109.703 97.2778C109.703 98.4502 109.703 99.6227 109.703 100.795C109.703 101.333 109.732 101.826 109.114 102.111C108.497 102.396 108.937 102.785 109.114 103.096C109.251 103.339 109.56 103.481 109.642 103.719C109.761 104.057 109.776 104.488 109.399 104.692C109.022 104.896 108.701 104.621 108.497 104.308C108.292 103.994 108.173 103.656 107.981 103.349C107.456 102.508 106.495 102.301 105.855 103.035C105.125 103.875 105.011 103.335 104.853 102.717C104.695 102.099 104.507 101.466 104.61 100.812C104.853 99.1459 104.179 97.5089 104.454 95.8305C104.517 95.4486 104.571 95.1421 104.928 95.1519C106.48 95.1932 107.21 93.8408 108.334 93.1767C108.706 92.9578 109.032 92.43 109.448 92.5759C109.963 92.7559 109.691 93.3567 109.691 93.7678C109.72 94.9329 109.703 96.1054 109.703 97.2778Z" fill="#FDBB20"></path><path d="M109.703 97.2778C109.703 98.4502 109.703 99.6227 109.703 100.795C109.703 101.333 109.732 101.826 109.114 102.111C108.497 102.396 108.937 102.785 109.114 103.096C109.251 103.339 109.56 103.481 109.642 103.719C109.761 104.057 109.776 104.488 109.399 104.692C109.022 104.896 108.701 104.621 108.497 104.308C108.292 103.994 108.173 103.656 107.981 103.349C107.456 102.508 106.495 102.301 105.855 103.035C105.125 103.875 105.011 103.335 104.853 102.717C104.695 102.099 104.507 101.466 104.61 100.812C104.853 99.1459 104.179 97.5089 104.454 95.8305C104.517 95.4486 104.571 95.1421 104.928 95.1519C106.48 95.1932 107.21 93.8408 108.334 93.1767C108.706 92.9578 109.032 92.43 109.448 92.5759C109.963 92.7559 109.691 93.3567 109.691 93.7678C109.72 94.9329 109.703 96.1054 109.703 97.2778Z" fill="#00F919"></path><path d="M102.892 103.15C102.892 102.542 102.892 101.934 102.892 101.325C102.892 101.082 102.911 100.812 103.218 100.759C103.524 100.705 103.66 100.885 103.794 101.109C104.037 101.52 103.923 104.879 103.626 105.244C103.534 105.367 103.401 105.453 103.252 105.487C103.008 105.509 102.906 105.307 102.904 105.091C102.904 104.444 102.904 103.794 102.904 103.145L102.892 103.15Z" fill="#FDBB20"></path><path d="M102.892 103.15C102.892 102.542 102.892 101.934 102.892 101.325C102.892 101.082 102.911 100.812 103.218 100.759C103.524 100.705 103.66 100.885 103.794 101.109C104.037 101.52 103.923 104.879 103.626 105.244C103.534 105.367 103.401 105.453 103.252 105.487C103.008 105.509 102.906 105.307 102.904 105.091C102.904 104.444 102.904 103.794 102.904 103.145L102.892 103.15Z" fill="#00F919"></path></svg>